<mxfile host="app.diagrams.net" modified="2023-03-21T09:08:41.014Z" agent="5.0 (X11; Linux x86_64) AppleWebKit/537.36 (KHTML, like Gecko) Chrome/110.0.0.0 Safari/537.36" etag="GzKky_NZTfDWYeY3w7x3" version="21.0.2" type="github">
  <diagram name="Page-1" id="7a6c530e-6e37-e111-ec74-82921da8cc10">
    <mxGraphModel dx="1793" dy="868" grid="1" gridSize="10" guides="1" tooltips="1" connect="1" arrows="1" fold="1" page="1" pageScale="1.5" pageWidth="1169" pageHeight="826" background="#184380" math="0" shadow="0">
      <root>
        <mxCell id="0" style=";html=1;" />
        <mxCell id="1" style=";html=1;" parent="0" />
        <UserObject label="" id="23046e2b9bb16c14-116">
          <mxCell style="whiteSpace=wrap;html=1;rounded=1;shadow=0;strokeWidth=2;fontSize=20;align=center;arcSize=3;verticalAlign=top;spacingTop=4;fillColor=#FFFFFF;" parent="1" vertex="1">
            <mxGeometry x="122" y="218.5" width="1510" height="723" as="geometry" />
          </mxCell>
        </UserObject>
        <mxCell id="23046e2b9bb16c14-64" value="&lt;b&gt;&lt;font style=&quot;font-size: 16px;&quot;&gt;Web chat / Embedded chat&lt;/font&gt;&lt;/b&gt;" style="rounded=1;whiteSpace=wrap;html=1;shadow=0;strokeWidth=2;fillColor=#0072BC;fontSize=12;fontColor=#FFFFFF;align=center;strokeColor=none;arcSize=3;verticalAlign=top;" parent="1" vertex="1">
          <mxGeometry x="1280" y="440" width="246" height="309" as="geometry" />
        </mxCell>
        <mxCell id="6JY9SX4Q12EulptZ4aJe-37" style="edgeStyle=orthogonalEdgeStyle;rounded=0;orthogonalLoop=1;jettySize=auto;html=1;strokeWidth=2;dashed=1;endArrow=open;endFill=0;" edge="1" parent="1" source="23046e2b9bb16c14-1">
          <mxGeometry relative="1" as="geometry">
            <mxPoint x="1165" y="350" as="targetPoint" />
          </mxGeometry>
        </mxCell>
        <mxCell id="23046e2b9bb16c14-1" value="" style="rounded=1;whiteSpace=wrap;html=1;shadow=0;strokeWidth=2;fillColor=none;fontSize=12;fontColor=#080808;align=center;strokeColor=#303030;" parent="1" vertex="1">
          <mxGeometry x="750" y="420" width="830" height="340" as="geometry" />
        </mxCell>
        <mxCell id="23046e2b9bb16c14-113" value="&lt;font style=&quot;font-size: 43px;&quot;&gt;Fly Me Chatbot Schema&lt;/font&gt;" style="text;strokeColor=none;fillColor=none;html=1;fontSize=24;fontStyle=1;verticalAlign=middle;align=center;rounded=0;shadow=0;fontColor=#FFFFFF;" parent="1" vertex="1">
          <mxGeometry x="92.75" y="70" width="1510" height="40" as="geometry" />
        </mxCell>
        <mxCell id="6JY9SX4Q12EulptZ4aJe-33" style="edgeStyle=orthogonalEdgeStyle;rounded=0;orthogonalLoop=1;jettySize=auto;html=1;endArrow=open;endFill=0;strokeWidth=2;dashed=1;startArrow=open;startFill=0;" edge="1" parent="1" source="6JY9SX4Q12EulptZ4aJe-4">
          <mxGeometry relative="1" as="geometry">
            <mxPoint x="848" y="650" as="targetPoint" />
          </mxGeometry>
        </mxCell>
        <mxCell id="6JY9SX4Q12EulptZ4aJe-4" value="LUIS" style="shape=image;verticalLabelPosition=bottom;labelBackgroundColor=#ffffff;verticalAlign=top;aspect=fixed;imageAspect=0;image=data:image/svg+xml,PHN2ZyB4bWxuczpjYz0iaHR0cDovL2NyZWF0aXZlY29tbW9ucy5vcmcvbnMjIiB4bWxuczpkYz0iaHR0cDovL3B1cmwub3JnL2RjL2VsZW1lbnRzLzEuMS8iIHhtbG5zOmlua3NjYXBlPSJodHRwOi8vd3d3Lmlua3NjYXBlLm9yZy9uYW1lc3BhY2VzL2lua3NjYXBlIiB4bWxuczpyZGY9Imh0dHA6Ly93d3cudzMub3JnLzE5OTkvMDIvMjItcmRmLXN5bnRheC1ucyMiIHhtbG5zOnNvZGlwb2RpPSJodHRwOi8vc29kaXBvZGkuc291cmNlZm9yZ2UubmV0L0RURC9zb2RpcG9kaS0wLmR0ZCIgeG1sbnM6c3ZnPSJodHRwOi8vd3d3LnczLm9yZy8yMDAwL3N2ZyIgeG1sbnM9Imh0dHA6Ly93d3cudzMub3JnLzIwMDAvc3ZnIiB4bWxuczp4bGluaz0iaHR0cDovL3d3dy53My5vcmcvMTk5OS94bGluayIgdmVyc2lvbj0iMS4xIiBpZD0ic3ZnNjY5NCIgaW5rc2NhcGU6dmVyc2lvbj0iMC45Mi4zICgyNDA1NTQ2LCAyMDE4LTAzLTExKSIgc29kaXBvZGk6ZG9jbmFtZT0ibGFuZ3VhZ2VfdW5kZXJzdGFuZGluZ19pbnRlbGxpZ2VudF9zZXJ2aWNlX2x1aXMuc3ZnIiB4PSIwcHgiIHk9IjBweCIgdmlld0JveD0iMCAwIDM5LjA0IDM5LjA0IiBzdHlsZT0iZW5hYmxlLWJhY2tncm91bmQ6bmV3IDAgMCAzOS4wNCAzOS4wNDsiIHhtbDpzcGFjZT0icHJlc2VydmUiPiYjeGE7PHNvZGlwb2RpOm5hbWVkdmlldyBib3JkZXJjb2xvcj0iIzY2NjY2NiIgYm9yZGVyb3BhY2l0eT0iMSIgZml0LW1hcmdpbi1ib3R0b209IjAiIGZpdC1tYXJnaW4tbGVmdD0iMCIgZml0LW1hcmdpbi1yaWdodD0iMCIgZml0LW1hcmdpbi10b3A9IjAiIGdyaWR0b2xlcmFuY2U9IjEwIiBndWlkZXRvbGVyYW5jZT0iMTAiIGlkPSJuYW1lZHZpZXc2Njk2IiBpbmtzY2FwZTpjdXJyZW50LWxheWVyPSJzdmc2Njk0IiBpbmtzY2FwZTpjeD0iMjYuMDIzNjQzIiBpbmtzY2FwZTpjeT0iMjYuMDIzNjQxIiBpbmtzY2FwZTpwYWdlb3BhY2l0eT0iMCIgaW5rc2NhcGU6cGFnZXNoYWRvdz0iMiIgaW5rc2NhcGU6d2luZG93LWhlaWdodD0iMTAxNyIgaW5rc2NhcGU6d2luZG93LW1heGltaXplZD0iMSIgaW5rc2NhcGU6d2luZG93LXdpZHRoPSIxOTIwIiBpbmtzY2FwZTp3aW5kb3cteD0iLTgiIGlua3NjYXBlOndpbmRvdy15PSItOCIgaW5rc2NhcGU6em9vbT0iMTUuMDgxNTkzIiBvYmplY3R0b2xlcmFuY2U9IjEwIiBwYWdlY29sb3I9IiNmZmZmZmYiIHNob3dncmlkPSJmYWxzZSI+JiN4YTsJPC9zb2RpcG9kaTpuYW1lZHZpZXc+JiN4YTs8ZyBpZD0iZzY2OTIiIHRyYW5zZm9ybT0idHJhbnNsYXRlKC0yLjA0LC0yLjAzOTk5OTkpIj4mI3hhOwk8dGl0bGUgaWQ9InRpdGxlNjY2OSI+UGFnZS0xPC90aXRsZT4mI3hhOwk8ZyBpZD0iZ3JvdXA0MjE5LTEiIHRyYW5zZm9ybT0idHJhbnNsYXRlKDIuMDQsLTIuMDQpIj4mI3hhOwkJPHRpdGxlIGlkPSJ0aXRsZTY2NzEiPkxhbmd1YWdlIFVuZGVyc3RhbmRpbmcgSW50ZWxsaWdlbnQgU2VydmljZSAoTFVJUyk8L3RpdGxlPiYjeGE7CQk8ZyBpZD0ic2hhcGU0MjIwLTIiPiYjeGE7CQkJPHRpdGxlIGlkPSJ0aXRsZTY2NzMiPlNoZWV0LjQyMjA8L3RpdGxlPiYjeGE7CQkJPHJlY3QgaWQ9InJlY3Q2Njc1IiB5PSI0LjA4IiBzdHlsZT0iZmlsbDojM0Y1NzY1OyIgd2lkdGg9IjM5LjA0IiBoZWlnaHQ9IjM5LjA0Ii8+JiN4YTsJCTwvZz4mI3hhOwkJPGcgaWQ9Imdyb3VwNDIyMS00IiB0cmFuc2Zvcm09InRyYW5zbGF0ZSg4LjE4NDQzLC04LjgzNTAyKSI+JiN4YTsJCQk8dGl0bGUgaWQ9InRpdGxlNjY3OCI+U2hlZXQuNDIyMTwvdGl0bGU+JiN4YTsJCQk8ZyBpZD0ic2hhcGU0MjIyLTUiPiYjeGE7CQkJCTx0aXRsZSBpZD0idGl0bGU2NjgwIj5TaGVldC40MjIyPC90aXRsZT4mI3hhOwkJCQk8cGF0aCBpZD0icGF0aDY2ODIiIGlua3NjYXBlOmNvbm5lY3Rvci1jdXJ2YXR1cmU9IjAiIHN0eWxlPSJmaWxsOiNGRkZGRkY7IiBkPSJNNC42Miw0MC43OWMtMC4zMy0wLjQxLTAuNDgtMC45OS0wLjQ4LTEuODUgICAgICB2LTMuMjNjMC0xLjY5LTAuNi0yLjc0LTEuNzgtMy4xM2wtMC4wNy0wLjAzdi0wLjE3bDAuMDctMC4wM2MxLjE4LTAuNDQsMS43OC0xLjUyLDEuNzgtMy4yMnYtMy4yNmMwLTEuNDgsMC42OS0yLjI5LDEuOTgtMi4zMiAgICAgIHYtMS43M2MtMS4zOCwwLjAxLTIuNDQsMC4zNS0zLjEzLDEuMDFjLTAuNywwLjY2LTEuMDUsMS42Ny0xLjA1LDMuMDZ2My4yMmMwLDEuNjEtMC42NiwyLjQ4LTEuOTQsMi41MnYxLjczICAgICAgYzEuMywwLjA0LDEuOTQsMC44LDEuOTQsMi4zNnYzLjQ0YzAsMS40NCwwLjMyLDIuNDMsMS4wMSwzLjAzYzAuNjIsMC41OSwxLjcsMC45MSwzLjEzLDAuOTNWNDMuMWgwLjA1di0xLjY5ICAgICAgQzUuNDYsNDEuMzcsNC45Niw0MS4xOCw0LjYyLDQwLjc5eiIvPiYjeGE7CQkJPC9nPiYjeGE7CQkJPGcgaWQ9InNoYXBlNDIyMy03IiB0cmFuc2Zvcm09InRyYW5zbGF0ZSgxNi43ODUyLC0wLjA3ODA3MDkpIj4mI3hhOwkJCQk8dGl0bGUgaWQ9InRpdGxlNjY4NSI+U2hlZXQuNDIyMzwvdGl0bGU+JiN4YTsJCQkJPHBhdGggaWQ9InBhdGg2Njg3IiBpbmtzY2FwZTpjb25uZWN0b3ItY3VydmF0dXJlPSIwIiBzdHlsZT0iZmlsbDojRkZGRkZGOyIgZD0iTTQuMTgsMjkuMTR2LTMuMjNjMC0xLjQtMC4zNC0yLjQtMS4wNi0zLjA3ICAgICAgYy0wLjctMC42NS0xLjc0LTEtMy4xMi0xLjAxdjEuNzRjMS4yOSwwLjA0LDEuOTgsMC44NSwxLjk4LDIuMzN2My4yN2MwLDEuNzEsMC41OCwyLjc4LDEuNzgsMy4yMmwwLjA3LDAuMDN2MC4xN2wtMC4wNywwLjAyICAgICAgYy0xLjE4LDAuNC0xLjc4LDEuNDUtMS43OCwzLjE0djMuMjNjMCwwLjg2LTAuMTYsMS40OC0wLjQ4LDEuODVjLTAuMzMsMC4zOS0wLjc4LDAuNTgtMS40NiwwLjYxdjEuNjggICAgICBjMS4zOS0wLjAyLDIuNDMtMC4zMywzLjEyLTAuOTNjMC42OC0wLjYyLDEuMDItMS42NSwxLjAyLTMuMDN2LTMuNDVjMC0xLjUxLDAuNjYtMi4zMywxLjk0LTIuMzd2LTEuNyAgICAgIEM0LjgzLDMxLjYxLDQuMTgsMzAuNzcsNC4xOCwyOS4xNHoiLz4mI3hhOwkJCTwvZz4mI3hhOwkJPC9nPiYjeGE7CTwvZz4mI3hhOzwvZz4mI3hhOzwvc3ZnPg==;fontStyle=1;fontSize=16;perimeterSpacing=13;" vertex="1" parent="1">
          <mxGeometry x="818.25" y="800" width="59" height="59" as="geometry" />
        </mxCell>
        <mxCell id="6JY9SX4Q12EulptZ4aJe-28" style="edgeStyle=orthogonalEdgeStyle;rounded=0;orthogonalLoop=1;jettySize=auto;html=1;strokeWidth=2;dashed=1;endArrow=open;endFill=0;" edge="1" parent="1" source="6JY9SX4Q12EulptZ4aJe-5" target="6JY9SX4Q12EulptZ4aJe-9">
          <mxGeometry relative="1" as="geometry" />
        </mxCell>
        <mxCell id="6JY9SX4Q12EulptZ4aJe-29" value="&lt;b&gt;&lt;font style=&quot;font-size: 14px;&quot;&gt;Push to Github&lt;/font&gt;&lt;/b&gt;" style="edgeLabel;html=1;align=center;verticalAlign=middle;resizable=0;points=[];" vertex="1" connectable="0" parent="6JY9SX4Q12EulptZ4aJe-28">
          <mxGeometry x="-0.0967" relative="1" as="geometry">
            <mxPoint as="offset" />
          </mxGeometry>
        </mxCell>
        <mxCell id="6JY9SX4Q12EulptZ4aJe-30" style="edgeStyle=orthogonalEdgeStyle;orthogonalLoop=1;jettySize=auto;html=1;entryX=0;entryY=0.5;entryDx=0;entryDy=0;strokeWidth=2;rounded=1;dashed=1;endArrow=open;endFill=0;" edge="1" parent="1" source="6JY9SX4Q12EulptZ4aJe-5" target="6JY9SX4Q12EulptZ4aJe-4">
          <mxGeometry relative="1" as="geometry">
            <Array as="points">
              <mxPoint x="250" y="830" />
              <mxPoint x="670" y="830" />
            </Array>
          </mxGeometry>
        </mxCell>
        <mxCell id="6JY9SX4Q12EulptZ4aJe-31" value="&lt;b&gt;&lt;font style=&quot;font-size: 16px;&quot;&gt;MODEL TRAINING / RETRAINING&lt;/font&gt;&lt;/b&gt;" style="edgeLabel;html=1;align=center;verticalAlign=middle;resizable=0;points=[];" vertex="1" connectable="0" parent="6JY9SX4Q12EulptZ4aJe-30">
          <mxGeometry x="-0.1154" y="-2" relative="1" as="geometry">
            <mxPoint x="108" y="-2" as="offset" />
          </mxGeometry>
        </mxCell>
        <mxCell id="6JY9SX4Q12EulptZ4aJe-5" value="&lt;b&gt;&lt;font style=&quot;font-size: 16px;&quot;&gt;Project code&lt;/font&gt;&lt;/b&gt;" style="aspect=fixed;html=1;points=[];align=center;image;fontSize=12;image=img/lib/azure2/general/Code.svg;perimeterSpacing=7;" vertex="1" parent="1">
          <mxGeometry x="220" y="557.5" width="64" height="52" as="geometry" />
        </mxCell>
        <mxCell id="6JY9SX4Q12EulptZ4aJe-26" style="edgeStyle=orthogonalEdgeStyle;rounded=0;orthogonalLoop=1;jettySize=auto;html=1;strokeWidth=2;dashed=1;endArrow=open;endFill=0;" edge="1" parent="1" source="6JY9SX4Q12EulptZ4aJe-9" target="6JY9SX4Q12EulptZ4aJe-19">
          <mxGeometry relative="1" as="geometry" />
        </mxCell>
        <mxCell id="6JY9SX4Q12EulptZ4aJe-9" value="&lt;b&gt;&lt;font style=&quot;font-size: 16px;&quot;&gt;Github&lt;/font&gt;&lt;/b&gt;" style="dashed=0;outlineConnect=0;html=1;align=center;labelPosition=center;verticalLabelPosition=bottom;verticalAlign=top;shape=mxgraph.weblogos.github;perimeterSpacing=6;" vertex="1" parent="1">
          <mxGeometry x="460" y="545" width="75" height="75" as="geometry" />
        </mxCell>
        <mxCell id="6JY9SX4Q12EulptZ4aJe-17" value="" style="shape=image;verticalLabelPosition=bottom;labelBackgroundColor=default;verticalAlign=top;aspect=fixed;imageAspect=0;image=data:image/png,iVBORw0KGgoAAAANSUhEUgAAAhMAAAJnCAYAAAAtENHzAAAABHNCSVQICAgIfAhkiAAAABl0RVh0U29mdHdhcmUAZ25vbWUtc2NyZWVuc2hvdO8Dvz4AAAAodEVYdENyZWF0aW9uIFRpbWUAbWFyLiAyMSBtYXJzIDIwMjMgMDk6NDE6MTmP6DJ1AAAgAElEQVR4nOzdT4jcWJ4v+m8/Ml0yTD4rm3JZ5YUt3NApqEUKpsFnUeDz4F2sWnRZPXDbojbWvQNjLRqsxYBj9xLuwloMOO6lBsddTFvzFuWgHpSD7kUK+oI10GAtGqy5UFhVUGVdL5xBFzhUdkHqkWnOXURE/o3If5FZabu+HzBVGSEd/XR0JP10pND5mVJK9Xo9zM7OgoiIiN5eL168OPC8r169Gpsr/B8HLpWIiIgITCaIiIhoQkwmiIiIaCJMJoiIiGgiTCaIiIhoIkwmiIiIaCJTxx0AERHR62J1dRVVVWFlZeW4Q9mzEydO4NSpU5iaOr5TOpMJIiKigaqqoOv6sZ6Y92t1dRW9Xg+nT58+thh4m4OIiGhgZWXljUokAGBqagqrq6vHGgOTCSIiIpoIkwkiIiKaCJMJIiIimgiTCSIiIpoIkwkiIiKaCJMJIiIimgiTCSIiIpoIkwkiIiKaCJMJIiIimgiTCSIiIpoIkwkiIqJ9K9EUBvxk86d124XuxKh2nDeBbziIKwBZCEtEKI4u0B8FkwkiIiKaCJMJIiKio1AXiAMHUjpwpID0Wsh26rIo2wgcAek4kELAjdJdejheH2/W0GhERESvjQod34Spbfio7qK2XQBA0fLR1JrIUgENNbJQIIgE8mhUWV20gga6fobUM4A6R0O4aIgCLamNmuG1wmSCiIjoQHS4cYnYWf+kbrswYgCokKc5umUDjhx+CdRWiQqjkoMcaW7CkUb/T82GI4BGVgLSOsJ1OBxMJoiIiI6EBjvsIPH1LZ8nI6ceU8Qbgc9MEBERHTodtrSQdzroAgBqFHGIKB33FIQNxy6RpP2pUedIMg3CNn+UaCfFngkiIqIjYAUxoiKAI2LoWo3a8NBsbe2lGDLgtyJkgQsZ60BVw/DjN+J5CQD4mVJK9Xo9zM7OHncsREREx2ppaQnvv//+cYexb3uN+8WLFwdexqtXr8bmCrzNQURERBNhMkFEREQTYTJBREREE2EyQURERBNhMkFEREQTYTJBREREE2EyQURERBNhMkFEREQTYTJBREREE2EyQURERBNhMkFEREQTYTJBREREE2EyQURERBNhMkFEREQTYTJBREQ0MD09jdXV1eMOY19WV1cxPT19rDFMHevSiYiIXiO6rqOqKqysrBx3KHt24sQJ6Lp+rDEwmSAiIhqYmprCu+++e9xhvHF4m4OIiIgmwmSCiIiIJsJkgoiIiCbCZIKIiIgmwmSCiIiIJsJkgoiI6ED+ir98/t/R/C8Rvvhm73Mt/+UzfP7V0UV1HPjTUCIiogN5D7/67X/Gyc/+K77CCr787J/xjQzx8Vng2eKnSM9dx3+c+TM+W3yK6RlgeeUc/sNvziL/81f4duYP+PL0x/jg5/2Svvq8iT9PXcBp1Fh6Bnx47bf4YOobLH6e4q/TJ7H6Epj7tYvZ9Pd4Kn+Hj05/hc+jP0L7+3/Ex2e/wReffolf/e5jnDummmAyQUREdES++/JLrH7wCT758OdYff4MyyfPwr5wGvXceiLRV2Nq7iN8/ME0nv2hifTpCk7/dRFP567hupgBnn6Bf/rT1/iH+RlkT19iZfUrrP7iLH749jmAr/Hde3N4/5jWEeBtDiIioiNzVv4d5p8n+P2nn+Kz9BnGv6hbw8xM/5XYU9PAygrQ+67G7OxM/+vZs5h5+QNWfzEHfPsNvnv6A2YvzkN7+i2effsMMx9cwHG+UJvJBBER0T49z/+AB18tA1jF8jIwdXIaUwD6w3qs4GXvBwDAy94qLnz0Ca7/7jok/oz/8e3eX9M9e1pDr/ey/0fvGZZnZjEz80tcWP53pN9ouHDuAs7ha6TfTOGXFzg2BxER0Rvl5+fOYemzf8Gnf1oFfi7xyVng5N+eQ7r4Gb54/2+AZa0/Ye8vuP/HBzg5AywvX8CH56YxuzyDp3/6DH+Z/QS/em/8Mt4TH+Hc55/jX789idXlKXz4619iGtOYO/sd0r/O4zfTJ/Hy/ef449e/wq9P/jjrPc7PlFKq1+thdnb2eCMhIiKiI/XixYsDz/vq1auxuQJvcxAREdFEmEwQERHRRJhMEBER0USYTBAREdFEmEwQERHRRJhMEBER0USYTBAREdFEmEwQERHRRJhMEBER0USYTBAREdFE9jU2x+rqKqqqwsrK3gcqISIiOi4nTpzAqVOnMDXFoaiO0r5qt6oq6LrOjUJERG+E1dVV9Ho9nD59+rhDeavt6zbHysoKEwkiInpjTE1NYbU/LjgdIT4zQURERBNhMkFEREQTYTJBREREE2EyQURERBNhMkFEREQTYTJBREREE2EyQURERBNhMkFEREQTYTJBREREE2EyQURERBM5mmSiasPRHbSrzR+ngQkRFTvPm4WwRIQCFWLHgJccNIgaHU+HbHUBVIgdHe7WgPasQtZOUAIAUgSmRKt70LiALLSg6SYsy9rwz0Wr2LjOKQLL3VaHm+0QS52j3RlV1yWaQoNubli27SDslJOs0GCbbZE3IGQTE5S8pmwKWGG2v5nG1sFm3ZaE7nVQHzC2fcsbsO0I+X7mGVfHP7pJ98stDnO9qhShMGHJBtJ/Wy+3bDkQjZ3bTtmSMIN05HfdtI1sx/2wQFMY8DobWlDRhNBsNDZs5Dr1YdoRioNs/03HoB/B2O1SIBIW9rsr0tvvJ9IzocMNXBi6drDZ6wytqHOoO7Lpt1EUxYZ/HQTWxikkWkUHnn7ABeQxonYx5gSpw22tLzuLDHTCCOkBFzWWHSFLQ5iHXe5e7VgH9NYpOkjqAJ00gnxn/WMzSJBF4oCFVkibTaQ7XjxYkK6BLMnW2lo3TVCZNbK0XJsq72TQHAfWyDJ2cQTHIKLDdHzJRNlB6EhIx4GUEm6UYqf9tZs04AjRn17s/0q6Cwe+1PpXhcJHFAbwPQlbhIjbTQS+D1fYcJr5lpNPF+2wgaRI0HAjpIMv8ziA60jYlg23NZinLhAHDqR04EgB6bV2uaLZSQLfcBBXAKoUDceGLR24XgORb2/q4dkWS5WgEbZRpBG8sLNjvQJAXdXQTHtw0q+QNT1IIeE4EkIGiIvBSpdtBM5wGwi4UYptq9dNEAiBMKk2XN3UaLsm3EaEwPfhOQLCiwcHxhKdQMIWEo7rI2q4MJ14e7mD5YeeA0fYsGSIpDtc5Ii2sc86GK1fF0IISCEg/RhFjf72cAWEdCClgPTbgyu4FL7pIGyG8H0PrhBwt7WnoQLt0IUjBSxLIkoHa7yH/aKIBCw3ROj78D0JsaEuhuo02HxlWfd7sZrl+H2piDb3/qSBCdkqR9dMpwHPcSBtC8JvD7blIbadTUp0QgdCSjhSQDjb1xdVgkYjQbeMEbgRsv9/w9xrvVo1itiDsAUc14XfDOEYHpKNZQzbl+gvo4h9LKQF4sBDc4ercVs60NLOoLehQpp04YQu6iQZbL8caVrDcezBHKO3f5014UkB6UhIIeC1ctRjjkEAULVdmH4yOP4k8A0NTjyonCKCGPTyjt4u/V4mf60CckT25t6UYUyubUM6LryghXxEgy4iG1a4nkz1e98ayHE47Y3eAEop9fz5c7UXz54929N0qndPXX7nHXXm/Hl1fsO/M6feURdvPVZKLam7V+bUtcXeYIbH6vbF8+r6g2WlHt5Qcxdvqceqp+5ePqOuLiqlevfV1fOX1O0ng8mf3FGXzlxV93ojlz6wrO5fPaUu3Vna/PGjm2r+zJXBvD1178opdf76A7WslFJPbquL56+rB1uLenJHXVr7/IG6fuaMunJ3UO7jW2vzPL59Uc3feNgvSy2rhzfm1fzNR9sie3hjTs3deDiq4tbXWS2qa2cuq7s9pR7e7E+/rJRSvUV17fw76uLtJzvGsnzvijp19f4glk0ro25ffEedOj+v5ufn1fzcGXXqzCV162G/MpcfXFdz8zfVo8GMvXtX1PlLd9QTtaTuXD6vrtwbLGv5kbo5v2Wb9R6om5cuquuLS8MVHWzLZXXvyjtq7sagntVDdWNuXt16pNTy4jV1/uIt9VgppdSSunfljHrn8l21ddM+uX1RvTN3Qz1c7tftg2Ed7tA2xtfBZkt3Lo2ebhD/o8G2uX/jsrqx2FPLj+6p2/cfD6Z/om5fPK+uPVBr2+Pq/d4w6NHt6dFNNX/qkrr9uF/C0t3Lg+XvZb8Y1MX8MC6lHt2cH9GeHqtbF+fU8OPlxWtq7so9tbRDfT2+dXFTOQ+un1eX7jzZUm5P3b38jjp/bXGwjR6rWxfPqGuLy4fbdjYt8qG6e2dRDSN5eHNu5H61sY621le/rdxTV85cVmu7y+1L6tSpa2pRKfXkziX1zvx6+7p/9czg2PFI3ZyfV7ceb1/cZg/U9fP9Nq2W76urc9fUYu+Buj43ONY8ua0unb+mFpfVDttfqSeLt9Xdwb7Yj3c4/8Zj0AZLd9Tl+Rvq4WCdL12+rC4Nylq6c0nN33y0w3bpH2+uLQ4Le6Ruzc+rm4821l+/fa+36Tvq0qn1drUex111ebh+SqmHN+bVpdtPdtw/99beDseez10/Ad9///2B/+2UKxxdz4Qm0cxLlOX6v7ZnDL7MkaZdZAsupJSQMkC71tAtx1w/FilyXUCag79NAcfIkR30RqspYOsAoMPQdVjCggYAug6jrnfvFtcsOHKwLoYBva5QoUKe5uimDThSQkoHjQyou+XIq+wy9jY/M2EHSEYuuEKRd2FLexCjA3+47LGx7EaH28qR5znyootu6iPzXTQLoMxz1MKBPbgjpEsHZpGiQI40N9eXpdlwBJBnZf/vOkPk+sjcNlqOMWKZGiwh+usAA6Zeo1sDZV4AQgy6fg243nCa7QzpQmj9soS00S0KVIfdNjYoswy1LdC/ltThNhM0HR2aYQCdBlzHheuGaJdd1NVg42kWpBjcm9INGOO2hykgrUFtGAa0qkK9j/3CEMO4AEtY6BbFlh4MC35gImklqFEhiXOIwIVxKPWlwXYk9MFyhK2hyMujazu6AaOKETgOXNfFQlKhqg7Q5VdkKEwJMViE5XprsQKAIdbbl2HoqPe1DAFXVkjSEnWWILcdCF3AFQWStEY3TVAIF3K4vJHbH9B1DVnkwXFduH4TeV2h2umAZDhw9P72K9IcZtCA3U2Q1RXSpIJ07R22y54qDVlhrrdpU8AxR8XhIpQZWp0KqFO0UxO+Zx7+sZteW1PHtmTNQtBOEZpbPt/jgz0HvnuwLY6xf+xxPm3DXBrssIPE3/1BB9Nvo2huvY9bId425YgjydYwR8ayd5rlwbNCxFkFZ98zD/5blkAgUMURUr8FOaIKtHHBHfJDDYfWNkaqkTQ8xEaCLLahoULsmOtd5Xs2po1MsF9srV7DCyGiGJ2yQqeUCB1tZDkHqa+x23JfhQz+u0vbqeIQfuIgSwKYWr973CkPuMwje4BGg3QFglaKtJvBdBagQ4NwLIRJirQqIFy5YRuN2v4ZFvwm0MyQODpQJ/DMaJflmnCcGmGWQUt1SF/AMBeQ5Cm6pYBvY8/HVGBEW6i3V9jo9qLDCRw0FtoojByZHSAygFEPeRzt/knH5ZiembAh7RKdtSftS7QbDXTG3di2JOwqw9qzTGWKrLIhLQB1F2XRPdqH7PZ04NRhSwt5Z3h/vkYRh+v3wg/MgGXpyNPBvfcqQXvnp8HWjTgQjNRNkOT95VhCQMsSZINZu2mC0nZgw4Zjl0iGy65zJJkGYZv9vy0PjShG7OUI1u6h7860TNR5PrhK6qLTycZuy26WDO7X1sjSHIZtQd+pbWyqgxrdokR3Hw3FFAJa1hnURYUkkPDb/wtVVcO0TWgA6qKNdl7vuap3tvf9YmRdbJ1IcxC6JZp+C10vgAB23Jd0XUM9uEIGCmT5uHZWb3jYsECWA5ZtHlnbqaoKmmnC0ABUGTqdAz5Ua9owuymyQRhl0h55/3+Utd6BqkRRjt6nNenCLmJEqb7WC6NLB2YWoZVZcEdl2JuXgqrq74cAUHbifl3W2PEYZEmJqhOhU0tIQ4OQOrIoRmH3e1rGbxcNug5U3cH6dDPk5daVsiCsEunw4a8iRTquV0GE8OsYwUIOETj9kA+lvdGb4Jh6Jgz4rRbywIfoaNDqGppcQDwmk4XuotnKEHgCHV0Hag2i1YKrAyhiuLJA1I33f1W953AFHCNCIAMstL2xk1lBjKgI4IgYulajNjw0Wwf9OcY60WhCuj6ENGGaEsI2d+2i1IQD0WhAehXidrDlCfIKncAe3OqpUcOAaLTRf+B9AbEfoCElNB2oYKPZ8mEA8FsRssCFjHWgqmH4MVpy49WuBrvRRsN14DctJHt4gF5zFxC1Pbh2B5ZpQVoCWrH9yFnXgGkBse+i6JbowkWzLQAd49vGpjqw0HRC6J0ckb09jpHEAmLfRygEgBqwQ7TcOZhGgFYgIWMThu2jsSDhRz5iO9hjwePsfb8wzRqx76LsliiHdTGC7XtAK4HfHrSAnfYlN4QTN+C4MUzdhGFaY67kDdhagsBtotstUdlNtB0Nh9p2Qnvt/Gl6IZx2CCktGIZAsNCAGTQQdDpouaNuqY2rXg8LjQ4CKdC2TJjShq3tluxbcCTgexJodhCUPkQSoNvxtp/fdQnX8vGfyhBNc7hMCUcL0TCb/e24I4mw0YTvSiSmDtMNseAEiIImRCI3HINa8DaWJRzYeROpt9B/iFpK1MECjDjuxyjGbxcZ+GiGDtzEgm5YMLf91MSCHwVIAgG7acIwbdhj9x8Tvq9joeWgNWyOh9Le6E3wM6WU6vV6mJ2d3XXipaUlvP/++z9CWPvRRRw0YbUiHPTHX6+7ukjQ6VrwpAmgi5YjkAYF2u5h9DUfsypHJ6kgPAkD/S5st9sccQuIhsqmgFPupY5qFE0HXrGArCUPdAvs7dJF1s6gOS5svf+LF7thopM1DvZzTdqiROw6SPwMbXfyi6jD9Hqeu47HixcvDjzvq1evxuYKx/fMxGGpuzDc4K1NJABA04E89BA1NOioAbuJ+G1IJABA11GnIZwm+r05mkQzfpu35o+k20HgNpAZAVoxE4k+HVrdRiAjaDpQ1yaC5tZeOzqIOm3ACTuA00LnNUsk6MfxFvRMEBERjcdz17qj6pn4ibwBk4iIiI4KkwkiIiKayNEkExsG62p7FoIE2PR66IPY46BNO4dlQTTLXZZTIA4kLNOEaZqwncb2V/cSERHRmiPumdDhtQu0DuM3mz/SoE35goeoCpAUJcqyQCxT+GGHL1ohIiIa44iTiXHDFZdoezZklKFGhbzlQcrhIDT++uBAa8VsHbRphwGFNuomaEgbtnTheiHa5cavRg8+Y7gR2k0P5uC1urawoXW7TCaIiIjG+PGfmai7SAIPLbOFTkNAyxbgtwVaaYokSZE0gCiIN7+jR3ewEAposoF204WeNuDHJprDeYIuFrbOAyBrhujYLWRpB53Yh1YOpqg6CIMMTjtDmiRI2y7yoIF2BRjCgT18IUw3RWMhhR24xzeMNhER0WvuR04mKiQNB0E3RDsS0NEfTKksYwRSDoZcLoCq2PF1zHsbuGbLAFmaDWc4ws9eBp8pY7jOAupGgo63j7fsERER/cT8uC+tqkt0dQ921kScu2gMsgFNRkhi55BfrLO/pyu23sZIm01oYYLmyBEwiYiIaOjH7ZnQbPgLTcQtgbYXIqn6gynpaRvD8bCqrImwlY9OBQajKY0fuGYjA5ZlIE8HAxLVGTrDgYZ2GxwKgFhI0WKPBBER0a6O5XXauowQBw48P0bSWUDcCBBKgUgHalgImsH2UbY3Ddo0fuCajUSjCccLYAsDpmHDtq1+QrLT4DMAgC5i10ISdNHx+CJiIiKinfB12kRE9FbjuWsdX6dNREREryUmE0RERDQRJhNEREQ0ESYTRERENBEmE0RERDQRJhNEREQ0ESYTRERENBEmE0RERDQRJhNEREQ0kX0lE9PT01hdXT2qWIiIiA7V6uoqpqenjzuMt96+xubQdR1VVWFlZeWo4iEiIjo0J06cgK7ru09IE9lXMjE1NYV33333qGIhIiKiNxCfmSAiIqKJMJkgIiKiiTCZICIiookwmSAiIqKJMJkgIiKiiTCZICIioonsP5l4+SW++Jcmov/nX/Hlnl83sYIvP/8M+fK+l0ZERESvuX29ZwIAMPMB/u7vZ/DFPz0AsIIvP/tnfCNDfHwWeLb4KdJz1/F/v/z/cP/LFcxMrWJ59kP8nf0MD756Ckz9BWf/7ld4b1DUV5838eepCziNGkvPgA+v/RYfTH2Dxc9T/HX6JFZfAnO/djGb/h5P5e/w0emv8Hn0R2h//4/4+Ow3+OLTL/Gr332Mc4daJURERLQf+08mdvUS3/77c5z79XV8dBZ4/qwH7exp2LPfQvtoPZHoqzE19xE+/mAaz/7QRPp0Baf/uoinc9dwXcwAT7/AP/3pa/zD/Ayypy+xsvoVVn9xFj98+xzA1/juvTm8f/grQERERPtwBM9MzOBvf/N/Aen/i08//T2Sb+sdptUwM9N/Z/rUNLCyAvS+qzE7O9P/evYsZl7+gNVfzAHffoPvnv6A2Yvz0J5+i2ffPsPMBxfAN64TEREdr30kE8v4avEP+PIlgJWXqFdPYmp6GlMA+mN/reBl7wcAy/iuPg35yd/jd7/7DWbzP+HLfTwrMXtaQ6/3sv9H7xmWZ2YxM/NLXFj+d6TfaLhw7gLO4Wuk30zhlxeYShARER23fdzmOImzF1bx2b98ij9jFdqHv8UFAKt/ew7p4mf44v2/AZY1AMDyl3/EHx+cxAyWsfze3+LiyRl8995LLH7+Z7z3yYc4t0MO8J74COc+/xz/+u1JrC5P4cNf/xLTmMbc2e+Q/nUev5k+iZfvP8cfv/4Vfn1yspUnIiKiyf1MKaV6vR5mZ2ePOxYiIiI6Qi9evDjwvK9evRqbK/A9E0RERDQRJhNEREQ0ESYTRERENBEmE0RERDQRJhNEREQ0ESYTRERENBEmE0RERDQRJhNEREQ0ESYTRERENBEmE0RERDSRIxiC/M22urqKqqqwsrJy3KEQERHt6sSJEzh16hSmpo7vlM5kYouqqqDr+rFuFCIior1aXV1Fr9fD6dOnjy0G3ubYYmVlhYkEERG9MaamprC6unqsMTCZICIiookwmSAiIqKJMJkgIiKiiTCZICIiookwmSAiIqKJMJkgIiKiiTCZICIiookwmSAiIqKJMJkgIiKiiTCZICIiookwmTiwFIFpIyp+pMVlISwRYfviCkTCQpht/TyBbziIKwB5A0I2UaJC7BjwkoMGUSFrJygPJe6DLX+y+Der8wjSsiCCDv5nU8AKMwApAstFu9ppzhSBKdHqjiwU7c7otS1aLizLhh+Xkwe/i24awZM2hBAQwoYtPDTTatcY929DOztG3bSNbF8xlGgKDbppwbIG/2wHYac8ogg3ONR9Yi8Od79Zs3ZcOQSH2ibfDlloQTTL4w5jz5hM/BTYEbI0hDlpOXWGVtQ5nIPHa6CbdlDKFrKWi/9z7VOJVtGBpx+w0DxG1C5Qb/uiQp6ksKMMsW8esPA9qhOEXgd2K0OWZciyHOmCjvZCC/mOMb6pKqTNJtJRyd2OdLitAkXR/5dFBjphhPQIInwrHdZxBXgL2+RPD5OJQ1a1XZh+0t8p6gS+ocGJB0e5IoIQEQpUyJoepJBwHAkhA8RFjeEVhL92BZEjsm008s3LqLMmXNuGdFx4QQv5bnvgyCuhGkXLge22UNT9K1lXSkjHgRSjrtC6aIcNJEWChhshrYFu0oAjxA7zDBdVoBW4cKSAZTuIhpeQZRuBM5xfwI1S9L8ZVz/j49+kStFwBYR0IKWA9NvbrwKzJoJWgW6yALeR4MXaFxuutKsUDceGLR24XgORb0Ns6IrK4wCuI2FbNtxWjrpK0AjbKNIIXtjBxnNbEQeIshpZ5CFo/0+0XRNuGMARHlrFDnWRN2ALH1EYwPckbBEibjcR+D5cYcNp5tsPwHWFugY2fqE7LWRpA/bWGLMGbOkjdCVkmKBGiU7oQEgJRwoIJ0QybL6xDykkpJQQwkFj2NOBGlnkr9WF1xrEVOeIfQkhHThSQHqtQe9BB56xofen24I0A6QAyqaE7YXwpYTf7m5q624QIZDbe+GK2MdCWiAOPDSzndrVzuqqhmbag5Njvb6+joQQLqLB+m6Ncbg8IcVgukGFlR2EzmCfkhJulGJbvrPjdg/62913IW25Vt911oQnBaQjIYVYr+89qZC3PEg53Lf8tX1rdLklWtKE11lfQtmUMIMU9dpxpe6350aEwPfhOQLCiwcXHSU6gYQtJBzXR9RwYTrx5u2xbb8Zt/8PlhNGCHwPjrDhNtuIG8N9I0BnUMHjjk1bt924bbl5e+Ro2BLDToKyKaCZ4SDprNHxNtdPf53GHYNS+KaDsBnC9z24QsAd7sPdBA1pw5YuXC9Eu9zzRn09KKXU8+fPFfU9e/Zsj1M+UNfPz6tbj7d8vHRHXZ6/oR4qpdTDG+rS5cvq0tX7alkptXTnkpq/+UgtP7iu5uZvqkfL/Vl6966o85fuqCeqp+5ePqOuLQ4Le6Ruzc+rm4/6Zc1dvKUeqyfq9sXz6ur9Xn+SJ3fUpVNz6sbDrfEtqmtnLqu7vY3z9su/urisnty9qi5evtOPYXlRXZu7ou4uDdfhrrp8/qq619tS5JM76tL56+qBUkr17qur5y+p2082fHdmxDwPb6i5dy6q24N66t2/qs5fvK0eqyV15/J5deXeYKHLj9TN+fPq+oPlXetnW/xbLD+6p27ff6z6X/Xr69qD7dM9uX1RzQ0qbv3/1+vt4c05NXfjYb+c3qK6dv4ddfH2E6XUA3X9zBl1ZVhhj2+pi4N6Wb53RZ0abO/NhrErpdSyunfllDp/bVH1q2t8XahHN9X8mSuDeu3157v+oF/+k9try91SA+rx3atq/swZNXfpig4tgV4AACAASURBVLp+84669/DJWkybYnx0U82furS2fVTvobp7Z1E9GW6+m3Nqvt8A1Y259e2oniyqO/cfq2W1qK6dOqUuD+ti6a66fOayuruk1ONb82pubR2X1YPrw7Luq6tr66SUWlpvV0/uXFKn5m+qh8vr227Y1pcf3lTz74xq64/UzfnhvrhDXW7yRN2++I46dX5ezc/Pq/m5M+rUmUvq1sO1oNSDO3fVg2Exi9cGbXBrjEvq7uUNMT66ra5evaMeqyV198qcurY4LO+xun1xEMfa/rjLdj91eW2f7N29os4MttmTxdvq7jDO3j11ZWNdjrSh7T28oeYv3VZrm3vxmpobrteYcpfuXlbnr94fbMfH6tbFwTZYW49lde/KO2ruxqBdqofqxty8uvVoUG8Xbw2Wt6TuXTmj3rl8V20Nd2ObHL//9/eb+ZuP1tru3DuX1J0nSim1rBavnVGX7yzteGzavO22b8tx2+PB9Tl15W6vv72vXFZXLl8atLcH6vrc9voffwzqHzvWj9/r+/Cm483yI3Vzfni82Zu9nru+//77A//bKVdgz8RhMxw4eo6sAIo0hxk0YHcTZHWFNKkgXRtlnqMWDmytP4suHZhFusd7qAWywoQUg354U8Ax9xNgjW7bhxNpWOgE/RjyBFk3R8vrX3VKr4Wu1kVZ7hRGilwXkMNlmwKO0V/vbSwJafX/VxcSZpGhqHOkuQlHGv0vNBuOAPKs3KV+RsS/hWYYQKcB13HhuiHaZRd1td8O1ApF3oUtbWgAoDvwh7ECgGatx24Y0OtqT1e/G9mOQH8rjq8LAIApYOsAoMPQdVjCGsSkw6jrEVelGiy/jbws0FnwYes52oGA5YzpxTJsiMH2gW7AqGIEjgPXdbGQVKiqCoANz9fQ8hz4jRbapQXfHcSh2XAdY60saZTIywpZWsJy5WAdNQin3/Z3qyfNlhBav16ywoIzaOua8OBYO866e11uosNt5cjzHHnRRTf1kfkumkX/O0PP0fL79eBFGapqfRtvjDHN1/dHzQ7RbgewkCNNu8gW3P4+JQO0aw3dcmPfxG7b3YY9+Eo3dKCqUAPQdQ1Z5MFxXbh+E3ldYa/Nu8wylGWMQMpBb0kBVAXKHco1XB921kZSAcg7aNc+ArG1ZA2WEP32AAOmXqNbA2VeAELAGnzuesNpdohxl+Pjevs3YZgWLLO/fF3XUdX1rsem9W239e/x20O4AkWaoa4zJJVE6OlI027/2Gm6kFtui+54DNKs9eO3bsCoK1RbjzeaDUcYeJNMHXcAbx8TjlMjzDJoqQ7pCxjmApI8RbcU8G0A2x6WHG/bgbcedTd+P2qUXQOukaAZF3ACC4AGGC6aaRPbjhH7MD6O7Q8gaOOOKLsdaUbGv/n7pOEhNhJksQ0NFWLHxP6fPRtxdN4am7b+P7uGPYI2thLGLG/bZ+Pmr1FVgK7rsKQLS7oIQg+hHSDOA0TbyjTWSqriEH7iIEsCmBpQRAJO2V+WaKTIgwJZkqITOViII2TxftZ8b2e8tXrp3ys5nPvoewhTszx4Vog4qxBqMfxGF2GWwDPQv1UYjIhx5wIRtFOE5pbPd9v/14oe9eBOhgW/CTQzJI4O1Ak8c9sW3bl4GSGJnS1VkiEcV67uwhcNxEkXZt6G7ncwKqcbWyWH/iCEtun/99ICNx6btm67veyHmnRhNxJkaY3S9iGkhrqRIqsz6G6Azaf9gxyD3vynRdgzcQQsKVF1InRqCWloEFJHFsUobBdCQz+DzxJkg/bTTROUtgMbGnQdqLqDpt/NkJdbCtcsCKtEOnzuoEiR7ushaB0ibKLZjqA3fTSyGrAlRJ2iPQyoShCFI54z2LjPWRJ2lSEdxlemyCp7rQdikzLB8GKrylKUloAFG45dIhneX65zJJkGYZs71M+Y+DepUVU1TNuEBqAu2mjn9agcbBcGLEtHng7uZ1YJ2nt9wm/fCxtfFwdRp2H//nG54bOyQFEbsIZHvTExVlUFzTRhaACqDJ3O4KG4OkMraqPULEgvQLPpQ88GV4t1gXT4/EQ3R9q1ICwdQlooOuvPwaSdApYU0KFD17oYNvMqS7c/9wIAmgXbKpENulPqvI1kh7bev/CboC67CZK8v91RdVHp5qC+ukjiFN16VLpsQ9olOmsPljThygj58PO1XyiUaDcaa/f0h/PuP9YKVTWIEUDZifv7ySDx6hYFujs0P1MI6Gkb6VrdNxG2ctQ7lqvBCRwU7QitxIDv7RTfluVZJuo8HxxLuuh0svGnzUGb3Hn/34P9HJs22WF7aBKOmaPZymE5NjRTQJRtRAngrnWBrK3IAY5BBizLQJ5ma/tbZ/9PFB8r9kwcBeHAzptIvYX+w1xSog4WYMRx/3wsFhD7ARpSQtOBCjaaLR8GABn4aIYO3MSCblgwt+0AFvwoQBII2E0ThmnD3vNetoHhotVKIf0AIo0RxTmCUEJqGupag2i0tl99GAKOESGQARbaLTRbGQJPoKPrQK1BtFpwR11MWSbKyINbdlF2dYStACY0+K0IWeBCxjpQ1TD8GC2pARhXPxsO5lvid9cuDXQ4YYBWICFjE4bto7Eg4Uc+YrsNf9cDyjrRaEK6PoQ0YZoSwjZ3vRWlCQei0YD0KsTtYOQV3HbG+LrId597WwyyiU4jRMO10BheuekWvFaMwASADTE2Ns9reiGcdggpLRiGQLDQgBk0ECT/Cg8RfNGEpg/aSNSCQIGmZsEoQ7huF92yghnFcHVAC1toBCEc2YSOCrXZQCu0AJgIQgO+5yCzDOi2AUsbdaK2EEQe3EBAmCZMS0CMbOsWHAn4ngSaHURj29VWFTqBPbiFVKOGAdFoIxIA4KNhefBEDssw4IQL8LIGwoaD/2ZuLGOw7XwHdksDah1OFMOGAbvVQh74EB0NWl1DkwuIDWD951AH2e4SYaMJ35VITB2mG2LBCRAFTYjERssJoHcKROOOCWIBcSNAKAUiHahhIWgG0GDtUG4IW/pwAonYitHcR++75i4gantw7Q4s04K0BLRi+7bYvN+M2//3mKTr7thjU7njjDtsD2hwHCBoGIhjDYANaWVo5j4Wtu3kOx2Dgu2LHRCNJhwvgC0MmIYN27YOcGFyfH6mlFK9Xg+zs7PHHctrYWlpCe+///5xh0GvgbpI0Ola8KQJoIuWI5AGBdruQW5q0EGUaRuF4cKxNKDqwLNbcLIE/pt1O/lHUzQDpG5rkDS+BqocnaSC8CQM9G+bud0miuYkN1RplL2eu168eLHrNOO8evVqbK7AngmiMTQdyEMPUUODjhqwm4iZSPyodK2Lli+woOlADVgLrf4zDDRChcr04JrHHccGuo46DeE0AV2rUWsSzZiJxNuIPRNbsGeCiIjeNMfdM8EHMImIiGgiTCaIiIhoIkwmXjeHOXjOIQ4oVK4NhLWDxIOum+sDJ1kCjfQQFn4gNfKWB2FZsC0LlgzWX09bpYhcAdsWsG2JYO2L8fPUeQu+tGHZNmzLhtNItr8amYjoJ4oPYL5u7AhZetxBHExV1dDdForYOe5QgHwBflNDlBVw9BpF04FsdOC2HaSNAB3RRtaxoXU78KSPlkgRVOPmsdGO2tAaKQpHB+oUgR2g6e3wEzwiop8Q9kwcWH8wGiEEpBCQftx/8c7YwY1S+KZE2AwR+C6ELdFotxEF/YFxbC/u9yBs6E3oD0LTQCPw4Xv9AW/6L72pUcQehC3guC78ZgjH8Ea/YW3MIFvjBwsas14b1zxrQNr+toFo6qqCpu823OZeB+sZM9BS1YFnOojXugWqfnlbxwy3G0iyFhwdADSYpjF4HXGGTmLA8wavrTUc+KLsvyBm7Dwm/HaKVv8L1N0SXZiwDjqyKBHR20YpDvS10Z4H+hoMcvNIKaVUT92/cVndWOztMLjRA3X9zHl1bXEw9MvtS+qd+ZuD+fuDKN16rDYMntMfhOadtUFyltXitfPq0p2lwSA864MAPb59SZ06dU0tqi3GDrK1w2BBY9ZrOBBW79FtdfniVXXvyfYqeXzrojp/8Yq6cumimp+bV5ev31WPt414tcfBesYOtLSsHt6YUxeHK7V0V12Zu6YWRwz4tb7Ih+rmxcGgS8v31JVTV9S9DdM/ujk/2EZj5hlauquuzp1Rp07Nq2ujKoCI6JhwoK83VJllqG2x9opnt5mg6WDnwY00C2Iweo1h6NCs9QFwTKNae73wRoY9nEaDrmuoqwooMhSmxHAcGMv1Rg541f9y1CBb4wf1Gb1egyvyogXPjWG3Yox6o64hQyw0GmilGfK8Da9agNsY/ZzFroP1jB1oSYMIAiCOkQPoJm2UbgBn3Pp3E4QyQBl01noWdjVuHsNHu+iimzeABXfEq7yJiH6amEwcuc0nnLFjRU1W7A5GDbI1GCwoaCPpdNBpL2waRW+cqqxhSw2dqDPy4UNdePBd0R/0RrPgeaI/VsDI0nYZrKdswW904cYJOp0OOpGzPpiO5SEwE7TSAp12DX/7EIYAgLqI4ToRtIUEbX84wqXZT9zWgqrR7VYw+tnM6HnQRdZJUQ4H/TM9+LJCmvERTCIigMnEgZlCQMs6g8FoKiSBhN+udxjc6DAXbsPsphiey8qkPXpo6f6XIwbZGj+oz+j16i/IcEJEcRuNagFec+tvRGqkDQG3uf7sRdrJYVgWDvTCwh0HWjLgBQLZQoBY80f2kqBKEHotWK0EkbMxAhuu7KLdHsTZ7SDOLHiOvsM8XaQLPsK1n3Zk6GSAZR1ozYiI3jr8NcdBiQXEvo9QCAA1YIdouQYsjBvc6BCvYg0PC40OAinQtkyY0oY9cqAkjBlkCzsM6jN6vdAaFmjCjyOk0kMoMjTXujQ0yHABHd+HHff7HXQ7RDs64Ktz7fEDLXUiCd3xIUMPVcMbmaxUnSbiooQZiPUHUw0fcRJCRjE8P4Cw+7dTZBTDN4AqHj9PGC8gCB1YUX99LTdGa+y9FSKi11ue730UQXsPo0nyddpbvBmv0+4ia2fQHBe2DtRpALthopM19jhK5ZuvzkLI0EAra+x9aGIiorfUfl+nfZBkggN9vXV0aHUbgYyg6UBdmwiaex3u+k1XIPZ8RIWJRjtiIkFE9BpgMvFG0mD7bWT+ccdxHCz47Qz+cYdBRERr+AAmERERTYTJBBEREU2EyQQRERFNhMkEERERTYTJBBEREU2EyQQRERFNhMkEERERTYTJxBbT09NYXV097jCIiIj2ZHV1FdPT08caA19atYWu66iqCisrK8cdChER0a5OnDgBXT/U4ST3jcnEFlNTU3j33XePOwwiIqI3Bm9zEBER0USYTBAREdFEmEwQERHRRJhMEBER0USYTBAREdFEmEwQEREdyF/xl8//O5r/JcIX3+x9ruW/fIbPvzq6qI4DfxpKRER0IO/hV7/9zzj52X/FV1jBl5/9M76RIT4+Czxb/BTpuev4jzN/xmeLTzE9AyyvnMN/+M1Z5H/+Ct/O/AFfnv4YH/y8X9JXnzfx56kLOI0aS8+AD6/9Fh9MfYPFz1P8dfokVl8Cc792MZv+Hk/l7/DR6a/wefRHaH//j/j47Df44tMv8avffYxzx1QTTCaIiIiOyHdffonVDz7BJx/+HKvPn2H55FnYF06jnltPJPpqTM19hI8/mMazPzSRPl3B6b8u4uncNVwXM8DTL/BPf/oa/zA/g+zpS6ysfoXVX5zFD98+B/A1vntvDu8f0zoCvM1BRER0ZM7Kv8P88wS///RTfJY+w/jBGjTMzPRfiT01DaysAL3vaszOzvS/nj2LmZc/YPUXc8C33+C7pz9g9uI8tKff4tm3zzDzwQUc5wu1mUwQERHt0/P8D3jw1TKAVSwvA1MnpzEFoD+00wpe9n4AALzsreLCR5/g+u+uQ+LP+B/f7n2ohtnTGnq9l/0/es+wPDOLmZlf4sLyvyP9RsOFcxdwDl8j/WYKv7zAsTmIiIjeKD8/dw5Ln/0LPv3TKvBziU/OAif/9hzSxc/wxft/Ayxr/Ql7f8H9Pz7AyRlgefkCPjw3jdnlGTz902f4y+wn+NV745fxnvgI5z7/HP/67UmsLk/hw1//EtOYxtzZ75D+dR6/mT6Jl+8/xx+//hV+ffLHWe9xfqaUUr1eD7Ozs8cbCRERER2pFy9eAADyPN/zPLZtAwBevXo1NlfgbQ4iIiKaCJMJIiIimgiTCSIiIpoIkwkiIiKaCJMJIiIimgiTCSIiIpoIkwkiIiKaCJMJIiIimgiTCSIiIpoIkwkiIiKayL7G5lhdXUVVVVhZ2ftAJURvmhMnTuDUqVOYmuLQNUREe7Gvo2VVVdB1nQdZequtrq6i1+vh9OnTxx0KEdEbYV+3OVZWVphI0FtvamoKq/1xhImIaA/4zAQRERFNhMkEERERTYTJBBEREU2EyQQRERFNhMkEERERTYTJBBEREU2EyQQRERFNhMkEERERTYTJBBEREU2EyQQRERFN5AiSiQJNYcDr1Bs+akJoNhr5+kd16sO0IxR5A7YdId9e0A4qZO0E5YjP256FIDlg6EcmgW84iKsJiqhiOIaPA69anaPdKUZ+VbRcWJYNPy4PGtyG7ZEiMCVa3e1TlS0HopHtvdgiQTuvR361p7LqAnEgYZkmTNOE7TSQjIiLiIgmcwTJhAXpGsiSDMPTQDdNUJk1srRcmyrvZNAcB9ZBFlFnaEWdEcmEDq9doOUcpNC3XB4jahfYfmqukCcp7ChD7JsHK3vs9tjMDBJkkdhzsWUSIc5GZ2B7KStf8BBVAZKiRFkWiGUKP+xgkpyOiIi2O5LbHLZ0oKWdQW9DhTTpwgld1EmC/oVhjjSt4Tj2YI4C7dCFIwUsSyJK+4f7OmvCkwLSkZBCwGvlqNFFO2wgKRI03AjpprNjhdgx4CUAqhSRKyCkhJQC0o9RbDmTFpENK1xPepA3YNsN5KiQNT1IIeE4EkIGiIt6rXx/rXsgR2QPelyyBmzpI3QlZJiMOGnXyCIfriNhW/ZgXYAiErDC9SvsNDAhWyWAGkXsQdgCjuvBj9L1MqsUDceGLR24XgORb0NE/V6HbhrBlRLScSCFg7BTAlWCRthGkUbwwg42XpwXcYAoq5FFHoJ2CZRtBI4YzC/gRmn/5Dt2/UZvjzwO1tbVHaxr2Vxf1yL2IYWElBJCOGikW07xWRN+M0Pe8uHHBcqmhO2F8KWE3+5uKCuBZ0gEUQDf9+CstRPAcCO0mx5MDQA02MKG1u0ymSAiOmxKKfX8+XO1F8+ePdvTdEo9UNfPz6tbj5RSy/fV1blrarH3QF2fu6Lu9ZRST26rS+evqcVlpdSjm2r+1CV1+/GyUkqppbuX1amr99WyUurJ4m1192GvX2TvnrpyZjj/HXXp/HX1YNtye+ru5TPq6qJSvbuX1Zlri2p58PnDe3fUg6Utky/dVZeHcSilHt6YV5duP1HLD66rufmb6tHycNFX1PlLd9STQfnXFocFPFK35ufVzUcb12NUfSyqa6dOqct3l9aXe+ayuruk1ONbF9XcjYfrNXf9vLp058lgffvTKKXU0r0r6sypa2pRKfXw5pyau/Gwv269RXXt/Dvq4u0nSi0vqmtzV9bm6a/fVXWvp9TyvStr9TquzpRaUncun1dX7g0KWH6kbs6fV9cfLO+8fpu2xwN1/cwZdWUYxONb6uLguye3h+v6UN2Yu7he1pNFdef+422x9etiabCIS+rU/E31cDDRelmL6tqpM+rq/Y3tZL3e1iw9UDcvza2v2y723taJiN4c33//vfr+++/Vv/3bv+3533CenXKFI3oAU8CVFZK0RJ0lyG0HQhdwRYEkrdFNExTChdQGk5sC0ur/YRgGtKpCDUDXNWSRB8d14fpN5HWFavQt9G106UPmIaQXIoozaNKHNLZMZLgIZYZWpwLqFO3UhO+ZKPMctXBga8OyHJhFitFPHGwsz4YYd99Gs+E6xtp00iiRlzuUVWQoDAkxnEU66FdRhSLvwpY2NADQHfjDFcsTZN0cLa9/xS+9FrpaF+VOy9kkR5qbcIblaTYcAeRZufv6bVpXa70Mw4BeV1t6A2x4voaW58BvtNAuLfiuBW1EUZuKtSXEqIk0C1Lo/f/XbYitdVvGcJ0F1I0EHW9rIyAiokkdUTKhQboCZZIiTTKYjoQODcKxkCUp0qSAcOWGk4c+oowMC34TCNpIOh102gujTyTjmB7aeY52w4HRbSMQEs1tT3nqcAIHZdxGkbWR2QH2e67ZdJLUjF1PiPs16nbJNtqG/zFcNNMUaZoiTTPkRYqGvX2WfRmWv5/12xDT9nk0iEaKPG3Ct4EscmD7uz/LoGl7Wfr2+kmbTWhhG03H3MP8RES0X0f201BNurCLGFGqr12l6tKBmUVoZRZcOSqB2KhCVRmwrP50ZSdGVqN/rtjDOaXsRGilNUy7f/XbECXSYsTpSoTw6xjBQg4RONAAWEJAy5L+8tB/gLS0HdjQoOtA1R2U08127l3YqC6QDp8L6OZIuxaE1e99qQc9MUCBLB880WDaMLsphn92kw76P2zo10me9p8LQJWgnQ4msiVEnaI9DLxKEIXt9R6VerduHRuOXSIZllfnSDINwjZ3nm2/GVSdoRW1UWoWpBeg2fShZ+N6fvbQFVUX6zFvqNshsZCixR4JIqIjM3VkJesSruXjP5UhmubgM0PC0UI0zCbiXY/tEmGjCd+VSEwdphtiwQkQBU2IRMIxIgQywEK7NbI3wbRM5IEDAQ0aasBoIHJGJTAmfF/HQstBa/jjALGA2A/QkBKaDlSw0Wz5MADIwEczdOAmFnTDgrnHn6PUmgWjDOG6XXTLCmYUw9UBzQ3hxA04bgxTN2GYVv/8aXiIFjrwpY3YMGA4FoTWP2GKRhPS9SGkCdOUELbZPxFrDqI4RxBKSE1DXWsQjVb/FzPCgWg0IL0KcTsY8ysaA34rQha4kLEOVDUMP0ZLatjxt7uG2LA9vN0rQ7NgIYIvmtD0QZxRC1t/m2E5Et3QhVO10Nop99Qs6HkDbntz3fZ1EbsWkqCLjnfY/UZERAQAP1NKqV6vh9nZ2V0nXlpawvvvv/8jhPVjKhG7DhI/Q9vdrbfk9VAXCTpdC540AXTRcgTSoEDb/SmeLBP4RhOySOAf4uZ7O9s6Ef3UvXjxAgCQ53t/u5Nt9++Vv3r1amyucHQ9E2+AOm3ACTuA00LnDUkkAEDTgTz0EDU06KgBu4n4J5lIEBHR64A9E0QjsK0T0dvoqHomODYHERERTYTJBBEREU2EyQQRERFNhMkEERERTYTJBBEREU2EyQQRERFNhMkEERERTYTJBBEREU2EyQQRERFNhMkEERERTYTJBBEREU2EyQQRERFNZF/JxPT0NFZXV48qFqLXwurqKqanp487DCKiN8a+hiDXdR1VVWFlZeWo4iE6didOnICuvzlD0hMRHbd9JRNTU1N49913jyoWIiIiegPxmQkiIiKaCJMJIiIimgiTCSIiIpoIkwkiIiKaCJMJIiIimgiTCSIiIvrf7N1PiNx2uuj970B3IsNpWj2MY8ULW3ggLciiBROwFgHrwr1YWSTWDNxxkY3FHTjWImBdOODanYa7SPEy4LqQg+ssZlxzF3bhC3ExWXTBXLAGAtYLA9Z5wVgO2BZe2CIBtxIHStAdfu+iqtvd7ap2t6s77eQ+HzBJdZV++v2T6tGf0jOR3QcTz+7w+Z+aNP71L9zZ8eMmVrhz/Sppf9drE0IIIcRrblfPmQBg5l1+94cZPv/jTWCFO1f/jftuxEdH4fHSZ8THzvOfn/1vbtxZYWZqlf7c+/zOfszNe49g6h8c/d17vDUs6t71Jl9OneAwFU8ew/vnfs+7U/dZuh7z9fQhVp/B/Ic+c/GfeeR+wgeH73G98QXaH/6Fj47e5/PP7vDeJx9xbE+7RAghhBC7sftg4qWe8eA/nnLsw/N8cBSePl5GO3oYe+4B2gfPA4mBiqn5D/jo3Wke/7VJ/GiFw18v8Wj+HOedGXj0OX/821f888IMyaNnrKzeY/XXR/n+wVPgK755a563974BQgghhNiFfbhnYobf/PY/Qfy/+OyzP9N7UG3zWY2ZmUEOhKlpWFmB5W8q5uZmBm/PHWXm2fes/noeHtznm0ffM3dyAe3RAx4/eMzMuyeQDApCCCHEwdpFMNHn3tJfufMMWHlGtXqIqelppoBB7q8Vni1/D/T5pjqM+/Ef+OST3zKX/o07u7hXYu6wxvLys8GL5cf0Z+aYmXmHE/3/IL6vceLYCY7xFfH9Kd45IaGEEEIIcdB2cZnjEEdPrHL1T5/xJato7/+eE8Dqb44RL13l87f/CfoaAP07X/DFzUPM0Kf/1m84eWiGb956xtL1L3nr4/c5tk0M8JbzAceuX+cvDw6x2p/i/Q/fYZpp5o9+Q/z1Ar+dPsSzt5/yxVfv8eGhyRovhBBCiMn9QimllpeXmZubO+i6CCGEEGIffffddwCkabrjZWzbBuCHH34YGyvIcyaEEEIIMREJJoQQQggxEQkmhBBCCDERCSaEEEIIMREJJoQQQggxEQkmhBBCCDERCSaEEEIIMREJJoQQQggxEQkmhBBCCDERCSaEEEIIMZF9SEEuhBBC7L3V1VXKsmRlZeWgq/JaeeONN5idnWVq6uC+0iWYEEII8ZNQliW6rh/ol+braHV1leXlZQ4fPnxgdZDLHEIIIX4SVlZWJJAYYWpqitXV1QOtgwQTQgghhJiIBBNCCCGEmIgEE0IIIYSYiAQTQgghhJiIBBNCCCGEmIgEE0IIIYSYiAQTQgghhJiIBBNCCCGEmIgEE0IIIYSYiAQTQgghhJiIBBNCCCF+Xso2nq5jWhaWZWFZNl4zHb4X0/AdbNvBtl3CTj5cqCLrhLi2jW3bOH6DpDyoBvz0yEPOhRBC/LyUJZUZ0k0b2JveqOjVQ7pOh6RroxVdam5Ay4kJaREus02/qwAAIABJREFUlkRxim9UpA2XWt0hbbloB9SMnxI5MyGEEOLnpSwoNWNEEJDQ7RnUavbgPcMjcHK6cUER98idAM8A0LBrNYy4S7q1iCqjHXq4rofnOri11vAMRpea4dNZO5tRtHDNkBjImy52LSJwXYJOAVVKO3BxXiijoBt5OK6L6zo4XkQ335ce2nNyZkIIIcTPS1VRll3qXoe8KNFMn3qzgW8UFKWOa6x9UMMwdIqsoKBANzYEIIaBXsTkFTgbopKsFdDUmiSxg0ZFEjmEDYe0sU19NMgzjVYS42iQNTwaNEhiD52KOLQHZYQxjZ5FM2viAEXcpleUYOr70Ut7SoIJIYQQPy+Gz2LdxfZ9bL0kbdbwak2s2Hj5stsqSeOUIq/jucM/VVBZOS+7vUKz3WFQUpLEOVboMggRNBzPJm+llKZHYPoEboDne/ieT2C9/oEESDAhhBDi58Z0CYK1Fzp2zcdajMmIMI2SogBMgIqiKDFcEwODMi6oYHB2oigoDBPzhWslGnbUpRds/ZLvblslTdvuzotq+F+LsJdRyxPiXpdmrU4ziukG5ksafPDkngkhhBA/K2U3xKm1yYev816P3HKwNBvfLeh00sHXd9GlnVjUPB3D9TGTNr0CoCJtdSi92pYbOHVs1yLtdikYfC5rRzTiEtDRtYJieIqiTGKyihF0HNci68bDsxklcTfDch30rEOjnaKZDn7YoB1ZJHG2192zL+TMhBBCiJ8V3YuIeiG+1RycZtAdGu0QCw2r0aYWhDh2Bei4jTaBARDSXkwJPJtFQLMC2i3nhZs4rbBNIwvxnDa6VlEZNZotHXAII4Og5pFYBrptYGmjL35YUYt6GOG5TXRKKrNOK7KACn0xwmmBrkGFSaPl7ls/7aVfKKXU8vIyc3NzB10XIYQQYqwnT57w9ttvH3Q1Xks77ZvvvvsOgDR94XcqY9n24PzMDz/8MDZWkMscQgghhJiIBBNCCCGEmIgEE0IIIYSYiAQTQgghhJiIBBNCCCGEmIgEE0IIIYSYiAQTQgghhJiIBBNCCCGEmIgEE0IIIYSYiAQTQgghhJiIBBNCCCGEmIgEE0IIIYSYiAQTQgghhJiIBBNCCCGEmIgEE0IIIX4SpqenWV1dPehqvHZWV1eZnp4+0DpMHejahRBCiB3SdZ2yLFlZWTnoqrxW3njjDXRdP9A6SDAhhBDiJ2Fqaopf/epXB10NMYJc5hBCCCHERCSYEEIIIcREJJgQQgghxEQkmBBCCCHERCSYEEIIIcREJJgQQgghXsnX/OP6v9P8Hw0+v7/zpfr/uMr1e/tXq4MgPw0VQgghXslbvPf7/8ahq/+Te6xw5+q/cd+N+OgoPF76jPjYef7rzJdcXXrE9Az0V47xX357lPTLezyY+St3Dn/Eu78clHTvepMvp05wmIonj+H9c7/n3an7LF2P+Xr6EKvPYP5Dn7n4zzxyP+GDw/e43vgC7Q//wkdH7/P5Z3d475OPOHZAPSHBhBBCCLFPvrlzh9V3P+bj93/J6tPH9A8dxT5xmGr+eSAxUDE1/wEfvTvN4782iR+tcPjrJR7Nn+O8MwOPPuePf/uKf16YIXn0jJXVe6z++ijfP3gKfMU3b83z9gG1EeQyhxBCCLFvjrq/Y+Fpjz9/9hlX48eMfxi4xszM4JHYU9OwsgLL31TMzc0M3p47ysyz71n99Tw8uM83j75n7uQC2qMHPH7wmJl3T3CQD9SWYEIIIYTYpafpX7l5rw+s0u/D1KFppoBB6pAVni1/D8Cz5VVOfPAx5z85j8uX/J8HO38U+NxhjeXlZ4MXy4/pz8wxM/MOJ/r/QXxf48SxExzjK+L7U7xzQnJzCCGEED8pvzx2jCdX/8Rnf1uFX7p8fBQO/eYY8dJVPn/7n6CvDT64/A9ufHGTQzPQ75/g/WPTzPVnePS3q/xj7mPee2v8Ot5yPuDY9ev85cEhVvtTvP/hO0wzzfzRb4i/XuC304d49vZTvvjqPT489OO0e5xfKKXU8vIyc3NzB1sTIYQQQuyr7777DoA0TXe8jG3bAPzwww9jYwW5zCGEEEKIiUgwIYQQQoiJSDAhhBBCiIlIMCGEEEKIiUgwIYQQQoiJSDAhhBBCiIlIMCGEEEKIiUgwIYQQQoiJSDAhhBBCiIlIMCGEEEKIiewqN8fq6iplWbKysvNEJUIIIcRBeeONN5idnWVqSlJR7add9W5Zlui6LoMihBDiJ2F1dZXl5WUOHz580FX5WdvVZY6VlRUJJIQQQvxkTE1NsTrICy72kdwzIYQQQoiJSDAhhBBCiIlIMCGEEEKIiUgwIYQQQoiJSDAhhBBCiIlIMCGEEEKIiUgwIYQQQoiJSDAhhBBCiIlIMCGEEEKIiUgwIYQQQoiJ7E8wUXbwNB3DsrAsC8sysWyfRlwAkDcdrCjZl1X/qMqYyDGx3Drx/1vHcZvke72OKia0LMK43PTnrOlg+h2KvV7fpKqUTjfb99U8n0M9AsOjXULe8nDqezSvNo5ttTdFjpV3iXwH23FwHAfbdglaKWurLeIOSbltCTtU0vYMar29KGsCrzJHegG6Zgz3JxaWaeHUWnvUL9uueH1+vRZ6NQyvzf5XpyTp9Ib7s5jQ8um8Ln0gXkv7d2ZCc2gmGVmWkWU5SdOkU4vo/pwmZNalV4V04wbuyQZJHGHu9To0l0bLJQ43fKllTcKmwWKrhrHX65tU2qbRydjv799RzLBH0nD2prCNY6vtTZGjFbTDkMzvkCYJSZKQ9kKqVp12DlASN5vEr13UOIFXnCOaXaeXDfcpeY9aUafe/Tl1zGukSmg1usNgwqWVdanpB1sl8Xr70bJ26a6PrdXJCrA3vpF3icImKRpUFbq3SKvuYpDTjUIaaYVORak5LLabeAZk7YCwlTNYRMNtdGi4OkXcIFzsUWoalGDXWzR9c0tNSpJmSNTJ0QCskFYrwCKlHUa0cg2dksoIaLRCHD0mMBvokUWZFpRZDrUWnaBgsd6jyCH0ofHfC4KLBt2kjtZ08RMbu0ghbON1XDpmiFGm5FmGVqvjFzFxnpHmFovdFr5R0fENWl5KHG6us+42aLkOUT0haRq0oxb6YkxgQNGrEyzGVLq+qc1Zw8EvmmTNwZdrHJos2vELZVdJk6DeodA0KCuMoEU7tNGSOna9wNVzUrNOr+mQtUKiTsHgoyZhq0VgbfimLXvUow5ZnlCLoFVL8DaWsaixGNSJSx2NEsyIVrtGVbepVa31upLUsULopA2MHY3pcCo1Hby8Sda06fgWHSvEKDLKIiPXQzqdAJOcbhiwmIJhmLhWSSv1SXsB+sZ2bBrbkvBfN7SjYdAZO1cW0SObKs1J0xK3HqLHPdI8IxvWwdo8AlQVbPpmNWp00howmOuLcQZhDa0RkPpNtADS1KXZi9Db4WBb0KEqdfxGm7qrU6UtgqhNMdyujFqTdjRYc9mtU2umFEVOZS/Sadcwh9tFvVOg6VBWFmGrSWBVtD2LOCpoewApDTugbKc0qq1zxKK3k77dOEeaLvnI9b4kgqsKisrAMvVdz+N05Paf0Y4i2hlom8Z04zp3uY+IbLQypj5izlsjmjTa2nzVMA0Dy9hwNDZu35lEWFGJ70BRlOR5hdfsUHf0HfbTP/OH6v+hl5VkfoNGx6ZtNnGzHm7bxU8cPL2gKHOywqLeGey/snZA0MzRTQPDNSkaBVHRwdvUnnHzjG22WfGToJRST58+VTvx+PHjHX1OLV9Tp2dPq2vLz//0ZOm8mj9+Xt3sK/Xw0kk1f+GWUuqJunJmXp1bWvvgXXXp5HF1/mZfqeVb6srlJfVw+M6ti/Nq4eJtpdQtdWH+pLp0d/jGwyV1+cZd1e8vqXPzZ9SVJ2srvKJOHz+7qQ6Dgi6o+ZOfqtuDiqobF06rC0vL6u6nC2r+3JIafLyvbp5fW99Ndf7IEXX2xrCgh5fUyePn1c0NZd3d8v8PL59SswsX1a3+oKxrZ2bVwsXbqq+UUrcvqvk3T6nLDwfvLZ07ok5fHlS6v/xEPemP69MldX5+QZ09f1rNn7ky6JflG+rs8VPq0lonPbysTh0ZtPnup2t9PHDz/HF16vLDF4p9uHRJXbm1vD5uZ46cGfTZ7YtqYfbU836+dUEtnLqk1l4uL51T86cuq60l9q+dUbNnb6y3dWMZ/dvX1KUbdwfvqYfq0snj6txNpdTdT9XJ+QvqZn9tVfPq5KW7Sm0zps/n0JI6d+S0urLpb3117cybav7CzeG6bqkL8wvq09tK9ZfOqeNrY6aeqGtnjqg3T19RW6fJprHd0o7t58pxdW5p2MJLp9SbCxeHc20wbz+9u3VFSi3fuqTOzB9RRxZOq7PnP1WXb9zeMA9uq4sLC8PlBnPxzLX1DlE3L19RN4cv+0vn1PHhmCydO6JOXxm2qn9X3bi8pB6qZXXl9Jvq+Hrd76pPTx5R55b6qn/zvJpfuKhuD9e7fO3MsKxldeX0EXVu6Xl9Pl1YUBdvjxjfHfbtxjkyfr1bLJ1Ts7PH1fzCglpYmFfHZ2fV/Llr6uFwud3M45Hb/6WTauHCreF86atbFxaGY/p8fr3KPmLsnN+hzX3aVzfPHx/26Tb7zlsX1Pzs2j5mrYzBtrvjfnp4WZ1a289t3MYun1JvbqjP0rnj6tTlJ8OyTq9vq3cvnVKzs+fU+rRZa8/Y8R6/ze6FHX93/V/g22+/Vd9++636+9//vuN/a8tsFyvs35mJKqHu2jSGLzXDod5t4mpsuK8gJY4LksLHHX6wqjSMvADXwCibhF4TTdOo8pLSKQGHWqAR1DxSz8fzPALfREtaJEVKVnNpD0qi1DTynE2nQvIkobIbwz/p+M0ePiXtZo4VusMjKA3Hs8lbKSUmaBbu2iGKbmBUyUuvWWq2i7Ph4MpyrMGRkG5imCWWOViPruuU1eCwVNON8ZctdI9Go4Md5NTTYbSexaS6Q90cfsZ08IwmSbbl7M82dF0jadTooKFRkFYa3tpRsmHjDA+h8iQhz2NCtzt8s4JSJ4ftjxw2lKEZBjTr+C3QNCjyArOswK0RGB6dpMJ1Eto9kyC2IB0/pi+/mKFhOc6gzzEw9Yq8gjzNwFk7O2Dg1xy09g46ar0dJUm8/Vxx7OFaDR3NctbXZRol+YiJozsR3SykSBPipEfcqrFYt2n2OtTMrc0ycZ21WaJj6CmLgUdT06DMKEuLEnBqNcrIxU9qeJ6LH3gYlICG7a3VfVDXbpqTaymV02BYdXTXw4xiMmo77JdX69s8Hbfe8IV5pVkRvWTtUmJBHPl4oU7S9nY1j0dt/51WSpHX8dzhMhVUVk7J2kb88nEftY8YO+d5yZmX9f7JwF7rUw3Hc9BasO2+0wJMB2fYgZrtYGYxWQXuDvtpO4btrNdH1zWqsoQsITNd1qam5dewGy/evzR+vAPGbbPip2H/ggnNoRH3Xn6dTbMIOzGRufnPZdsn6HkkvRBTg6zh4OUAGk49Jg0zkl5Mt+Gx2G6QhBoYPs24uYMvmp2YbBZr2tadhbbp/1/lMrxuWRi6NgxERtvdLSkJi0ETmgk9T4eqR81sPH9bMzbX2m3Qa3u7q/t6GRW9eo220SNp22iUtD2Twb2AJn5g0uzElFWH2ApoGEA+fkzzeAerHlfRVxnaLX2xXYHbjfzIpcsSdB3DdqnZLrWwjlezaHQzatELFXnerrxFUC+Ikh41A0girHDwlu41SdKCNImJO3WcRZt2sjgoYcJ7QDbNsa398qPt/A3cwEWr9cjQ6exiHo+mYUddesHWHdZ2d6u+rLHbzflXVG1Y55h9JwnAizteTdvd9r77uk2y8LAK+3p/kthPB/zTUBvXzumu39md06nX6RZQliWaaWJoQJnQ7Q5v2KoSWo0OuWbh1kKazQA9iclsF6eK6STDGV32aEQdtt4zbjoOWtJl8LGSXugSdCoc1yLrxsMdZUnczbBcZ8QmuX+qsqDYzQZpudhlQpwPX+cxSWnjWqwfMQyKy0jSUTeqlZSlgWUNWpl324N+GVEH03HQ4w5rPyopkybRhl8cbG7IqL9WlGWFaZtoQJV16KTV+kcNP8CKOyy2E+zAG/T7Dsd0N0zLpErTYRkF3W6yy32gvrdzpexQs1zqG++wrHKyHEzz+XmqclQly4JSN7EMgIJeO6aoSqAgbjbplQa2WyNqNfCrlMEUqEh6yYZ5AZZtDo4Ikx5rXV3EPXLbw0ZD16EshgNfJKT56Kbsqm+HAz9+vS9TkfUSCtPG3OU8HrX9265F2u0Ofx1VkbUjGpt+QfUq4779nN+kzMlGnLYybYsqTYZ9WtLrrW1z4/edg5c9knxYdBKTWw7WLvpp11GFaWMWMUmxtvoO6YhyX328xevuR7sBczSDoNUiDQOcroZWVWjuIm0DjFqE14lwXQvDcAgX65hhnbD3F2o0CJwmmq5RVRpOo4WjmZjtlDBycbXh3+utF290chZpBwGR4wAV2BEt38CiRT2M8Nzm4OYqs04rsuBH+/FlRTewRt6AOZbu02wlhDWHrq5DpeG0Wvg64Ed47Tqe38bUTQzTGrHTcInqTQLfpWfqmH7EohfSCJs4jS0fdRZp10Mi16GhQ4VF2AxfPAp3PJx6HbdW0q5vqixeFNIKXdy2iWEH1BddgkZA2+4QWB6BHVFLfHrt4e5Z82iMGdN8Zz30As1fpNGp4dtdLNPCtRy0bHd7Tivaw7mi12h3C6K6h1Wu7cN17KBDy9cBC8+FoOZC8182L2sH1K0aNSfFMgy8aJFaUieqe/y7m3PBd1jUNLQKdH+Rugk9DGytR+g3KYqc0m7S8TRgkXYQUnfdwY1x2DRbAQbghgHNyMPvWeiGhTnmVPhO+3bTHOmMX+9WVdrAs9uDPqoqsHzarQCDanfzeOT236aRhXhOG12rqIwazdbmMGH34/6yOf/8k0UnwOmFFN3a5rOB3iLNTg3f6mKYJo5lYxSw3b5zcO3RIGvU8POCvNCJWoPLRjvuJ8PBMxqEbshixx/Tvo2fr7FY7xK6Dh3LxHRtbG3EeVJn3HjL9Yyful8opdTy8jJzc3Mv/fCTJ094++23f4RqCbFPypRur8SpuRjwwq9exASkb19d1SWsa7Sa3ss/+zJJhBUNflm281+NTKog6SRono+tQxWH2HXzR67DePLd9dx3330HQJqmO17Gtgfnjn744YexscIBn5kQ4kem61RxhNdkcASquTTb8mW3J6RvX12h4QfuQddiAjpa1SF0G2g6VJVJ2Axfi0BC/DjkzIQQQoifNfnuem6/zkxIbg4hhBBCTESCCSGEEEJMZJ+CiYq0VcOxLGzLwnJDOvnwrTKm4TvY9iChUbj+xvhlqrRF4NpYto1t2Xj13pj7pyuyTohr29i2jeM31hMB7biMKqMTuoM6WINkQms/cSrjBr5jYdkWlu1R7+3TLz32IJnP3iWHgtcu0U/Ro+7ZWNbgn99Ye4jY+PEfv0xBr+5hWza2bWE5Ae1Rv2ljMIdqjo3t2NhOjdba53o1dN18noTKcqjHo6u+F2WMtjEx0zZ2lGRrfEKw8fOqpFOzCHfxEIW9SPiXRBZOM3/l5Xe0nZRtPF3HXB8bG685PEW8zf5s7FwU4udIqX14nPbti2ph/pwaPOm1r+5eOqWOnL2h+qqvls7Pq5OfDh8t/eSGOjs/fOzr2GUeqitnT6nza4+N7d9U5+fnB4/z3erhJXVq/qy68WRQxu1PT6r58zd3VcbDS6fU8TNX1OCpsE/UlTNHBo+L7S+pc8cX1MVbwwfu3rqgFtYfN7vHls6qI6Me8bxjy+ramdGPbv7pW1bXzhxXpy4NH1G8PBiXT++qbcZ//DL9mxfVyTOX1d21xzJfPqVmz1wb0feDx1pfuDl8mPLNC2ph+Kjs5Wtn1PFzWx8cPMpelDFGf0mdW9jBfLx1QS2sPe58rMEjtM++UJ29nVfPH3/+6gaPXn/4ikvvsD0PL6lT649F32ib/dnYuSgOgjxO+7mf1uO07Tq9RMPQAbTBw3d6JRUJ3Z5BLbYHv6U2PAInohkXhMG4ZUyCTkwwLLoqcgrMzQl4hoq4R+5EeMagDLtWw/C6pDR3XIYZdklDffggmkEioaoqQXNpJjGaMfgVuGbaGFU8eADNpp/Sj0tQVu0g+dSIZD4bS96UQKxD2y9HJifSuxuTQ7XQF3eWqOnfzQZnRybx6REYg0Q/QV7HDktqDmRlQZ6WOM0uDXeQRKgWtikNE910MLI2WiNj6y8DxyUnG7Rv1Po3Lq3jtxM83Vh/PLllVBQlFNm48XfHLqO5DRJ3reySIqswzBFPAsx6xHi03OHDlN0Aj5BeBkFZouk7eGTVXpQxUkEnqm9IzFTHikf0sZttSbJlk4xJpjey+u3N88po2HRMjyop8dsttMiiFxV09PGJpl6Qd4hqi2R5Qa65NDtNPKNLzWjjr2WqLFq4Tspi3sItetRrdXqYmIaJWTF8nvs2iaaq0Um8Nm8nHfzUxR7xrAfKgnLk0yHH7898xs/FTZvDmLo5+vg+MF/YDxRjEpAVdKOARlqhUVFpDvVWkzF58oSYjFL7cGZio/4tdfHkMCFN/5o6M3tGXdsQnt++uJZQZ8wya55cUWfnj6jZ2QV17trDkat6oayt69tBGZuqcfeyOj1/Rl154aPLaun8wobEQBvfGpegbKfJpzYm89lscwIxtU1yoo3JoXaeqGlsEp8NiX4GyzxP6LN85cz6GaRLJ4+vJzvq37qoFt6cVy8ceG6TnGz8+sd7eO2smh8mIHvp+I9YZs2tiyfV8dlZdeTUp+rWqFNCN8+r46cuq+e1eaIunzquzt8cJFU7fvKMOnPqpFqYX1Cnz19ZP9Ox52WM7YgNiZm26eNNidjGztVxZyY2zqtBArvnScM2LLNNoqlNVb50Ur05f2E9Id7NC/PDMxU31Nm1BFRKKfXkedtuXRx8ZrDIbXVx4c3BmYltEk3tbDtRSvWfqCfLIzr91gV1fP6UOnP6pFpYmFcnz1xUNx6qbfdnO52L4+s2vg9e2A+MS0D28JI6OX9BrW2CT25eeZ7k6/8ycmbiuZ/WmYk1RY/Ir1OEXdqevrNnt29dZo0R0MkCqrxD6PnUzYSG8+KxwrZ2UUYZN6hFMW67Q2BueKPK6IQBTRbptpwXj1b0cQnKYNvkUyOT+bzoeQKxkjQel5zIHL3wyD7ZnNxnZBKfrUwb21hrrg5lSUVKkll4w6NPzanhWd0Xh3yb5GTO2PWPOlQuSVsBQcek1YmwgJf/0OnFZdY4jYS8UZI0fGqBSdKtjU+6toXhRixaJp7vYFQZ7cDDr1u7eljTXpSxbps+3vQsw23n6s7Y3pjHSY9JNLU1s7jh+sP5rOG4NkUroxz7gOqSLC2ww+GZAM3Gcwxi2CbR1C62E83AGLU7MHwW6y6272PrJWmzhldrYsU7nSHjbFe37W3cD4xNQGZ6BKZP4AZ4vofv+QTWj5kgQPzfZN+CiSprU6u1sRo9OmvnTTUT0ygpCtZPTRZFieGa45ehIOlmGJ6LqYFm1gjcOvWkIE8jvEZKhYbbTGlYBmVcsH7loSgoDBNT23kZbV8j7wb4DY3Fbhff3LB3qRIaXkjstejVR+9Ey3Y0JkHZsAt2Ev+MfHj/2vKbE4aNTk60/dfqtomadmREyweJU17pobi7vy+tJI48oiKk0wvWv6CMseM/fpky65FUDp6tAzpOUMNs9kgx6NkB3RI0M6LTMjGKnJy10CYnKwxMA3Srtn4JDc2iVnOIWhlFGlOrtcgr0P02afgKZeDsOKjZvsdG/O0lc3UnXkxot2ZUoqndlf2il8yusW+/2nayznQJgrUXOnbNx1qMyYjG7s8MtpuLO6lbd+sHNy+1bWeudYRF2Muo5Qlxr0uzVqcZxXQ3HR0JsTf259ccZY+o1sJq9WhsugBr47sFnc4wWU3RpZ1Y1Dx9m2UK4sWAaP2nHQndBCzLwAy7ZHlOnme0fQ3D9TGTNr1hQqO01aH0ati7KKNK69QWNRq91uZAgoJOEBLXOnTHBBKwTYKybYxP5rMd/aXJiQbJoXaeqGkimoVt5STDXydUaYfeqB8NbJOcbKeylk9URHQ7waYj3fHjP34ZsjZB0FhPPJT3euSmjYVLM83J85wsjrAtD1/r0Rn2bxm3iXUf36qI6w5+c23MSuJuimFZGHadOBuUkTZdeJUytjZ+TEKoTRHhy/p4GKy+ylyFMUnHthqZaOpFRdIb/lqqIolTDNtCR0fXCtambJkMzmqAgWUZpHGynvSvu5YgbWyiqZ1uJ0BVUIxoXNkNcWrt9V/K5L3eoD3a+P3ZdnPxue3qNq4PttomAVnWodFO0UwHP2zQjiySOAMqiizfXVJBIV5iX85MlN0m7SzHDJ3n6XaNgHYvwm20qQUhjl0BOm6jTWBA2R6/TNReJIw8rMZgj2n5bVreiMjcDGkvpgSezSKgWQHt4aWInZYRN1ukhUHdtVnLU6W5TZIopdnNKbIazvolCIuou/kyiDkuQVm3gzumv8Yn89meFY5LTrQxOVSX+g4TNU3GImzU8EMHxzQxLQdnVCrAbZKT5TtaT0KrmZBXJb79PDuRsxjT8seN/3bLNGknIaE96JTKcFhshyMuFNlE7YgwdAdfCNrgtYWGFS3SDQLs9uA7XbcjOo1RlycmL2NcQqjNiZla4xPAbUyy1Rw3V//yQsr3gY3zqrN9pscxiaY2qiowLWgHPlmRU+DT7AwScIWRQVDzSCwD3TawhkmjnHoTrxZiOwamMfg5L1W1baKpnW4nYV4beQOm7kVEvRDfag4Hx6HRDgfjNmZ/BuP3RZt6dGzdnLF98MKojE1AVqEvRjgt0DWoMGm0XCBh0YvQuykNSdcp9og8TlvsmTzukBk+nqVB2aVmt/CS3nDnKvbEXiaE2i+SaEq8ZuS76zlJ9CVee7pW0AocFrXBzbbWYouaBBJ76ycIYZB5AAAgAElEQVSfEGq/SKIpIQ6SnJkQQgjxsybfXc9Joi8hhBBCvJYkmBBCCCHERCSYEEIIIcREJJgQQgghxEQkmBBCCCHERCSYEEIIIcREJJgQQgghxER2FUxMT0+zurq6X3URQggh9tTq6irT09MHXY2fvV09AVPXdcqyZGVlZb/qI4QQQuyZN954A12X1Ov7bVfBxNTUFL/61a/2qy5CCCGE+AmSeyaEEEIIMREJJoQQQggxEQkmhBBCCDERCSaEEEIIMREJJoQQQggxEQkmhBBCCDGR3QcTz+7w+Z+aNP71L9zZ8eMmVrhz/Sppf9drE0IIIcRrblfPmQBg5l1+94cZPv/jTWCFO1f/jftuxEdH4fHSZ8THzvOfn/1vbtxZYWZqlf7c+/zOfszNe49g6h8c/d17vDUs6t71Jl9OneAwFU8ew/vnfs+7U/dZuh7z9fQhVp/B/Ic+c/GfeeR+wgeH73G98QXaH/6Fj47e5/PP7vDeJx9xbE+7RAghhBC7sftg4qWe8eA/nnLsw/N8cBSePl5GO3oYe+4B2gfPA4mBiqn5D/jo3Wke/7VJ/GiFw18v8Wj+HOedGXj0OX/821f888IMyaNnrKzeY/XXR/n+wVPgK755a563974BQgghhNiFfbhnYobf/PY/Qfy/+OyzP9N7UG3zWY2ZmcEz06emYWUFlr+pmJubGbw9d5SZZ9+z+ut5eHCfbx59z9zJBbRHD3j84DEz755AnrguhBBCHKxdBBN97i39lTvPgJVnVKuHmJqeZgoY5P5a4dny90Cfb6rDuB//gU8++S1z6d+4s4t7JeYOaywvPxu8WH5Mf2aOmZl3ONH/D+L7GieOneAYXxHfn+KdExJKCCGEEAdtF5c5DnH0xCpX//QZX7KK9v7vOQGs/uYY8dJVPn/7n6CvAdC/8wVf3DzEDH36b/2Gk4dm+OatZyxd/5K3Pn6fY9vEAG85H3Ds+nX+8uAQq/0p3v/wHaaZZv7oN8RfL/Db6UM8e/spX3z1Hh8emqzxQgghhJjcL5RSanl5mbm5uYOuixBCCCH20XfffQdAmqY7Xsa2bQB++OGHsbGCPGdCCCGEEBORYEIIIYQQE5FgQgghhBATkWBCCCGEEBORYEIIIYQQE5FgQgghhBATkWBCCCGEEBORYEIIIYQQE5FgQgghhBATkWBCCCGEEBPZhxTkQgghxM/T6uoqZVmysrJy0FVZ98YbbzA7O8vU1MF9pUswIYQQQuxQWZboun6gX9xbra6usry8zOHDhw+sDnKZQwghhNihlZWV1yqQAJiammJ1dfVA6yDBhBBCCCEmIsGEEEIIISYiwYQQQgghJiLBhBBCCCEmIsGEEEIIISYiwYQQQgghJiLBhBBCCCEmIsGEEEIIISYiwYQQQgghJiLBhBBCCCEmIsGEEEIIscfylofptsg2/rHsEVg29aQ6qGrtGwkmhBBCiD1mhi3qWoOolQ//UtKrR6R+i0VHO8iq7QsJJoQQQog9ZxK26lSNkHYOVVynnni0Fh20KqMderiuh+c6uLUWSQlQ0I08HNfFdR0cL6KbH2wrdur1Sn0mhBBC/FyYIa16By8M6RUJbivB0SBrBjS1JknsoFGRRA5hwyENYxo9i2bWxAGKuE2vKMHUD7olLyXBhBBCCLFPrLBF2LZpOT0yRwNK0jilyOt47vBDFVRWTml6BKZP4AZ4vofv+QTW6x9IgAQTQgghxD6ysEwN0zZ5fqeEhh116QUvBgphL6OWJ8S9Ls1anWYU0w3MH7G+r0bumRBCCCF+NDq2a5F2uxQAVGTtiEZcQtah0U7RTAc/bNCOLJI4e0l5rwc5MyGEEEL8iKywTSML8Zw2ulZRGTWaLR00C30xwmmBrkGFSaPlHnR1d+QXSim1vLzM3NzcQddFCCGEeK09efKEt99++6Cr8YKd1uu7774DIE3THZdt2zYAP/zww9hYQS5zCCGEEGIiEkwIIYQQYiISTAghhBBiIhJMCCGEEGIiEkwIIYQQYiISTAghhBBiIhJMCCGEEGIiEkwIIYQQYiISTAghhBBiIhJMCCGEEGIiEkwIIYQQYiISTAghhBBiIhJMCCGEEGIiEkwIIYQQYiISTAghhBA7ND09zerq6kFXY5PV1VWmp6cPtA5TB7p2IYQQ4idE13XKsmRlZeWgq7LujTfeQNf1A62DBBNCCCHEDk1NTfGrX/3qoKvx2pHLHEIIIYSYiAQTQgghhJiIBBNCCCGEmIgEE0IIIYSYiAQTQgghhJiIBBNCCCHEK/maf1z/d5r/o8Hn93e+VP8fV7l+b/9qdRDkp6FCCCHEK3mL937/3zh09X9yjxXuXP037rsRHx2Fx0ufER87z3+d+ZKrS4+YnoH+yjH+y2+Pkn55jwczf+XO4Y9495eDku5db/Ll1AkOU/HkMbx/7ve8O3WfpesxX08fYvUZzH/oMxf/mUfuJ3xw+B7XG1+g/eFf+OjofT7/7A7vffIRxw6oJySYEEIIIfbJN3fusPrux3z8/i9ZffqY/qGj2CcOU80/DyQGKqbmP+Cjd6d5/Ncm8aMVDn+9xKP5c5x3ZuDR5/zxb1/xzwszJI+esbJ6j9VfH+X7B0+Br/jmrXnePqA2glzmEEIIIfbNUfd3LDzt8efPPuNq/JjxD+LWmJkZPBJ7ahpWVmD5m4q5uZnB23NHmXn2Pau/nocH9/nm0ffMnVxAe/SAxw8eM/PuCQ7ygdoSTAghhBC79DT9Kzfv9YFV+n2YOjTNFDBI27HCs+XvAXi2vMqJDz7m/CfncfmS//Ng54/hnjussbz8bPBi+TH9mTlmZt7hRP8/iO9rnDh2gmN8RXx/indOSG4OIYQQ4ifll8eO8eTqn/jsb6vwS5ePj8Kh3xwjXrrK52//E/S1wQeX/8GNL25yaAb6/RO8f2yauf4Mj/52lX/Mfcx7b41fx1vOBxy7fp2/PDjEan+K9z98h2mmmT/6DfHXC/x2+hDP3n7KF1+9x4eHfpx2j/MLpZRaXl5mbm7uYGsihBBCiH313XffAZCm6Y6XsW0bgB9++GFsrCCXOYQQQggxEQkmhBBCCDERCSaEEEIIMREJJoQQQggxEQkmhBBCCDERCSaEEEIIMREJJoQQQggxEQkmhBBCCDERCSaEEEIIMREJJoQQQggxkV3l5lhdXaUsS1ZWdp6oRAghxN564403mJ2dZWpK0iuJ18OuZmJZlui6LhNYCCEO0OrqKsvLyxw+fPigqyIEsMvLHCsrKxJICCHEAZuammJ1kOtaiNeC3DMhhBBCiIlIMCGEEEKIiUgwIYQQQoiJSDAhhBBCiIlIMCGEEEKIiUgwIYQQQoiJSDAhhBBCiIlIMCGEEEKIiUgwIYQQQoiJSDAhhBBCiInsUzARE5o2jWzr3ys6vk6tW+3Pan9UPQLDo13uTWl508GKkgmqU8Pw2rxQnSql031hIF5SVoCuGViWNfhnWji1FsketXWbFe9pn76KrOVjWTZBO9/nNZUkrQDXsXEcB8e2cfw6vWKtIj066R5tJ0mE5TTY5Sx4/RQ96p6NZQ3++Y1kON8rsk6Ia9vYto3jN57P1bHLFPTqHrZlY9sWlhPQHtPfVdqi5tjYjo3t1Gitfa5MaNYcLMvGtiycWnPsNlLGDXzHwrItLNujvjbQVUYndLGH25pTa7FXwy7Ej0nOTPzcpW0anYzd7p80u04vy8iyjCzvUSvq1LvFyxf8SStJezF2I6EdmPu7qmSRoKWz2EtJkoQkTWg6CfVGTAXkvQbt/Y/efkJKOmFI4nVIs5QsaaC3QloZkLcIF0uiXkqaJrScLkE9ptpmmSpuspj5dNKUNM3oBTnRYvfFYJyUxaCF0YhJk5SkYdAKFkmBtL1I12ySZilplhBVDeqjgtCqRxR0sJopWZqRtix64SIxkLdC6kUw3NZiwmqRqP1z387Ez9GBBBNl3CTwPVzbwq51yAHI6UYejuviuQ6OF9EroIpDzI1HVVWPwHRp5VDEDXzXxfU8XMcj6uZb1lTQ8kxq3ee7iLzlYgY9KkqSZg3XcfE8F8cNaWcVUNL2DILe2hIpDdumno5qSUXSCPA9F9uyqbXSwZd2ldIOXBzXw3Md3A1H9UWvjuc429QZyqSOawd0ciDvEnnDNroufiOmWOuv0MV2PHw/oN4d8cVT9qhHHbK4QS3qUoxt80tUBUVlYJn64GXSpOY6uJ6L6zjP253Usd2AyHdxo+d97DgOruPgBm2yCqgy2qGHO6J/NlR+TF0rOr6JX28QBgE1z8GptbedQzuVtUMaSUXSqBF2/r/BeqIQz6nRysaPXd50sWt16mFAzbNxghadVkQQ+Li2Sz0eMTZVRVlt7HsNpx6TNl20pEnQTEhbAUE7G5YfEbguQaeAMqbuOziuh+s6uEFnuH0U6+13h+1fn15VRiv08VwHy/ZorHV43iH01trk4DfiwRdqEmE5TdYX79bQ/c7gC3pLv1RJE9+2cT0fP2wQuhajTrLtpP+C2mCsX4xbdfx2Qjey0AB0E8uoKEoo4h65E+AZg360azWMuEu6zTKa2yDphlgaQEmRVRimMfjcpknRI8YjcAdzX3MDPGJ6GdhRj7jhDJapcopSxxhuI5toLs0kZtEZlK6ZNkZVUVVghl3SToABwGAbqyoJIsVPkFJKPX36VO3E48ePd/Q5pW6q88cX1Kd3t/69r66deVMdP7eklpVSqn9LXZhfUJ/eVkot31JXLi+ph8NP3ro4rxYu3lZK3VIX5k+ul9W/cVYdP31FPekvqXPzZ9SVJ8MFnlxRp4+fVdeWN69xee3zSimlHqpLJxfUxVtK9W+eV/MLF9Xt/vBz186o46cuq4dqWV05fUSdW1or4bb6dGFBXby9tS1L6tzsrDq9VoEnV9TpI6fVlSdK3f10Qc2vtVH11c3zw7Ys31Bnj59Sl9Ya+fCyOnVkUOeHl06q+Qu31PLtS+r0ybPq2kOllHqirpyZV+eW1hp1V106eVydv9lX/aVz6vjJT9Xd9XUcV2+evqK2NF/1r51Rs2dvqL7ars1bm3ZOzc4eV/MLC2phYV4dn51V8+euqYfD5R4uXVJXbi2vFaLOHDkz6PfbF9XC7Cl1aW3cb11Q8yc/VYOuW1Y3LpxWF5aW1d1LJ9XChVuqP6z7rQsLw7FeUueOnFZXlrer62AOzV+4OVx+J3NopwZjf3ZpUK9rZ2afz9Xtxu7yKTV76tJgvf0lde7IrDoznIjLV06rI8P+3+yhunb+pDpyZF6dPHNOXbx0Td28+3z0bp4/rk5dHs7ay6fU7MJFdWtYSP/2NXXpxt1hmQ/VpZPH1bmbSqmHl9TJ+Qvq1rCMJzevDMbp1gU1/+bJ9XFZvnFWHT95Sd1VT9Tl08fVmWtP1gpWFxcG82swdpfW+7J/46yaPXNN9bf2y3D9Z28MZ/uti2rhzXl1Ya0S6127ff+9uWEuL5173vZxHl47q+ZPXVJ3lVK3Ly5sHuf+NXVm9oy61h+/zJpbF0+q47Oz6sipT9WtrRuPUkrdPK+On7qsntfmibp86rg6f3Pt9V116fS8OjJ7RJ28sKS2r7VSSi2rpfMLG+b/hmrfvaxOz59RVx6+tBCl1G72x0I89+2336pvv/1W/f3vf9/xv7VltosVDuDMhIbtuegAmoGpVxQVoBsYZZvQ8/B9n8VeSVmWgEPgV3S6KVDS7SQ4oY+R9kiKlFbNxXVd3FqLQivI881r070Iv2gPjvKzDh0tIHQgT1Mqx8MeHororoeZxbu7rqzZ+IPDITBsXCMnzUuSOMfyh21Ew/Fs8jSlzGJS3cE1h8ubDp6RkgxXWmUtan4bu9WmZgKkxHFBsugP2uiGdCqNIi/I0wxsB2t9Hc6LR1Vb7KbNmhXRG54CzsuMlt7EC3uUgK5rJI0anu/jB03SqqRcO8g2bBxruL4kobId7MHa8Js9mh6kcUoR1/FcF9f1qCdQFfmmU8zb11XDctbau5M59OpszxmM40vGTrdsTADNwDAsHHsw+rphQFmOuMxkUmslFFmPZuBi5F3qnoVTT0ZektJsl+GBLZphQLeO7/n4fkQnL6jKCkyPwOwRuAFRs0Nm+ATO8EjZcnGH46I7LmaWkFUpcWriucbaSvAcSJN85/1CSpJZeMP1aE4NzxqxwEv6z9gwl3Vdoxo7biVpy8dvGbQ6EaNWtZtlnEZCXuZ0vR61oMPuLzBYRL2MIu8R5BG15jZ7kCqjE3gsVot0m5u31zJu4Ne6uO02+32FTYj9MHUQK9VGfOuV7Yig55H0QkwNsoaDlw/es4MaWq1DGth0UpewrUOqgeHTjJs4267MIQqg1klxyy5G0MWEXQUNk590HH8pYWPZZV5huxrdRpeoUxuc+tQswk5MZG5eLmtsXcV+3rVl4AYuWq1Hhk4naEIzoefpUPWomRsqo404VfwCDTvq0gu2nhLujfz0yBJ2OYdelTZqRWvre0l9tldSVjq6buL4AY4fEIUNHKdJvNh5oQ+f16OiV6/RNnokbRuNkrZnDnvOIuxl1PKEuNelWavTjGK6FsCLp9/H1nnU37fMr/X6DK7r7fqeHHiV7aokjjyiIqTTC4aXKMCwDMq4oGJY9aKgMExMbfwyZdYjqRw8Wwd0nKCG2eyRYtCzA7olaGZEp2ViFDk5DC9F5GSFgWlU5HGPwvJxDEC3CWoW9U5K6Xbxay3yCnS/Tdp0oUpoeCGx16JXdzaNRt4N8Bsai90uvrnriSTEa+G1uQGzLEs008TQgDKh291w06BVI9BjWo02uRfiaoDt4lQxnWTtzuoejagzMkgwgxCjExHFFmFtsEuwHAct6bG2eBH3yG0PGw1dh7JYu8khIc3HVLrKiNeuhxcpcWHhWDqOa5F1h9eeKYm7GZbroFsudpkQr5WXxySlvX7EaHgRjXaHerk4PMKxce2c7vqvMXI69TrdAkzbokqTYXtLer10/A59+EUwvs0vU5H1EgrTxqSkLA0sa7A7zLvtQXkjVm46DlrSHa6vpBe6BJ0K27VIu93hUWBF1o5obLmv4FXquu0c2tScgjwrdvcF+JKx26207mLXWmy8ZaVIUwrTHtR/UNERS1aUZYVpm2hAlXXopIPr72QdGu0UzXTwwwbtyCKJh3Mn77F2wqFMYnLLwcLGs3N68dovC1J6iYZjm4OgsMzXxyhJxvSlZmFbOcnwJwhV2qE3aiPcg/7LWj5REdHtPA8KAAzXx0zaw/tjKtJWh9KrYW+zDFmbIGisz6+81yM3bSxcmmlOnudkcYRtefhaj85wfpZxm1j38S3IOxFBvfd8O+9lGKaJbteJs0EZadMFCjpBSFzr0N0SSFRpndqiRqPXkkBC/KQdyJmJUcxahNeJcF0Lw3AIF+uYYZ2w26Xlm/iBTj0sCJPh6UHNo9FOCSMXV9OoKg2n3hp92lP3Ce2ISG/grW2vziLtIKTuumg6lNg0W4MbodwwoBl5+D0L3bAwx+zwKs3CyCN8v6DIS8xGG18HLWpRDyM8t4lOSWXWaUUWaBbNVkJYc+jqOlQaTquFr7N+oxuYBO0GsVsjchKarRZpGOB0NbSqQnMXaRugeYs0OzV8q4thmjiWjTHiHK3meDj1Om6tpN0Z3+YX2pY28Oz28OayCiyfdivAoCKqNwl8l56pY/oRi15II2zibD1b4izSDgIixwEqsCNavoFFm0YW4jltdK2iMmo0W/qIZUfVdXwIsP0c2tDKvI3vZjSKNt7Y0rbQ/R2M3c7Zix2a9TqB3aTS1m7Mc/n/27uD0DbuvP/j74LUHUFFpdB4HR9c4UAsooMFMWQOhk6hYeVDUjVQ1+Sw0f8pbAQbiOApxHt6fFhYLfRPVUipckjr5pA1LiTCPliQgrWsl+gPDqsctHUCcYwPsh8HIrVakEAq8z/ITt3EduyMHTvN5wWFejS/33xn5Hg++v1mNMnRBGFgKWKxlIgSqaT55aHxEUnEScctrJEA7eEYQ8MWsWSMkW+G8GUTmGnwGVAnQDJtQSULwQDzyUGi80vML/lIpOMEMIilk+TjUawRH1TqtMdGSFsGMEgiPEjcihIMtBP2Bdf9PYEg8eQg0biJGQgQCJqY6yU+x8cvTzqVZ75eIRr++RfNHM6RjsYZGS4Qi4QZBoxgjJG0ibFpmxQj+TjxcOsfd73dZHgk3pqq+uU7RWIkQTxutYKs0fo5iEEwOUo8nsAMDmFQxwjHGRleZ5x0fpRUZp6l2UHM9M/HLZEZpT2VprDUzpAVZmjlFcNKkU9ZWzoqIvvFa7Zt2+VyGb/f/8yVFxcXOXTo0Asoa4dVssSsFGYmSzyw18XI3ltiJJ4imE5uPkUmWzKfa12fEQkaUMkwGE4TyWeJrZ8+ZIe8tH+PZU/9+OOPABQK696iuK5wuPUJ4aefftowK+ybkYndkk9FiKcrmMlRBQlpqS/RHo0rSOwQn7FEOmYybPigDsHhNIMKEiKvlFdjZEJE5FdGf4/leezWyMS+uQBTREREXk4KEyIiIuKIwoSIiIg4ojAhIiIijihMiIiIiCMKEyIiIuKIwoSIiIg4ojAhIiIijihMiIiIiCMKEyIiIuKIwoSIiIg4ojAhIiIijmwrTLjdbprN5m7VIiIiW9BsNnG73Xtdhshj23oEuc/no1Kp0Gg0dqseERF5htdffx2fz7fXZYg8tq0w4XK5eOutt3arFhEREXkJ6ZoJERERcURhQkRERBxRmBARERFHFCZERETEEYUJERERcURhQkRERBxRmBARERFHFCZERETEkW19aVWz2dQ3YMqeef3113nzzTdxubb1aysiIrtsW3+VK5UKPp9Pf8xlTzSbTcrlMgcPHtzrUkREZI1tTXM0Gg0FCdkzLpdLD5oTEdmHdM2EiIiIOKIwISIiIo4oTIiIiIgjChMiIiLiiMKEiIiIOKIwISIiIo4oTIiIiIgjChMiIiLiiMKEiIiIOKIwISIiIo7sQpiYJWW2M5ipr1mUwjTCDBV+XlTPxQiEk8wWhgiHkxSe7mgTFfKjWea30ySfIGgmmd3Wdl6kOplBH1Z66Zlr5hNBzNT8NvpeIhMLEwhHSW3vQO+O+iwjcYtgIEAgECAcGSL77N0WEZF9ahfCRBAr2k4+m2c1TizlslQCdfK5+cdrFTJ5jEiE4PNsop4nncxsL0y80gpksj6GshkS4b2uBQrDgyQrcbKz88zPzzJi5YglMlT2ujAREXkuuzLNEbYiGLnMymhDhVx2iUgiSj2bpfUBtEAuVycSWT2zzTKaiBKxTIJBi2SudVqp51MMWiZWxMIyTQbTBeosMZoYIjubZSiaJFd/YuPzGRIRCysSwbIsoskcT37onR2JYZkWlmVhmhGGVra3lbYAS9khIqaJZZmYkQSZeYB5MokIpmURWVne+rRdZzQaIDqUJB6LMRgxMQdHtheElrIMWWHCVpToYILR+bUvrdQSiWCZERKZJ3teIhMfJleZJR2LkS5s3GY+ZREeTBCzLGKjS7/oIx0JMJj5+XQ/n7YIxLLU6wVGYhamFSFimViDafIVgAyD7VFGV5sspbECcXJAezTJaGqQgAFgEDbDGEtLChMiIi8r27btR48e2VtRKpW2tJ5tT9nn3u6x//Iv27ZrN+yPus/ak+Up+1z3+/bfyrZtP/jMfufts/Zkzbbtf120e958x/7s+5pt27a9+PXv7Dc/umHXbNt+MPmZ/fWtcqvL8t/s93+72v5L+523z9lTT2130f76/W777ORKG/t7+7Pjb9vnpmq2feuC3X38L/b39i37Qvdx+7PvV1Z5MGl/eeN7u7ZZ27VqN+yP3v6d/eWDleZfn7Xf/8st2y7fsr/+ctJeWWzfutht91z8l23bNftv7//G7r4wZbd6umVf6F45Nr/s2L7x0Zv2O18uPrVXty52290XbrXa1/5lX+z5jX38swe2Xb5hf/T2O/Znqxt98KX9zm8/ah2jX5i0z/72d/bXZXvTNg++fMd+s+eifav2ZHvbLt/4yH77d1/breoe2J8d77Ev3rLt7//SY3efnbTLK/swdW51v2/YH62+X7Zt24sbvGeLU/bFd7rt9//29H6vZ+u/gyIi8qQffvjB/uGHH+y///3vW/5vtc1mWWGXniduErUqJHPzJCpZCuEIps8Ec5bRXB2rkmXWjGMZK6sHTKxg64f29naMSoU64PMZ5JODjGJgsEShbhB5ciTiFwrkckvkl6JYydaSet2gfX6Jn+dTwgzGDGKDEQqRKJFIhFg0gEF247YE1mwiR8FnMbyyKBAbIQPAPO2VFPFICsMwqM9XqJirn7UNgqbJyh4S8NWZ33Q/1qowW1giHA+32hthImY7OYDZHAWfydBqeQGTSHuK/CwMmht0t0kbEzDCFqbxdDNfJEF0eIjR+RiJ+iijRoxRs0JueJ5g3MK3sp9mJMx8ukBlZcmm5keIRkcIJLNkIu1bPSAiIrLP7FKYMLCiJvF0jtxSnkBkGB8GZiRIIpsjV5nFjFr8fM5a78STZziWglSebMQH9SyDgeQWNh0kPpojEXiqu8e1mUM5CvFZ8tkcmWSE4ZEk+RFj47ZPqfBkFqiMJIhlI+SzcQIGzCZNIvNrylrnBL01W04dK5Vt39o2xkaFGiaJGAyOFrAqGdpjmbURa42t15tLpTASWVIKEiIiL7VduzXUsKKEZ0dI5nxErNbJwmdFCOSTpPNBotazPrlWqFTaCQZb681nRsjXaZ2rNjwxh7HC82Qyq/dszDM6NERm7fR/PU86Ocq8EcQajJNKxfDlc8xupS1A2CJcyZFbWW1pZBAzkeN/KxWMQIB2A6jkyWRmtxkDNtJOMNhOIbdyQWs9Tya3UlTQIlzJ8/i61vkc+UoYa7OrWp+nzYpALE77aIJELkh8sB3wYVpBZjO5lUBSIZeZJWiZ+PDhM5ZYWkkqlXyO2ScOiDmcIz2oICEi8rLbpZEJwGcRDcb4P/MJUgPg3qEAAA1ZSURBVIGVZe0WESPBUCDFyDPPIRaJoRSxqEU24CMQTTAciZOMpzCzFpH2JHErzvBomp/PR+3E0mkK8RhmxsCo1zGs4da25ldWMYIESRIzUxg+g3rdwEymMWnH3KjtWkaUVDpPbDDMqAF1w2RoxKLbSBAZTWBZQdrbTeLDQwTiQ8Qzo1gOD6U5lCIyGCdsthNoDxMOB6FeB1+rlvigScbng7qBmU4T3SynbdJmfpNmq23j4QQJX5LISqALJtIMxRNErBQ+KtQDQ6QTQSBAPNFObDBCPtiOL9xO0Fg7BrLESDRINr5EZvC5h21ERGQfeM22bbtcLuP3+5+58uLiIocOHXoBZcm+VMkSs1KYmSzxwN6UoN9BEZHn9+OPPwJQKGz9S4fC4dadlz/99NOGWUHfgClbkk9FCJvDGMPpPQsSIiKyP+3eNIf8qpiJLIXEXlchIiL7kUYmRERExBGFCREREXFEYUJEREQcUZgQERERRxQmRERExBGFCREREXFEYUJEREQcUZgQERERRxQmRERExBGFCREREXFEYUJEREQcUZgQERERR7YVJtxuN81mc7dqEdlUs9nE7XbvdRkiIvKEbT011OfzUalUaDQau1WPyIZef/11fD7fXpchIiJP2FaYcLlcvPXWW7tVi4iIiLyEdM2EiIiIOKIwISIiIo4oTIiIiIgjChMiIiLiyLYuwBQREZGXXzgc3tH+NDIhIiIijmw/TFSLXL+SIvk/31Dc8tdNNCiOXaNQ2/bWREREZJ/b/jSHN8Tpj71c/3QKaFC89gX3rQSnOqA0eYlc5zneq37LjWIDr6tJzd/H6XCJqbsL4Jqh43QvbStd3R1LMe3q4iB1FkvQd3aAkOs+k2M5lt0emlXoPhnFn/uKBes8/QfvMpacwPj4E0513Of6pSK950/RuaOHRERERLZjF66ZqDJ35xGdJ8/R3wGPSmWMjoOE/XMY/T8HiZY6ru5+ToXclMZT5BYaHFyeZKH7LOdMLyxc59Ob9/hDj5f8QpVG8y7Nwx38Z+4RcI+Hbd0c2vkdEBERkW3YhWsmvBz74F3IXeXSpa/IztU3WdfA6209a8HlhkYDyg/r+P3e1sv+DrzV/9A83A1z93m48B/8x3swFuYozZXwhrrQkxpERET21jbCRI27k+MUq0CjSr3pweV24wJaz/5qUC3/B6jxsH4Q68zHnD//Af7CTYrbuFbCf9CgXK62fiiXqHn9eL1H6KrdIXffoKuzi07ukbvv4kiXooSIiMhe28Y0h4eOribXrlximiZG3wBdQPNYJ7nJa1w/9AbUDABqxQkmpjx4qVFrO8Zxj5eHbVUmx6ZpO9NH5yYZoM3sp3NsjG/mPDRrLvpOHsGNm+6Oh+SWe/jA7aF66BET93o56XG28yIiIq+ys2fPbvjaN998s+V+XrNt2y6Xy/j9/p2oS0RERPapH3/88all6wWK9YLETz/9tGFW0PdMiIiIvMKeDA7bGZFYpTAhIiLyilsNEM8TJEDTHCIiIq+M9aY5tkrTHCIiIrJrFCZERETEEYUJERERcURhQkRERBxRmBARERFHHn8D5uLi4l7WISIiIvuYYRgbvvY4TBw6pOdvioiIyPrK5fKGr2maQ0RERBxRmBARERFHFCZERETEEYUJERERcURhQkRERBxRmBARERFHdixMlEolarXaTnUnIiIiLwnXs1fZXKlU4urVq4/vP+3r6+PkyZOOCxMREZGXg6MwUavVuHz5MqFQiJMnTzI3N8fY2BiGYXDixImdqlFERET2MUfTHLdv38YwDAYGBvB4PIRCIfr6+igWiztVn4iIiOxzjsJErVbD7/f/YllXV9fj53yUSqVNv35TREREns/4+DilUmmvywB24JqJzYyPj3P48OFdm/J47bXXsG17V/oWERHZz8rlMp9//jl+v59QKMSxY8fo6OjYk1p2LExcvHiRP/zhDzvVnYiIiGwiFArx73//m76+PmZmZpient6zYLGrIxMiIiKyO0KhEN9++y1+v59EIkG5XKZYLO5JsHjpw0QymQRqVMtNXG948biBN47z+/PvsjeDPSIiIrvP4/Fw9OhRisUioVAIv99PX18ffX19LzxYvPRhYmhoCBpFrv15is4/nqfvwF5XJCIi8mKEQiEmJiaeWv6ig8VLHybW07g/xv+d8PJfiX7aABp3uZa8yaFz77LwxRRusw3KNarLZYzeAc70deBuLDNz4wbTy+ChRsPby6mBPjo9W+j3j+fpaxa4cSPHcsMDzRqe7n4G+rvx3r9OcsLPfyXepQ1oFK4wfPsYwx93c+fKp9zxdlMrVQmf+Zi+ttUt1Zi58il3/L1468uUlx/i6nmPUPXfzJUfUSq38d7HA4S9UL07ydjN+9TcbqhBh/Uhp8MHaCxMc218hiouaDbx9pxm4N1OXBssZ2GKsfE7Py9fPS48ojB2je9K4PUeoPNgjZnFEIlzJt5HRa5/O0Wp4YZmA0/3idY+v+D3W0TkVbU61ZFKpfB4PJuu6/F48Pv9lMtlpqendzRY/CrDhPuwRQ9fMb3wHqc73TTu3Wahw+SkHxZ5SOPQx5zt90B1hiufTnC75xxdM9fIuU5z4XwnbhosXP+csZtdfHKq49n9HnjE7csTVI8lON/rhUaJ8c+vMNk1xMCGR9iFizqlZohPEiE867z20BXi92f6cS+Mk7w8TfO/z3PmQIPitT8zVawS7llg4kaJnj+ep9cLVPNcTt2g0P173NM3qfcOcd70QKNE4f+VqdFgcd3l0KxC6NQ5ejs9UJvhcnKSO8c+pmcuy0TpMOcS/bRRZebKp9TpwUWV/LcT1PsucD7kAZaZSl1u7XO3e5feWRER2chW7m58ch3btnfkrshfZZiANvpMP19Mz9E400lxZoFO80O83AMOcnh1uMHbQYf3O0rLNVz3HlItj3P50koXzSbNtmVqdKw50W/Qb+Med0t+uj9c+Uzu7qC7EyZLZeh8RqVHutgoSx7qPIQb4I0DvOGtc+gAgBuv4aFZq8HDuyxUSyx/c4l8q2jqbhflspvenhDViS+4shCi+0iIo8dDHADcGyyveT3M3bzKbVy4qLLcdFFvQnlhGTqOt0Zi8BLq6eTGbaCxwFypxsLNK1yaWj1kbrzlKqC5JhGRF6FYLGIYBolEYsN11k5zVCoVfD4foVCI3t5eTXM8i/dYH525PMXlGnfKR3j3yJpPyxt8cO5472PO9W4+TLRpv8/B5droLXA9Ued667nAG+L0+dNPZ5aOAT45UqU0d5e7d8b54rsOzlw4zeHQest7uXMtBx9c4Fy3BxpFvvnz1Ab1rq3Hz/Ez53m3bd1VRURkl83MzBAKhZ5avjZALC4uPg4QAwMDu3IB5q/3EeTuEH1Hy+TGclR7+uh8fGJ+yN271db/VhdYqB6ks81D55GDlO7c4READUr560zeX+cpqOv16+6ku6PM3bmVfhsL3F1w09HpB48HV71MfaXfhXsPd24fDx2mszHHzEJjZX+KTF6fYZkqd6emKFa9dHT38u4H/YSaCyxUN1peo14zOHiwFaQe3ZlhoQk0wN/pp1laYLm1Ae7cXlg5Dh0c6ShTLC7T2vojCuPjFB/t3O6JiMjGyuUyDx48eBwmVq+FSKVSJJNJ/vGPf9DV1cWFCxf405/+xKlTp3btFtFf7cgEQKfZA7fv0du79qOzH09pgitXqlTLNfz9A/R4wd13hpOLY3yVmsGgSdPfw+me9Ucpnu7Xi/nhSRa+vcKlvAeaDbzHPmTgsBs4hnXoGmOXrnDwgJc242Cr/53YQXeIkwMLjF3/nJTLgCZ0WGdow4unrcy1q59y02XgajbxHO3nxAEvrLu8i7Ll4dpXKe75vfhDffQfucF316boPNdP/8xVvvq0iN9/gCMHO3Ettva598MBFr69xhdFF65mE3dXP2c0wyEi8kKsPgerXC6TSqVeyAjERl6zbdsul8tPPWNjK27evMn9+/eJx+OPvwGzXq9z9epV/vrXv5JOp/fw67QblKYuc+1hPxcGDrdmDBpFrv15mq5PzmE+9y0H6/T7a1YrUbxbozN8GC8NSpNfcLV2kqHTh/e6MhGRV9qTAWInr4FYz2ZZwdHIhN/vf/xQr6NHjz6+1/Xo0aMALC4u0tvb62QTz6daYOxKlgXvcQbO7OAJf7f63c88Bo1717n8XRPDgKa7iw/OKEiIiOylWq1GV1fXCx+B2IijkYnVoZUTJ05w7NgxpqenAejr6+P27dvcvHmToaGhZ977KiIiIvvbro5MnDhxgomJCer1+uOLQP75z39y8+ZNTp48qSAhIiLyK+doZGJVsVhkfHycSqUCgM/n49SpU+veriIiIiIvn82ywo6EibUbAnakLxEREdk/dm2a40kKESIiIq+eX++XVomIiMgLoTAhIiIijihMiIiIiCMKEyIiIuKIwoSIiIg4ojAhIiIijjy+NXT1OyJEREREtuM1e+PHboqIiIg8k6Y5RERExBGFCREREXFEYUJEREQcUZgQERERRxQmRERExBGFCREREXFEYUJEREQcUZgQERERR/4/+COxIDX0PoQAAAAASUVORK5CYII=;" vertex="1" parent="1">
          <mxGeometry x="1288.6" y="469" width="228.81" height="265" as="geometry" />
        </mxCell>
        <mxCell id="6JY9SX4Q12EulptZ4aJe-32" style="edgeStyle=orthogonalEdgeStyle;rounded=0;orthogonalLoop=1;jettySize=auto;html=1;dashed=1;endArrow=open;endFill=0;strokeWidth=2;" edge="1" parent="1" source="6JY9SX4Q12EulptZ4aJe-18" target="6JY9SX4Q12EulptZ4aJe-20">
          <mxGeometry relative="1" as="geometry" />
        </mxCell>
        <mxCell id="6JY9SX4Q12EulptZ4aJe-18" value="&lt;b&gt;&lt;font style=&quot;font-size: 16px;&quot;&gt;Azure App Services&lt;/font&gt;&lt;/b&gt;" style="sketch=0;aspect=fixed;html=1;points=[];align=center;image;fontSize=12;image=img/lib/mscae/App_Services.svg;imageBorder=none;perimeterSpacing=17;" vertex="1" parent="1">
          <mxGeometry x="810" y="545" width="75.5" height="75.5" as="geometry" />
        </mxCell>
        <mxCell id="6JY9SX4Q12EulptZ4aJe-25" style="edgeStyle=orthogonalEdgeStyle;rounded=0;orthogonalLoop=1;jettySize=auto;html=1;dashed=1;strokeWidth=2;endArrow=open;endFill=0;" edge="1" parent="1" source="6JY9SX4Q12EulptZ4aJe-19" target="6JY9SX4Q12EulptZ4aJe-18">
          <mxGeometry relative="1" as="geometry" />
        </mxCell>
        <mxCell id="6JY9SX4Q12EulptZ4aJe-19" value="Github Actions&#xa;Continuous Deployment&#xa;+ run unit tests" style="shape=image;verticalLabelPosition=bottom;labelBackgroundColor=default;verticalAlign=top;aspect=fixed;imageAspect=0;image=data:image/png,iVBORw0KGgoAAAANSUhEUgAAAUAAAAEmCAYAAAATPUntAAAABHNCSVQICAgIfAhkiAAAABl0RVh0U29mdHdhcmUAZ25vbWUtc2NyZWVuc2hvdO8Dvz4AAAAodEVYdENyZWF0aW9uIFRpbWUAbWFyLiAyMSBtYXJzIDIwMjMgMDk6NDQ6MjIEyUgMAAAgAElEQVR4nO2deXyU1dn3f5Ixk0DIEEhCCJMACYlhIJBgLCnLk1Y0KrgiRXFpcSv61FZ9rfV5u/j2VZ9+6tJXaGtdK1YFWkFUFCrR9DESMEgkkUASs5FlCJOFbAyQCRN4/zikhJDlPvd97rnPPXN9P598RLjPmSu5Mr85y7VcdObMmTMgCIIIQEYZbQBBEIRRkAASBBGwWIw2QE+6PEDRYaCoEahpA1qOA85O9jUYVguQHsv+nDgBiBwNZCWc+zuCIPyLi/zhDLCyoRUl1S6Ut49G3ZkE1HYAde2AxyvuNWLGAlMjALsNsKMOSeNOYlZiDOInjhP3IgRB+BTTCmBlQyteLYlEQf3QKzpf4IgG7r4MuHmWcTYQBKEO0wig+8RJfFFchwKnBV8fn45vW4He00ZbdY5wK9s2zws/hMXJFyMteRIsQUFGm0UQxDCYQgA3lwDP5rEzPLPgiAZ+sxjIjDfaEoIghkJKAfT29qLgQAM+PDwVH5WJPcvzNemxQHZYARbMnorUxBijzSEIoh/SCWCXB/jZViCvxmhLxLM8FXhuidFWEATRh1QCWFjmxD077OjyGG2JfmTGA89c3kG3xwQhAYYLoLe3F1t3luHLE7NMv91VSkQocOsc4PZLWjA5JspocwgiYDFcAH+2FfiozEgLjCNqDPDmCnZhQhCE7zFMALfta8Hvv4oyNIZPFjLjgYdn12PeTLoyJghfYogAPpULvFHo61dl9E93G0j1UeNCbawW4I/XA9lJxrw+QQQiPhXA+qYOPPHFOF1veMOtQHIUcEkUMLbpcyTFRSI6IgzxMeMUXzx0urvR3O5GU5sbhxrbcGT0XFQfBUqb9c86uW1KJZ5YNg3WYL9O0yYIKfCZAG4uAR7brt/8jmjgoYW+WUGtK2QrWL3E0G4D3lvhRvT4MH1egCAIAD4SwNzCKtybO12XuR3RwC+yWNUWX/PeAWBNvj5CeHs68HS2+HkJgjiHrgLYF+Ly+wOzhJ2tWS1A1jQga+IRLJ0TAVtYiJiJNbBrfy3+1TIVRY3Afpe4HOXsJODBOS7KICEIndBVANcVAk/mipvPbgP+cqXcgpBXw0J7RAZzb10u9/dMEGZFFwH09vbi7aIgPL8TONGjbS6rhYWJrJhcjiXzU8QYqDOeHi/e29uC9RWTUNqsfb7ECcAL3ycRJAjR6CKAWz4/gEf3aC+Q54gGNt7GbnbNyrN5wEsFYuailSBBiEW4AOYWVuF/F0zXdOYXMxb40VxgpcMNW7j5b0Lzv6nFJ01T8f5BbSvixAnAhmV0O0wQohAqgCJCXcKtwOabW5EUFynGKIkQcRsebgU+/SGJIEGIQFhXuPqmDs3iFzUG2PkA/FL8AGBxxnS8soyda6qlywNsqyHxIwgRCBPAJ77QVt4pOwl4Z0mDqc/7lJCdBKy7rgOJE9TP8afdbFtNEIQ2hGyBteT2BnIO7NJ10HRLvHElldwnCC1oXgFu29eiSfz+8P2WgBQ/AHj1Gm3f+6pNwIEalziDCCLA0LwCXPSyulQwqwXYcifVwgO0XR5lJwGvLBNrD0EECqpXgN7eXqzeol78/vD9FhK/syxPBR5Nq1c1Nrca2FAs2CCCCBBUC+DWnWXIqVQ39o/XA0vnUin4/jx4VTyWp/KP6z0N/GoHaxRPEAQfqgMyvjyhLtMjO0n8hUdeDVsF9dXrC7cCjonAvDhgWZJ5GhA9twQoqFe3qs49HImkOPE2EYQ/o+oMsLDMiTu227kbGEWNYaEuyQna36l5RTXYcCgBRY3DV3EOGgVcZgdumurCiu/Kn0a2s7wd922L4P7Z2m3Ax3d0S1EdhyDMArcAdnmARS/xVzsJt7IgZxFxfmvygbW7+Mc5ooGXlsi/IlR7KUJ9hwmCD64zQG9vr6pSTzFjWXqbCPF74t0qVeIHsC3yLe+Nw8sFcp+ZLU8FbpzJP25zCbDnoLrLFIIIRLgEsOBAg6p+Hj+aKya97alc4O1D2nJpXceAZ/KA7A2RUt+ePnJZh6pxm+soMpoglMIlgB8ensr9Ao5oVtVFK7mFVcI7yT3xKQsm3rW/VuzEAoifOA6vqsgbzqthTZ0IghgZLgHkbWButbB6fiJKWr1bL76nSO9pJhh3/HMq1uSzQqYycWUSf1+QluPA01/QRQhBKEGxAG4uAffNZGa8uGKmBTofba3dBTy7U75WlMtT2Q0vDzkVYkvyE4S/okgA3SdO4tk8/slXTC7nHzQIH5X55g39RiFwxetMDA+7WvR/QYUsj6/jer7LA/x6h07GEIQfoUgAvyiu467wbLdBWA8PX15WVB9lYTa3fhClexN0paz6j4ncYz4qYzUaCYIYGkUCWODk2xpaLax7myiKGoVNpRhnJyv08Pj6CsOFxBYWgv++in9c3j4VV/YEEUAoEsCvj/NdQGRNg9DmPbxnjyJ515mMrDfH4WPOCyDR3JbGfxa499RcfYwhCD9hRAGsbGjFt5wxw1kTj6i1RzOZ8cAfvtekqeLyYDz8Mev3uzGnGN0ejb0+VXJlVDXX83udOhlCEH7CiAL4akkkek/zTbp0ToRae4SwbN5EfHYvq5gs6ha69zQ7V/tlURru3xosZlJOLp8exPW86xhUV+whiEBgRAHkDT9xREOahPzMeOD5peLnzath5eyb27QHePOg5lhhD2XGEcSQDCuAlQ2t3Dehv8jSYo54rkwC9tznxp3TqjR1YxtIaTNww9/D8HIBcLTdN9fFtrAQ7pqBm0tg2JadIGRnWAEsqea7yXVEA1kJmuzRhejxYXhyxXR8di+Eng325RXf8p7NZyEzDy3ge77LA1Q62/QxhiBMzrACWN4+mmuyhxZqskV37DbgHzd34uGFQHqsuHmrj7IA6lWb9K/GYrcByZzFtMtrNbSeIwg/ZlgBrDujfDkXbjVHa8sJETY8tIA1ZHogU9y8Hi87G7z143jd84pncx4F1jTSCpAgBmNYAazliP/lXZXIwC+ygLevrsXliWLnXbsLWPkPC7Z8fgDe3l6xkwNI9BRwPV839nvCbSAIf2D4FWC78okuMaEAAsDCOVPx1+WskrLIS5KiRuDRPbPwv7bxha4oYVYC3xLQdUy4CQThFwwpgF0evgyMsU2fCzDHOJanAs/rUE7+ozJg9RaxxRwmjucrL8abx00QgcKQAlh0mG8iERWfjebaGUDeqg48nlzAnXY2HDmVwBWvAXurxVwVx0WHcz1PAkgQgzO0AHIWIIiO0F70VAbiJ47D/Tdl4r0VbmQKrC7fchz47RdiVDXEGsxlm8fL4hYJgjifIQWwhvPiMD5G7k5rvESPD8PGlWLzikubgV/nQMjFCK9NLb5NWiEIUzCkAPJum2RvNamWvrziuzPEzLe+CCiu0F4sImE83/NGlBQjCNkZUgB5MhtE3p7Kyv/+Xi9eX1yF29OB0RprIeRWnNJsjyNa8xQEEfAIEUCRWRWyYgkKwuKM6Xg6G/jb1U5NVWaKT0wTZ5hCDnf5/CUJQnq4usIRjIwZdmy7i79AaR8i8oYdnFXyZSnvTxAyQQKoErsN+OAWllccM5ZvrIiwFFF1DgkikCEB1EBfXvFb1/GVzDayxD9BEOcIgOsL/XCfOImP8r/Fm840rnFB9LFDEFJAAqiSLg+w+sNQFNTziR8ATOLcMg8GnekRhHaGFECrRflWrfqoKHPkp9PdjTe/aMIbFVNU5/eKCKzmFcBAuKknCF6GFMD0WOX9QAIl1/SNQmBtfgi6PFM0zZN2Oh+AtuqxvOIbLL4oDUGYHmFb4E53tzTNkPRg7S5gTb6YuUT0TC5tEmAIQQQ4Qx7H827Tmtv9M9n0k29asextceKXlQAsSNVeZYE3sFlkYQeC8BeGXAFG8rUDQVOb2y9KYvXR6e7G/R+FoKBe3PcUNQZ48wcAoL2vMO8KkDdwmiACgSFXgLzd3Q75Sd+J+qYOrPu4EDdsCOHuiTwcVgvw5CK+eMGhcJ84yVXeanQwBU4TxGAMewnCw5HRc7XaYjgflwE/3ToOgKDSL2dxRAPPLQUc0WJWk4eOdAIIVfz8eOWPEkRAMewlSMxY5f0kzBwKU1juxGulduRWi503agxw9yUNuCtrEqzB4kIuKxtaASi/SBHZC5kg/Ilh35VTI5QLoFkrDq/JB9busgufNyuh77wvTvjcVRfN4npeZHl/gvAnhk3K4nnjmDEz4alcFt4imsx4YO013eInPgvvz9rsDasIQi+GXQHaUQdAedDvukLgLrHHZ8I57GrB5uoofFQmftueHgv8eHYrrp4TCUC/mEje6s4i4g4Jwh8ZVgCTxp3kmuwNyQWwtBlY/UGU8NVq1BjgzRV9VZr1DQUqbeZfAc4iASSIQRl2C5yWxHcV7OwE3jugyR5dqGxoxWPbgaXrxG7VI0KBhxcC7y9v8VmJ+mfz+J632/y3XwtBaGXYFWBsVDgc0XwXHGvygZv5zuh1ZUMx8Ksd4ldldhuw/qaOs+ISJXz+wahv6kBeDZ+YybwiJwijGbEy3d2X8U3o7AR27a9VaY4YOrvcWPdxIVZtAp74VOzcdhvwxLzD+Oxur89XVrllfFUnrBbg2gT/TFEkCBGMGJx28yzgyc/4qo/8q2UqFmixSgNd3cBdH4ahqFHs0sdqAZ7OBpanAsBkoXMrJa+F73Ud0ay/MUEQg6MoOjdxAt/No5E9aPWKR3x+CXDtDH3mVkrRYb7nKf+XIIZHUXH2eeGHuCbd7wLyalTZMyhG5rGusFcgb1WH4eL32Hb+GoBzgyW8kSIIiVAkgIuTL+aatPc08LOtgKdHTPcfI0o52W3AzvuBZ25PNvwWtaTahc0l/OMWZ0wXbwxB+BGKBDAteRJ3mEeXB3hvb4samy7gNv62G6pJj2WhLR/c0ilNCtmmr/kvMh7IhF8XqCUIESgSQEtQEH6zmH/y9RWT+AcNQlaCb/JZH8gEttwJPLSAtbyUgS4P8G4D30rObgN+kaWTQQThRyhu0JgZz18iq7SZP3B3KK6ZKPBQcQDZScCm653SiUZzmxurt/D1EQ4aBTy3RD+bCMKf4OpQmx1WwP0CLxUA+d/Uco8byL1Z4lMtwq3AK8vYV8YM8RVhtHLXh2HcRVkvs1P5e4JQCpcALpg9VdWLfNKkblx/oseHCV/ZPL+Urf5kJP+bWlUhPSR+BKEcLgFMTYw5GwjMx/sHgdzCKv6BA1ieCtyXrG0rnDgB+F16Mfbc58aVkoqfp8eLF0unco+zWoDrpvlHawKC8AUXnTlz5gzvoJUblfcM7s8ry8SsuHIqz4bZcEbZZCcBf7zWK7Q6sx48th2qwl4eWsBusAmCUIYqAaxv6sCN/xiHdr5qWbBagHXXdeC7ydrj6sprm7GpOhoF9cC3rSz2cDAiQtm52Ir4KlPExW3YdQS/yue/PU+NAbb+SAeDCMKPUSWAALvdfYn/TgSJE4DP7lXzikNT39SBLZXjUNbMwkasFiBtEksFy5oi/4qvD2cncMXr/CtbgG3rV2b7MGCSIPwA1QJ42NWCmzZHoYWvQAkAlqT/6jUtmBzjmzJSZmBvdSd+8k+bqp9nZjywblkPQqza+w0TRCChWgABFue3dJ26sdlJ7EyQYCx6WV2x1qgxwFcPireHIAIBrlvggTii1Ydd5FSqO+j3Rx7brr5SdXayWFsIIpDQJIAA8PDselhVHrE9th348w4V18l+wt7qTix6Wf0Hgd0GPDBbTL41QQQimrbAfeRUAqu3qB+/PDXw0recncCyt6HqzA9gWSw7HzC2VBhBmB3NK0CAnefdNqVS9fjNJewMbGd5uwhzpGfDriO44nX14jclAvhoZQeJH0FoRMgKEGDZC1e8YdHUde38svP+h6fHi19/ZtF89vnionIsmZ8ixiiCCGCECSDAqpf8sTAM64u0zXPjTOCRyzoML0QqkvxvavFi6VRVGTR9jA4Gfr6IOr0RhCiECmAfq7ewc0GtvLoM0ubrKqW5zY27PgwT0qvkgUyq80cQIhFyBjiQB+e4hMzz063mDpXp8gAP7RAjfuFWYFUqtbgkCJHosgIEWB+LR/4nBtVHtc9ltwG3TKvHnQuiTVHmvaTahU1fu/Fuw3RVaW0DybADL17jphaXBCEY3QQQYEJw/eYYoXP+91W+7RHCi9pKLkMRbgU+/SGJH0Hoga4CCIhdCfZhtwFXRlXj8ulBSE2MMXRVWN/Ugdyy48hrmYyiw/ytK4didDDwo7ls20viRxD6oLsAAuwi4Mq3woSJw0CWp7JaeL7s4tbX70Rk/+P+PLGYbnsJQm98IoAAE8FtNWH4025w1xFUSnIUMDsGSPQUYFZCDCaOD0NcdLimKinuEydx6EgnKhtaUXXRLDg7gaJG9bm7IzElAvjFLIrzIwhf4DMB7CP/m1rc+clUX74kMuNZHcKE8fh3f2PHxPPTyJyd7KvLA5Q2AYe72H9F3OAqJdzKMjz8Kf6RIGTG5wIIsHL6qzapK/zpr9htwLa75MjtLahnX30FZosaB/eVIxqICmPFZ+021jY1cYLv7Q1EyEdiMEQAAeBAjQt/Ko5BbvXQ5ewDgagxrKTVA7N9XyC2uc2NgoP1KD/tQGkzUH1U+9Y+3MqOIi6JAmaiGBkz7EiKixRjcABCPtIXwwSwjw3FwK92GGmBcWTGAxtX+v51nZ3AU7lisnWUEG5lzZroUkc55CPfYLgAAkBlQytyD0difbF+lwsykRoDrJxUjJuyHD4rY19S7cL7xcfxaUuiYT/jcCtwTQpwZWQVFqTGUwn/AZCPfI8UAthHp7sbT38RYur0t+GwWoD75/m+daXo4GwRpMcCb66Q48xTBshHxiCVAPax52A9NtfFI69Gfc08WQgaxdpyZsazpuUJseN98rqd7m68/rkLb1VN1S3+UitWC3uT3TPrKK5IDbyTefKR8UgpgH30rQhzKsRlWPgSu41VulbbN0UtbxQCa/PN9TMzS9N6UZCP5EBqAeyjywP8egfwUZnRlijHqNJV6wqBJ3N9/7oiCJTWCOQjeTCFAPZR39SBvH012HtqLvY6Adcxoy1iWC0s3soxEZgbfACLM6b7PD+5pr4Ra4pjsf1bc4cVpccCv7zMiYwUu9GmCId8JB+mEsCB5FQCe+rZ4bERWwm7jYUNXJtgbMGCLg/rz+wvN+hWC7DlznNZO/4A+UhOTC2AfXR7elDpbEN5bTO+8swWeps2OhgYH8qi5+02YGzT50hNjMGsxBgpUtY++aYVT+yMNP1l0UCsFiBrGvDkojZMjPLNxZFekI/kxS8EsD8F9cDKjXxj0mPP3XYFB7G/y4y/MF9YNkqbWWtNvVMK7bYLK+20HIfQEmdDkZ0EvLJM/9fRC/KR3JAAAnh9cRUWZ0zXxyAdcJ84iRe+DMX6YnFvrL5zTLsNcPSeq6YzUopUc5sbFQ2taG53o7x9NCq8CdjrBE70iLELYG8ws60yyEfmwH/uszVQUu0ylQC+sz8UbxSKmctqAa6bAfz00v5VaDIVj48eH3bB+WenuxvrikOwrlDM2SxLBxtvqlUG+cgc6NIUyWy0Rvg4NUMDXR4Ie2OFW4FXbmJhDSLPM21hIXh4IbD55lZhMZB5h3xbmkwL5CPzQFtgsCKkn/9YH3tEUud04Z5PtLcXSI8Fbp3uwg2XRvokqLW+qQPv7G7DWzUJmraDVgvwzlK5wy/IR/L7qD8kgGfZuNL3GRu8aM0XjRrDcjuNCl3o8gCr3mW169SSHsvCL2SFfCS/j/pDW+CzPJXLwmlk5b0DwPsH1Y0NGsUi+Dfd6DI0bivcCrx2bSceXsjCi9RQ1MhExtMjXzVd8hFDZh8NhATwLKXNwL++1qnDkUYqG1rx823qswd+voidIU2xi21RqoYJETY8tAB4bl656jk2lwA/+1iu+zvy0fnI6KPBIAHsx4cuORsR/eUbddV6I0JZd7l7L+sVbJF2lsxPwabrnchOUjc+p5IFGMsC+ehCZPPRYJAA9iOnUr5bLGcn8IHKbdVjKcW4KwOwBAWJNUoQGTPseGUZVL/B/lYqRxl38tHQyOKjoSABHMBTklXpeGy7unGOaGDZ92aJNUYn7pvhVDWuqFGOclLko6GRxUdDQQI4gIJ6YPUWFslvNGt3MXt4CBrFSnFtud08ddsyZtjx4qJy7kN3jxdYucHYyyvy0fDI4KPhIAEchJxKYFNpqKE21Dd1YE0+/7jFiawOoVneWH0smZ+CH3+Hf1xpM7CrhFOBBEE+UoaRPhoJEsAheKkAKCxTt+wXwY4Dbu4x4VbgkbmSHWJycIejE+mx/OM+bTUmjZF8pByjfDQSJIBD0HIc+MFWO0qqXYa8/r+a+SPpn1sKpEw1b4G2CRE2vLmCZRPw8E/10RqaIB8pxygfjQQJ4Ag88j8xPhfByoZW7kj8rAT1N3Wi6fb0oKTahe27y7F9dznyv6lVfKYabgV+mMAXj9nlYWXmfQn5SH4fKcFchxAGUH0UuH5zDLYudyE10TdBqq+WRHLnY66YXA7A+DjGLg+wckMwSptjAJz7edm/ZDXjlGQ53DF/PF6r4HvdNfm+bepNPpLfR0qgFaBC/usL30Xo53D+YgHAgtlThdvBS3ObG0vXDR5L6exkt4FKVtPxE8dx52V3ediqzFeQj+T3kRJIABVS2gx8588s7OFou36NHQrLndxxU08shs+bMA2kuc2Nn/wzbNieF10e4P/sjlGUI/rkwlbuaty+urQiHzFk9pFSSAA5aDnOlvG3vGfTLbizpIrvvDFqjPHbitJm4Mq3wlCo4He7qBH46NuRT16S4iK5v6+DSOMboBLyEUNmHymFBFAF1UfZavDx9RXCL0iqg/l+oxZMFfry3Gzb14Jlb/NF+6/dpey5u9K6uQJvv21R/qwWyEfnkNVHSiEBVInHC7zrTMb1m2Oweou4dB/eQpqzYdzVWmkz8Oj/RHFfBihtDWkLC8FlHJEmFb4SQPLRv5HVR0ohARRATiUwZw1wxevAr/5eiS2fH1B92Mv7CZkxw5jKu32rCjXVg6PGKH822aI83KLL45suaOSj85HRR0qhMBiBVB8Fqo8mYUMdgD3s77KTgBnRyltstnOmIPsqNKc/alcVfVw3Q/mzKREnuObOO8R6OOsJ+eh8ZPSRUgJeAB9aAHyqYxmsnMq+jlniMaJycHObGys3hGnqG8FzcB4dETbyQ/14Kleuij7kowvp6uY0RkcCXgAB4IWsBjySFyddLcCR4InDKixzIqe8BxVe1vQm3Mo+ha+f0qw4NasvjELLeecKewXstmTFzyeP0PNWdshHF1J8hNci/SABBJCcEIdtCawMll6rNT2Yp/DNta4QeDJ3kHOoSuCNwmhsuXPklUppM7Byg7Y3liMaePIHCVxjBvazNRvkowtp4a8hoRt0CdKPP1x9Eg8vBOw2oy1RhpIzxbwa4PmdQ/+7xwsse5sdmA+FmjCKgVxzifr6d7KcF6mBfHQhMu20SAD7ETY6FA8tAHbeL0/S+nCMtL3y9HixahNwYoRalB4vOzAf7BdT62E6wFYVLyxRX/yT50ZSNshHckMCOARrl/bgd+nFSI4y2hL1FBxUXoSyb5XxVO65athawigA1lbxicXmqnzsa8hHxhJ437FCQqzBWJmdhmU9Xjy704I3JCzlMxKNLV1cz3u8OPt9huLmVO2rip8v6rtNpF+zoSAfGQutAEfAGmzBbxYDzy812pIL0SsfeX0xqwqidUt122z5G2PrDflIbkgAFXLzLKD4J914cVE5bpmj7HBbb0qbhv/3hMnjVc3r8Rp3mD4YStOyZIR8JDckgBzYwkKwZH4Kfn818M3DbFVopBCO9EuXlhTrc/u0HqYPhlnfXAD5aDB46wjqCQmgBm6exYTwox+48MTMQjyQCVyeyMJognzwkx0poNQabMFfr3L67IZO9KoCkK+AJi/kowuRYffUR2CefApmVkIMZiWcn+/p6fGiyGVBaTNL/SlrVrZl4ekxm6cgBz1jhh2/bS/HT3bqW4pdj1UFADS1uQEozzSw2/SP4yQfnQ+vj2ZI1BOKBFAnrMEWZMbzL/dnvjByTFgfzk6W+jRSJP6S+Sl4EeX47b4UtBzns2ckRgezm8TbZusTRnGgxgVgquLnn1ui/xaLfHQ+vD6iLTAxJJPG8j1fWK6sxPiS+Sn47VzxvQn7wij0iiErDcrket4Xby7y0fnI6COlkABKBu9ZUH1Th+Jnl8xPwfJUToOGwRdhFDyH675KYSQfnY+MPlIKCaBkJAVVcT1fdIbv0/e5JcCLi8o1H7rrcZg+kPqmDq68UV/lDJOPziGrj5RCAigZM8bxlcrIO8T/Glq3Wnodpg/kT1+P4wr09VXtPfLROWT1kVJIACWDt3y6xwv8Oof/dZbMT1G1yvDFqgJgt6cflfGNSRlVqo8xAyAfMWT2kVJIACUjKS6S+5xkfRHfOVMfvKuM5anAX27U7zC9D0+PFz/byp/mlTnTN6fr5CP5faQUEkAJeTyLf8zGgnZVr6VklRE1hp1JPbdE1Utw8+HXrdxpXtlJvi2eSj6S30dKIAGUkGtn8N80bjg0TfXrLZmfgvU3tA66qgm3An9Z7MSS+foG6fbn71X8TYR+s1gHQ4aBfCS/j5RAgdCSkh7LV56/ywOsyQceXqju9ZLiIrHzfvaaXxxiZcv/YxpwezoA+K6tY2kzUNTIN8YX2R+DQT5SjlE+GgkSQElZPMmFnEq+T9m1u4BLI9uxKCVC9etmJxlXDbvO6cKqD/hXFldGVQNIFG/QCJCPlGOUj0aCtsCScsOl6rqh/f5L9W8so/nz/hhVaWA3pRlTj518pByjfDQSJICSYg224PmlgJVzjV7azLrbNbdJ1HprBLy9vXi5AHj/IP/Y5anGNB4HyEdKMdJHI0ECKDE3zwLun8c/LqcSuPKtMNO8wd4uCsIzeUDvab5x4Vb47NZzKMhHwyODj4aDBHJ2otYAABpsSURBVFByHviOV1Vjpi4P8JN/yv0G8/R4sTGnGC8VqBv/w+m1Qu1RC/loaGTx0VCQAEqONdiCVfZiVWMLnfKuMjw9Xixbb8Evi9JUnSmFW4F7vyfHtop8NDgy+WgoSABNwJL5Kaqr6HZ5gN98LlfwKQCs/dKiqUH2QwtZiwJZIB9diGw+GgwSQBNgCwvBX69yqn6D5VQCS9cBO8vVZSKIpLy2Gau3AK9+pW580CjWx/buDLF2aYV8dA5ZfTQYJIAmIWOGHXdfpn58aTPwww8jsCZfnE285FQCt3wQjZxK/sP0PpZc0tfHVj7IRwyZfTQQEkATcU/6Sc0BsGt3AXPWAM98eEhVcj4vne5ubN9djlWbWOiHllaOdhvwcBpnCoKPIR/J76P+XHTmzJkzRhshkoJ6YOVG5c8/tEB9apJRLF0HTWcz/bk9HXg6W8xcA1lXCDyZK2auqDHAZ/fJ1VFsOMhH5oBS4UzIC1kNuGN7nJDmOeuLgM0lQNY0IP2iAsRPHIeMFLuqqh0l1S4UljmxHxnYVQthzX2sFuDJRa0It6rLvDAC8pE5oBWgCVeAANumrNwgbpUxELsNyEoA0iaxPzsmnv/JXtTI3jx76tnPXC87rBZgy53yVRJWAvlIfkgATSqAAHuDXfGauE9xGbk7Q84ySkohH8kNXYKYmHAr8M6SBlN+8o5E1Bj2wfTId08abYomyEdyQ2eAJic5IQ7bEtjtHU9tOplJnMC2VGw7F2q0OZohH8kLrQD9hD9cfRIPLzTXDdxAgkaxyiF/vdpl6u9jKMhH8kErQD8hbHQoHloALBjvxD077JpiuYzimWtYdRVA7vxRtZCP5INWgH5Gxgw7vri3G79LL1ZVocQIbpwJ5NzWevaN5f+Qj+SBboFNfAs8Ep4eL176yoKX9/C3L/QFmfGsVpyMvSJ8BfnIWGgL7MdYgy14eCEQNw74+TajrTmfhxeyD59Ah3xkLCSAAcDNs4Brk7348OtW5B6J+XeArC+xWligbHZMA5bMHov4ieN8a4DkkI+MgQQwQLAGW7DiuzFYcfb/Py4DnskDnJ36vm64FchOBn6c2oqkuEgAcfq+oIkhH/keEsAA5doZ7KuyoRWFZU6UdYShsnc6Wo4DR44BJ3r454wIBS6JYjFiiT2FSJ0eg4yUvn615soRlQHykf6QAAY4SXGRZz/1z6e0Gag+yr6OeS7MI7XbgMnh5xpeZ8YPnMEkBeFMAPlIP0gAiUFxRJszuT2QIB9ph+IACYIIWEgACYIIWEgACYIIWEgACYIIWEgACYIIWEgACYIIWEgACYIIWEgACYIIWEgACYIIWEgACYIIWCgVjhgU7XmmhN4cOQa0uFnZrG4v+//+jAsFIkJYAYRxoUDCeGPslBkSwADHd5VGCLXUNbaitNqJ1lNh8IydjmMeoLMb6Onln2tMMDAxjLW0hKsQSVNi4EgMXB9RSXw/Lok/HMbVmiOUst8F7KgA2nVuuxtiARwTgcvGt2JKbGD5KOBXgK0njLbAN3h6jKk23OUBNpcAH5VFIj0WuDzaiatmhQVEtWFeek55sefbVtSdikFDJzt68AXdXmDfYWD/kUjEHwbso5xImxKGmEj/95HfrQC7PMCcNcqfz4wHNq7Uzx4ZeO8A9ZuQnX2N7INCJhZPBxYnGm2FvvjdLTBvs+bSJn3skAFPjxdr8oFf7TDakgtZk8+OKvTegstOzykvcquADw4abcmF5FYBr+/VfwtuJH63AgSA7/yZb4tXeP8JTLCN1s8gH9Pp7sb23eV405mGihajrRmZG2cC/zknsM4I3Se6sfPrclSMSkOT22hrRiYtFpg3wf/OCP1SAJeuuzBsYzg2Xe9Exgz/uAkrLHPinh12dPno/Egkzy+F3zXeHoyDVU68V2dHt4R9gEdieSowN9ZoK8Thd1tggL+Jc0m1Sx9DfIj7xEms3QXTih8APP5P4LHtQJ3T/P4YjOMnTiK3GqYVPwDYcgDYfABwNvqHj/xSABMn8D1fHWz+5jCPfhKKNfkwrfgBQO9pdhFwzycxpv4+huL9b0ORWwXTih8AnD7Dbow31cSY+vvowy8FMM5TzPV80WGdDPEBFTUNWLoOyKk02hJxVB8FrngNeLmArWzNTk1tA/60m+9YRnZajgMv5AN5h9jK1qz4pQDOSozher602Zy3kV0e4I7tcX71xuqj5TgL1H7hy1CjTdFEtxf4R23cBWlq/sAxDwvU/rzevD7yy0BoNUG2OZXA3SbaCXd5gJUb9AtottuArAQgbRL7s2Pi+SFGBfXMhj317M96ifD6YuDmVHO2f+z2Aq99pV9Ac0QokBwJxNlYrm9sOMvq6KOmjdlwqI39WS8R3tMAzJ0MTBqrz/x64pe3wACwahOQV6P8+XAr8MXdbtjCw/QzShAVNQ24Y3ucMPGzWoCsaUD6RQWInzgOGSl2RI/n/zmUVLtQWObEfmRgV604cbZagDVXtOLqOeYJwaipbcA/auOEiZ9lFBM7a3MBJkWNgyPRjvE2fh9V1rlQWu2EJyrj34UuRNl3w7RWXDrdPD4C/FgAcyqB1Vv4xvwuvRgrs9P0MUggvGE+w3F7OvB0tpi5BrKuEHgyV8xcUWOAz+7jD3Q3ij/tFrfimhcH3OAQM9dAdtcBH5eLmWusFXhk4fmrUNnxWwEEgGVvA0WNyp/PTgJeWaafPVpxnziJRz8J1XzhEW4Fbpt2CCszI3TPye10d2PX/lq8eziFa0U+GHYb8LcljUiIlzcQ7fiJk3j/21DNH1AhFmCG9RAWpUTonpPrPtGN4vJaVJ1JQUWrtrkiQoEV0xoxJU5eH/XHrwWwtJmtlnjYdpe8501rd7EUMi0YWf0mpxJ4bJu2UJ3rZgB/vF6cTaLJrWYpZFpYnMjycI2gtJmFImkJcZk9Cbh1tjib9MQvb4H7cEQDyVF8Y1ZvAeqbOvQxSAOFZU68sVf9eEc08NYN7YaW/spOAv5xYzOyk4Aglb95279lW2sZOVjlxK5a9eMnjQVuT2k3TPwA9ntyZ0ozHNHAqIvUzXHAxbbWZsCvV4CAulWT3QZ8drcX1mA5DjM63d34j9dDVK+cZNzaP5sHvFSgfvxvFst1a+8+0Y3/92WI6pWTIxq4I12sTVrZUcHi/NSyNAVYMEWcPXrg1ytAAEi6iP+E19kJ5O+vFW+MSrbvLlctfuFW4KnvyZdt/9B3vZqOGtbmsw8GWdj5dblq8QuxAEsS5PPR96d5NYW25FaxDwaZ8XsBvPzSBFVvtBfLpsPTY3yuj6fHized6m6mM+zApz90qwpp0RtrsAVbbvfid+nFiFARR9vlAV7/XI581J5TXlSMUuejqRHAgxluVSEtehN8sQWrL/Ni0ehijAnmH9/tBXKK5fDRUPi9AIZYg1Vt/4oagZ99bPwW+KWvLKpKWoVbgRevkVP8+rAGW7AyOw0/na9u/FtVU4Xao5addRZVJa1CLMDyS+QUvz6CL7bgmkVp+H6CuvEHTk4Vao9o/F4AAXaml53EPy6nEngt1yneIIW8dwB4eQ//uOwkeVd+g3Fnei8ez+K/GOnysOoxRrKvUd05mSNa3pXfYHzH3ourkvkvRrq9rHqMrASEAALAnYm1qsb9odhuSK6tp8eLn28DPJy7cEc0u/Awi/gBgCUoCPdnAjfN5B+7ucS4cmY9p7zYXAJ4T/ONmzSWXXiYRfwA5qOsaawwKi/7DrMMFBkJGAHMnBWH21Xcsnm8LKB62z7fllb+8Gt1Ean/9d12wZb4jgdnu1i7Rk7eL/ZRh6cB7PlWnY8un2xeH2WOd2GsimycvYeM8dFIBIwAWoKC8HQ2f61AgIngo/8T5dOVYO4Rvoo2AAtyXpQSoYM1vmGKPQZvruAf92mLMZ176k7x+2hxIjBzinl9ZI+NwapL+ccdHiVnd6WAEcA+rpuhbpzHy6qv+EoEeVL4AHbp4Q/9jR3RQDrnNsvZaUw5swbO1wyxGJfhIZJJY4E4zuy89pNyNlcKOAG8w9GpOv6sy8NS69Zu1zfM/eMy/koqt03TELEqGbdO5z8vekpQ0QWl7HfxV1KZYfUfH80aw++jbYKKLogk4ARwQoQNG2/Tlu+7pmQKVm7ULxD3mTz+MSszzbutGsgNl0ZyV33JqQSa23wXTLyjgn+MmY8nBjLvkkjuqi+lzUBbp1wB3wEngADbLq67wa1JBAvqgds2hWDL5wfQ7ekRZltlQyv3du72dHVFYGXFGmzBH69ndQB5KDhYr49BA6hrbOXezs2Lg+5VXXxJ8MUW3DqH1QHkoaTCNz5SSkAKIMDCRP5vprYYv9Jm4NE9s3D/VhVh8kNQWMZnk9WiXz0/I8lK4D+vLT+tU9G8AZRW8/nIMkq/en5GkhzJKr/w0G2T6wcRsAIIABkz7HhxUbmq0Iv+5NUAc9awSjLbd2s76Cjr4IsNy5qm6eWk5qeXdnCtAn11QdV6is9HyeYqkszFwpgOrlWgbL1RAloAAWDJ/BQ8MFV7faUuDzuH+snOFCx6WX2XtspevmvC9Is0lFSRnPiJ47iOKaqP6mdLfzxj+XxkbfZfH8VEjsOkcOXP69XDRi0BL4AAcFt2mtAiqM5OthpcvYU/nIX3F8Sfzv4Gg6fJva9CYXhvfydF+bePeIpZyBYKY3y2vwT0VSZ5YlMN3nUmC5s3p5J9JU5gb+RkSw2mjelCytRoTLCNHlS8eLcIGSl2QdbKiaO3AB8hU/HzBfVAZryOBgHo5Lz8dyT6t4+CjhQAHD6qaQMSxutnDw8kgGexBlvwzO3JOL2d5ZeKpPoo+8rD2ZIaRef+zW47f5VzguNC2W5Tn/Nb0Qp81cCS1UMswHfixJ1VVda58M2xGHSc/bSfFgGkR6lL/J+VEANwhJxoFcCeU144j1nQchxwD1jpuXvYCr2nV/l8EaHmyvlVw/T4GBRxXO4eIgGUl+eWAD+8xIVf5cegxAf521qyGLI4SxR5e3uxLa8IjWMy0DCg6n9pM4vujz1eiKVZ6bAEBXHbU9fQiC/bY1HaFHNegYCaNmBXXRjmxQEL7ScxZrTyPdNEToEvU3kRUlnnQunxGBxosuC4uKgmv74A6YNX4GW6CKEzwEFITYzB2zd3S9scqY80zhCET3eXYM+pC8Wvj4YOYM+pDHy6W90SeGdrLPYfGbw6SreXlY3Kd/JVP02K41MQNZWzK+tcWFcegz0NECp+AGta7u9MieXzkZaGS6IhARwCW1gItt0F/DLDKW0vWp4LAgCoClJWtVjpc/3Z7wLKFRTM2dPAnw3A830WqIiz3dnCX9RAKeNUVLs2IzwXITVt+tnBCwngCNy32I6dD/An6PsCx0Tlzx45pnzrwfNsHzsqgNMK2mt1e4GiFr4tE6/Q89B+EqjSMXwmliNExMyoaWsgAySACgi3Ai8vdet+u8gLz8qU91OX93me8IZDEpXD0/s8ijdflvAtJIAKiR4fho0rga3LXbhlDn+eqtF0n9Lv+Z5TEh3qcHKky2gLCCMhAeQkNTEGv78a+OpB/ltYI5nGGXbA83zwxRaulY5M52I8WQyE/0ECqJJwK/DmD9iK8L7kGjiifb8q5Dnwt4/1whai7FlbCHueB6UfBpZRwJyxfPFFeqZPxYd167pNlenAX094s2NkwWQbOflITYxB6tlq310e4OUC4CUfpX7yhHwEX2xBhp01qx6JDDt7noesaaz5zUhi5ZgIJE3hu3XlyfHlDV0KGx2COZPY7bQeyBTyoSc8H1Jamq2LhlaAAgm3Ar/IAsof8eLv19bj8eQCLE9lb0qtFWcGYw9nyEfmpJNYMGXog/kQC7BgCntODUundQ75fY66iP0cvhvBlxzNW+Q0SkXSxfzoNt1iPg8FwAqQN6xJTVMlvaAVoA5Ygy2YNzMe82aef23c3OZG8dEwFDeyIgld3dpKOPHGvI0ZHYqlKcDSFODD0vNXPfPi+tesU3dIlzzZhuTJLOA5r+bc6iciFLgqGZgdAwB88UQVDa0AlKsab3A4AERFjscdkexG+O/fiN1yB8IWuK6Rz0cyBYeTAPqQ6PFhyB4/fJP2ac8on0+LeN7g0K9IZ9Y0cXUKm9v5VhfhCs85B2PSWOAn81gusPf04NWOE8YDv9yhfE6Z0r70gncFGHKxToaogARQMiJC+WLqSqpdSE3UL5PBaMrbR3M9r1V4gy+2jJioPyaYL2Wuss7Ffe5pJlp7+HwkU340nQFKxiVRfM/zltA3GxVe5bFG4VZ1fZ95mch5zshbQt9snByj3EchFn3Ow9VCAigZvG/g/cjQxxAJ6HR3Yy+HdiRzfniohfcN7InyXx+5T3SjliOzJ0aiG2CABFA6Env4yvPvqtXHDhlYVxzCVR+Rd/WsGhefj3xVqt8I9jSGcNVH5F096w0JoGSkTuc7K2o5DqzT3tJEOiobWrm/r5ko1seYAfCe5x3zALvrdDLGQOoaW7GL8/sKPuobHymFBFAyMlLs3OW3nszVr0m7UTyRH8ld2y9jhm9KzzsS7dzZIx+Xs+2iP/Hp4UjuQG/Z2gOQAEpItoq2JLv21wq3wyjqmzq4YxzDrfzFU7XAU4qsj+LyWuF2GIWrtYM7xjHEwl88VW9IACXkx6mt3HnF7x5O0ccYA3hnN3/08MMLdTBkGC4b38rVDxcAqs74j4/ySvl9dAVfN1GfQAIoIUlxkdypWXk16nsRy0SXB3irhq/MTrgVuMvHF61TYiO5K8lUtPquebuedHuBgx4+H4VYgPlTdDJIAySAknJNLH/s2GPbgPJa877DjrZ3YtW7gIfzXOkagxZW0yz8PtpcAhw6bF4ftXV0Yt3Xg/d9GY5USePASQAl5apZ/PECXR7ghX2Sd3IahndKbdyN5AHgykgFJW50IG0Kv4+6vcCuZvP6qOiobcimWsMx+bQxPhoJEkBJiZ84TtW5Vm418Gwe4OkxVx2m7bvL8epX/OMc0cCCVGN6FcREjsNiFeda5S2sh4rZKmnn7yvHzkP84yaNBeYkS9ZP4iwXnTlzRkErG8IoVm5U1+nMEQ1sud0La7D86d6FZU78YCt/eITVwipzG9217/W96qq+TBoLrL7My1170QgOVjmxvprfR5ZRwC+/L29vFFoBSs5zS9SNK20Gtnx+QKwxOvFambrYsPRY48UPAG6epW7ckWNAboE5fFR0TJ2P4sfJK34ACaD02G3AjTPVjX2uPA3rCgFvL0eukg8pLHNi9Rb1t9c/crSKNUglEaFAmsq2qfu8adhdJ6+PDlY58U6R+tvr9Ag5fDQUJIAm4D/nqPslaj/JskRe3xsk2CLtbN9djh9stasWv+wk4Oo58gTVzpugzkfHe1iWyK56+XyUv68c66vtqsXPEQ1cOl0eHw0GnQGahPcOAI//E+jlDD8AgKBRwE0zgQdnuzDFbmw8wtH2TrxTasOrX4Gr0EF/lqcCT18h3/nmvkZgywFlDeIHMuoitorMHO+CPdZYH7V1dKLoqA07D4Gr0EF/5k4Grr9E/vNNEkAT8dh2FkemlqgxwJsr+BsHiaLLA6x6F6pCXfpIjwW23CnOJtFsPsCaQ6llrBVYdalxjYO6vcC6r6Eq1KWPuHHAA/PE2aQnJIAmos7pwj2fxGgur5QeC9w63YUbLo30ySqqvqkD7+xuw1s1CdxBzv2xWoB3ljqRkSJXQn1/nI0ubKqJ0dxXJG4cMGuMC/MuifTJKsrV2oG80jYc9CRwBzn3xzIKuDXBKV3Rg6EgATQZXR7gitfENO4JtwJ/vF6/Bu+VDa14Ij9SVRjPQKwWtvIzavXKQ7cXeCFfTK/cEAtw6xz9ysjXNbbi08ORQpo3WUYBD2TK1fZyJOgSxGSEW4G7BeW9dnmA1e+zrXV9k4Y9zwA63d1Ykw8sf0+M+AGs14cZxA8Qm/fa7QXeKWJba1erOB+5T3Qjtwr4W5kY8QOYSJtJ/ABaAZoS94mTeOHLUKwv5s+bHQqrhQmM3QY4egswKyEGE8eHjVhiqrnNjYqGVjS3u1HePhoV3gTsdaq/4BiM7CTgyUVtmBg1QrciiTh+4iQ+rw/Fngb+vNmhsIwCJoWzsJugIwWYHh+D8bawEUtMtXW6UdfYirZON1p7RuPkmATUtqu/4BgMRzRwVVwboiLN4yOABNDUlDYDy94WJ4JDYbexr/60HPdNqffsJOCVZfq/jl4cOQa8VCBOBIciIpR99eeYR2yP46FwRAN3pOv/OnpAAmhyPvmmFU/sjPTJL7ovsVrYttdsK7/B+LqqFTnOSCFngjJhGcW2vWZc+fVBAugHdHmApesAZ6fRlojBTBceSun2An/azdfzWWbMeOExGHQJ4geEW4G/LWnEdTNY0LOZSY9loS7+JH4AuxhZMa0RsyexoGczEzeOhbqYXfwAWgH6HesKWfqbGVmeqr74g5nYXcfS38zI3MnAcpXFH2RE7jwVgpu7MoAzANbmg7urmpFkJ7H0tkD4lZw/hfkotwrcXdWMxBHN0tv8yUe0AvRTOt3deP1zF96qmiqtEFotbMv7I0erVIUNfIX7RDdyil04cHKqtEJoGcVKWqVHtEpf2EANJIABgNYcYj1wRAMbb5Ojnp8MaM0h1oNJY4H7viN3PT+tkAAGCCXVLrxffByftiQadlscbmUNjK6MrMKC1HiEWIONMURSKutc2HvoOA6PSjTstjjEwhoYTT5dhTnJ8bD6uY9IAAMQZyfwVK7v2miGW1nfXl+3rjQz7SeBbeW+a6MZYmF9e2VsXaknJIABTHObGwUH61F+2oHSZpbZoXV1GG4FkqOAS6KAmShGxgz7iOl0xNC0dbpRUlGPbpsDR46xzA6tq8MQCxAzFpgYBgQfLYYj0T5iOp2/QgJIXEBBPfsqa2Y3yUMVNHBEA1FhQNokIDyEZW4kTvCtrYFKTRtwqI2l2nV7h27KNGksqzEYZwNCLmaZG1FjfGurzJAAEgQRsJg8b4AgCEI9JIAEQQQsJIAEQQQsJIAEQQQsJIAEQQQsJIAEQQQsJIAEQQQsJIAEQQQsJIAEQQQsJIAEQQQs/x/jvPVQztnqzQAAAABJRU5ErkJggg==;fontStyle=1;fontSize=14;perimeterSpacing=10;" vertex="1" parent="1">
          <mxGeometry x="630" y="556.25" width="57.15" height="52.5" as="geometry" />
        </mxCell>
        <mxCell id="6JY9SX4Q12EulptZ4aJe-35" style="edgeStyle=orthogonalEdgeStyle;rounded=0;orthogonalLoop=1;jettySize=auto;html=1;entryX=-0.017;entryY=0.468;entryDx=0;entryDy=0;entryPerimeter=0;strokeWidth=2;endArrow=open;endFill=0;dashed=1;" edge="1" parent="1" source="6JY9SX4Q12EulptZ4aJe-20" target="23046e2b9bb16c14-64">
          <mxGeometry relative="1" as="geometry" />
        </mxCell>
        <mxCell id="6JY9SX4Q12EulptZ4aJe-20" value="Azure Bot" style="shape=image;verticalLabelPosition=bottom;labelBackgroundColor=default;verticalAlign=top;aspect=fixed;imageAspect=0;image=data:image/png,iVBORw0KGgoAAAANSUhEUgAAAHIAAABzCAYAAABEgVbYAAAABHNCSVQICAgIfAhkiAAAABl0RVh0U29mdHdhcmUAZ25vbWUtc2NyZWVuc2hvdO8Dvz4AAAAodEVYdENyZWF0aW9uIFRpbWUAbWFyLiAyMSBtYXJzIDIwMjMgMDk6NDc6MTdNO0CuAAANb0lEQVR4nO2deXRV1aGHv3PuPM9TQhAQhSLKICAKKCCIJQpUZL212i67bK3tc/ksTk/sKlT6fEVtq7WzHRBd7VutDwFt5EFxgJZqrU2KglSLBoTMuUluJpKQO7w/wpWc3ESme4Z7er8/90lyd+53zt7nt/c5ewuZTCZDkYJHVLsCRfJDUaROKIrUCUWROqEoUicUReqEokidUBSpE4oidUJRpE4oitQJRZE6oShSJxRF6oSiSJ1QFKkTiiJ1QlGkTjCqXQG5iHeneOjlJp6pSmAQ4LZZPtYuDOOx6vPcFfT2zE4qDT96o4Vv7mqivS8tORa0G/jvJRG+PNOHIKhUQZnQlcg91d18ZVsd7zef+MSfuyxq4eefKeGK0XaFaiY/uhBZ055kdUU9zx/oyDm2bJoPgBf/3pZz7PNTPXyvPEbYaZC9jnJT0CJ7kxke3RPn0d3N9CSl/8a4sIVv3DSatMMMgNh9goe3HKW6qU/yc06zyDcWhrhnbgCToXDb24IVueVAB/dub+BIW7+k3GEV+fqyMkpHOxniFqMA9ce6ePiFY3T3SvvPsT4Tv7iphGvHO+WuuiwUnMhD8T5u21LHHw8fzzl2y1VBrrsyTC+ffGVZMxn27mvhZ6825hwrn+DkB8tijPOb81ZnJSgYkZ19ab75chM/fL2FpPRiYtpoO/csL6PPfHZpyppMsXFnLa++1ykpNxsE7pkbYO21YeymwmhuNS8yk4FNlQke3NlAY1dKcizoMrJ2RRmusJ30CL9/Rp/R0cf6549S0yq92y1xGXlsaZTPTfWcx19XBk2LrKzt4fYtdVTV9UrKRRHuX1rKJRO8fHLQOHPMQPXhTja8WEPfkEt+VpmNjStLuCRizdOn5R9Niox3p3hgRwNP/y3B0MqVT/Hy2QVRegzyRAZbJs3OvzTz7OtxSbkowJdn+vj2kgh+u/biiqZEptLww9dbeOjl3FGZoXFCbiwnkvxkew1vfNgtKffZRP5rcYR/n+1H1FD3qRmRI43KWIwi624aPk7IjQD0JXpY99xR4p1JybFJ4YHRoTljtDE6pLrImvYkX/t9PVvezR2VueWqIEtmh+gR1B3oNgP/+GeCx16qJTXkrurfLnPzxA0xYi515x9UE9mbzPDI7mYe2xPPGZU51zghN7ZMmm1/auR/32qVlNtNAl9fEOK+eUEsRnXaW1VEPn+gg3tfauCjhHRUxms3sn7l+ccJuTH19PPk9lqqjkj7z3F+E4+Xx1g+yaV4nRQV+V5TH1/ZljsqI4pw56IYsy71nXZURiuIQFfzcdZtPkbiuLT/XHihg5+tiHFR0KJYfRQR2dmXZt2uJn70Ru6ozMKJLr50falscUJuLGSoPNDGD3bVkx70v5lEuGtOgPWLwjjM8vfxsorMZODpyjYe3NFIU7d0VGaU38y6lWWIbu2G7LPBlkrxP6818NLbCUl51GnkkU9HuGWaV9bJbNlE1rQnWf7sRzmjMhajyJobS7lwnDtvozJaQuw+wXdfrOFgXY+k/IoyG8+sGsWEkDw5WBaRTV0pZv/kQw4PmWJaNdPPinkR1eOE3BiA1objrHv+I8l0mc8m8v69FxNy5L8bkeUb/e07CYnE6WMcbLrjYpZcHdO9RIAU4InaeeqOiXx1YeTj8raeNL96K/dJhXwgS1Crqj3VnC6b62HR9ChJk7YyoRL0CgLXzgjiM8CGXQNzn+/H+07zW+eGLJdHKn2qtRZsaX7z/lH+0dxKUhujgYpgEeAqJ6z0DUxkZxn83eQTRS6T/gy81pBgf2sn80oCRF3OAkmL58YEK8x0DMhUCkXbu/iJFFuPNHGhs52rYkFcVuUCsxJEjTDbCQEVehFVOq4Pu/qoPlTLnJCLi0N+rAU6GJDFIcIsB4xT8bxU7Q4kA+xt7qSqtYuro37G+Dyamt87E0TgUhtMdaj/7oXan8/xVIYdtS2UtnYwJxYg6NDG/N7pGGOGWU5waSRNqS4yS21PP89VN3Cp18aMSBCb2aR2lYbFY4A5TohprHqaEZllf6KH99qPsSDq5QK/D5NG2luTANPsMNmGJu+4NScSBuLKH+oTeOOdLIj5iXpcqn55E6wwwwFWLRo8iSZFZkn0p9h6tJmLnB3MjgZw2ZSdKQkZB5pRNeLE2VIAVYRDXX0c+qCOKwNOJkcDmER544pVGLiRuaiAYm5BiMzyRksX7yS6WVTiJ+pxY8jzBF82TkyxD/SJhURBiQToTmV44VgL0eZ2ri0N4rHnJ66UmgbGRt0FOjZRcCKzNPQm+c2HDUzx2pgeCWAzn9uErccAsx0wqrBevsqhYEVmeTvRw4H2GuaHPYwP+jGcYVzRepw4WwpeJEAqA680tlPV2sWSUj8+1yfHlfEWuMKp7ThxtuhCZJa2/hS/PdLMWEc780uC2KzSuBIyDjSjYY2NyuQDXYnMcrj7BIcP1TEn6GRSKIDLZCi4OHG2yC5SzTHlP8e7OJg28LtL/ARUepRfKWQXKai0MpHVYcMXDmCymMnkvGWpP3TXtBrNJnzhADanctNhiZ40ew4PvAeixnsfoCORglHEE/Dh8roVbQU2VSa4u6KexMnnV58oj7J6bkCxz8+ikWnR80AQcPk8lI4ZjdvnUVzirZtrP5YIsO1g7nueSlDQV+TgflBp9tX1cuvm2pzyMT51hogKUqTBZMQfCSraDw5ldUX9sOUrJrkVrskABSVSEEXcAS8unwdRxScHjrT1s2eYlbeuGWtnxSXFm52REcDpceMO+jAa1Z+eONKW+x6ZxyLy/RtiKtRmAM2LtNis+CIBzBp6mNlrlZ5MHovI7tvHMrVEvXc9NSvSYDbhC/mxuxxqVyWHqSVWniiPsu1gB/PHOVg9J4jXpm4A0JxItfrBTZUJXjgZHZ6+edRpxayeG1AlL46EdkSq1A8metLcurmGbQdPrRDpqahn06pSxeqQDzQh0my14I8GVekHV1fUSyTC8DczWkdVkUaTEU/Ij92tzmt2myoTPFOVyCmfGrOpUJvzQxWRgiic7Ae9qubBh15uGrZcS33fmaK4SLvbiTfkx6jyq+j76npzVt4C+MJ0L2N8hfcIgWLfptlqwRcJYFH4afGRSPSmcsqmRK2qhvrzQX6RJgOBkE+1fnAkpsZseCzix+vCLv+Ui02rTh87tIosIkPOU3/2r2/3MGuRh9zzXzkGFqGQnkZem8i+r41nd3U3U2NWWUZl0hn45VutPPl6y8dlUZc8zbYsCya98kE3i351RFI2c5qbklkRBBWmnH4aTBM1KXul7anu5q7f1/NOg3Q5lr1fHcucC/I/ayPbEmbPViX4jxfr6Ri8pLUI5eUxDGUeRAVDv5Iij7X3c//2Rn73Truk3G0R+eXKUlZdKs80l6yLCjZ1pfjP/2vg2SrpIvNut4lFy2KkfE5FZvSVENmXzPD43jgPvxrneP+pk1cAvnC5l0evj8q6B5ciy3xW1vbwxc21Oc3MpAkOJsyLkLHLG8DlFrl5fwcP7Gikesi+IZdFLWy8uZTLS+UfYFBs4d1MBjb+rY0HdzbSPGTJz/nz/LgnBxFN8twIyCVypIWEww4DG66PcOvlyu1TqfhS2J19adb+oYkf/0W6CK/FKlK+rJRk2Iko5vdLz7fIjr4033qlmSf/3EJy0JJkRhHuvDLAtxaHcVmUvblSbXH6kc7mshILM6+LkXI78pY78yUyGyfW7mqmqUu6/PXVY+08taKEiWF1JsBV3y5i8/4O7tueu1D9zGluSmeGIQ8zIvkQ+ebR49y+tS6nn7/Aa+Lx8ig3TVbnoassqouEga0jNrzWzGN/jNM7aOsIwQBLl55/XDkfkdk48dz+dgZ/UzajwAPzQzxwTRCrBt4r0YTILB8l+rm7op6t70rnB91uE9fdGKXf50I4h9mScxE5UpwAWDnZzfdviDHKo4npXEBjIrPsqe7mti11fNAivZ2feKGdTy2InnVcOVuRO/7ZyR3b6nOW8p4QMvPUihKuGae954g0KRIgeXLDs/XDbHi2eH4Q+0Q/whkuc3amIt9r6mN1RQM7D3VJyj0WkfWLw9x5ZQCDRsfUNSsyS7x7YHRoU6V0dMhkMnDjZ0rOKK6cTuRIcUIAvjjDxyPXRwjKsKB8PtG8yCwjbQpaVmLhisVR+t3OEcP3SCIzGfj1vgT3bW/MiRPTS6xsvLmUKTFtzJ+ejoIRCae26V2zoyFnQ5gZl7kYNTsybFwZTuSbR49zV0UDfz0m3Z9DqQ1X8k1Bicwy0sbZggGWfzpKusyDOOhRksEiG7uSrNnRxDNVbZI4ofQWSPmmIEVmGWkre6/bxKJBceWnwTQ+QeDxvXE27I7TOeTmSY1NyfJNQYvMsvXdDu55qYEjQ+LCxPEOJl8TYVU6yZph4oSa2wTmG12IhIEA/+ieOI/sbs7ZWHQodpPAg/ND3H+1eht35hvdiMxS057k7op6Nh8Y/hVwrWylm290JzLL7upu1uxo5M2Td6Wzy2x8Z2mUuRrZ3Drf6FZklpr2JCYDRJz6ugKHonuR/yoUXmAqMixFkTqhKFInFEXqhKJInVAUqROKInVCUaROKIrUCUWROqEoUicUReqE/wcfAu/WrWuPXwAAAABJRU5ErkJggg==;fontStyle=1;fontSize=16;" vertex="1" parent="1">
          <mxGeometry x="1020" y="533.5" width="99.13" height="100" as="geometry" />
        </mxCell>
        <mxCell id="6JY9SX4Q12EulptZ4aJe-43" style="edgeStyle=orthogonalEdgeStyle;rounded=0;orthogonalLoop=1;jettySize=auto;html=1;strokeWidth=2;dashed=1;endArrow=open;endFill=0;" edge="1" parent="1" source="6JY9SX4Q12EulptZ4aJe-36">
          <mxGeometry relative="1" as="geometry">
            <mxPoint x="750" y="292" as="targetPoint" />
          </mxGeometry>
        </mxCell>
        <mxCell id="6JY9SX4Q12EulptZ4aJe-44" value="&lt;b&gt;&lt;font style=&quot;font-size: 13px;&quot;&gt;&quot;BookingRefused&quot; &amp;gt;= 3 times&lt;/font&gt;&lt;/b&gt;" style="edgeLabel;html=1;align=center;verticalAlign=middle;resizable=0;points=[];" vertex="1" connectable="0" parent="6JY9SX4Q12EulptZ4aJe-43">
          <mxGeometry x="0.0695" y="1" relative="1" as="geometry">
            <mxPoint x="10" y="-1" as="offset" />
          </mxGeometry>
        </mxCell>
        <mxCell id="6JY9SX4Q12EulptZ4aJe-36" value="&lt;b&gt;&lt;font style=&quot;font-size: 16px;&quot;&gt;Azure Application Insights&lt;/font&gt;&lt;/b&gt;" style="aspect=fixed;html=1;points=[];align=center;image;fontSize=12;image=img/lib/azure2/management_governance/Application_Insights.svg;perimeterSpacing=6;" vertex="1" parent="1">
          <mxGeometry x="1143" y="260" width="44" height="63" as="geometry" />
        </mxCell>
        <mxCell id="6JY9SX4Q12EulptZ4aJe-45" style="edgeStyle=orthogonalEdgeStyle;rounded=0;orthogonalLoop=1;jettySize=auto;html=1;entryX=1;entryY=0.5;entryDx=0;entryDy=0;strokeWidth=2;dashed=1;endArrow=open;endFill=0;" edge="1" parent="1" source="6JY9SX4Q12EulptZ4aJe-38" target="6JY9SX4Q12EulptZ4aJe-40">
          <mxGeometry relative="1" as="geometry" />
        </mxCell>
        <mxCell id="6JY9SX4Q12EulptZ4aJe-46" value="&lt;font style=&quot;font-size: 16px;&quot;&gt;&lt;b&gt;Notification sent&lt;/b&gt;&lt;/font&gt;" style="edgeLabel;html=1;align=center;verticalAlign=middle;resizable=0;points=[];" vertex="1" connectable="0" parent="6JY9SX4Q12EulptZ4aJe-45">
          <mxGeometry x="-0.1514" y="2" relative="1" as="geometry">
            <mxPoint x="-44" y="-2" as="offset" />
          </mxGeometry>
        </mxCell>
        <mxCell id="6JY9SX4Q12EulptZ4aJe-38" value="&lt;b&gt;&lt;font style=&quot;font-size: 16px;&quot;&gt;Azure alert fired&lt;/font&gt;&lt;/b&gt;" style="verticalLabelPosition=bottom;html=1;verticalAlign=top;align=center;strokeColor=none;fillColor=#00BEF2;shape=mxgraph.azure.azure_alert;" vertex="1" parent="1">
          <mxGeometry x="670" y="260" width="67.15" height="52.75" as="geometry" />
        </mxCell>
        <mxCell id="6JY9SX4Q12EulptZ4aJe-47" style="edgeStyle=orthogonalEdgeStyle;rounded=0;orthogonalLoop=1;jettySize=auto;html=1;strokeWidth=2;dashed=1;endArrow=open;endFill=0;" edge="1" parent="1" source="6JY9SX4Q12EulptZ4aJe-40" target="6JY9SX4Q12EulptZ4aJe-5">
          <mxGeometry relative="1" as="geometry" />
        </mxCell>
        <mxCell id="6JY9SX4Q12EulptZ4aJe-48" value="&lt;b style=&quot;font-size: 16px;&quot;&gt;Improvement of code&lt;br&gt;and model&lt;br&gt;&lt;/b&gt;" style="edgeLabel;html=1;align=center;verticalAlign=middle;resizable=0;points=[];" vertex="1" connectable="0" parent="6JY9SX4Q12EulptZ4aJe-47">
          <mxGeometry x="0.2702" y="-5" relative="1" as="geometry">
            <mxPoint y="-13" as="offset" />
          </mxGeometry>
        </mxCell>
        <mxCell id="6JY9SX4Q12EulptZ4aJe-40" value="Developer team" style="shape=image;verticalLabelPosition=bottom;labelBackgroundColor=#ffffff;verticalAlign=top;aspect=fixed;imageAspect=0;image=data:image/svg+xml,PHN2ZyB4bWxuczpjYz0iaHR0cDovL2NyZWF0aXZlY29tbW9ucy5vcmcvbnMjIiB4bWxuczpkYz0iaHR0cDovL3B1cmwub3JnL2RjL2VsZW1lbnRzLzEuMS8iIHhtbG5zOmlua3NjYXBlPSJodHRwOi8vd3d3Lmlua3NjYXBlLm9yZy9uYW1lc3BhY2VzL2lua3NjYXBlIiB4bWxuczpyZGY9Imh0dHA6Ly93d3cudzMub3JnLzE5OTkvMDIvMjItcmRmLXN5bnRheC1ucyMiIHhtbG5zOnNvZGlwb2RpPSJodHRwOi8vc29kaXBvZGkuc291cmNlZm9yZ2UubmV0L0RURC9zb2RpcG9kaS0wLmR0ZCIgeG1sbnM6c3ZnPSJodHRwOi8vd3d3LnczLm9yZy8yMDAwL3N2ZyIgeG1sbnM9Imh0dHA6Ly93d3cudzMub3JnLzIwMDAvc3ZnIiB4bWxuczp4bGluaz0iaHR0cDovL3d3dy53My5vcmcvMTk5OS94bGluayIgdmVyc2lvbj0iMS4xIiBpZD0ic3ZnMTA4MDUyIiBpbmtzY2FwZTp2ZXJzaW9uPSIwLjkyLjMgKDI0MDU1NDYsIDIwMTgtMDMtMTEpIiBzb2RpcG9kaTpkb2NuYW1lPSJ0ZWFtLnN2ZyIgeD0iMHB4IiB5PSIwcHgiIHZpZXdCb3g9IjAgMCA0OS41IDQ5LjUiIHN0eWxlPSJlbmFibGUtYmFja2dyb3VuZDpuZXcgMCAwIDQ5LjUgNDkuNTsiIHhtbDpzcGFjZT0icHJlc2VydmUiPiYjeGE7PHNvZGlwb2RpOm5hbWVkdmlldyBib3JkZXJjb2xvcj0iIzY2NjY2NiIgYm9yZGVyb3BhY2l0eT0iMSIgZml0LW1hcmdpbi1ib3R0b209IjAiIGZpdC1tYXJnaW4tbGVmdD0iMCIgZml0LW1hcmdpbi1yaWdodD0iMCIgZml0LW1hcmdpbi10b3A9IjAiIGdyaWR0b2xlcmFuY2U9IjEwIiBndWlkZXRvbGVyYW5jZT0iMTAiIGlkPSJuYW1lZHZpZXcxMDgwNTQiIGlua3NjYXBlOmN1cnJlbnQtbGF5ZXI9InN2ZzEwODA1MiIgaW5rc2NhcGU6Y3g9IjMyLjk5OTk4NSIgaW5rc2NhcGU6Y3k9IjMyLjk5OTk4NSIgaW5rc2NhcGU6cGFnZW9wYWNpdHk9IjAiIGlua3NjYXBlOnBhZ2VzaGFkb3c9IjIiIGlua3NjYXBlOndpbmRvdy1oZWlnaHQ9IjEwMTciIGlua3NjYXBlOndpbmRvdy1tYXhpbWl6ZWQ9IjEiIGlua3NjYXBlOndpbmRvdy13aWR0aD0iMTkyMCIgaW5rc2NhcGU6d2luZG93LXg9Ii04IiBpbmtzY2FwZTp3aW5kb3cteT0iLTgiIGlua3NjYXBlOnpvb209IjEyLjc1MDAwNiIgb2JqZWN0dG9sZXJhbmNlPSIxMCIgcGFnZWNvbG9yPSIjZmZmZmZmIiBzaG93Z3JpZD0iZmFsc2UiPiYjeGE7CTwvc29kaXBvZGk6bmFtZWR2aWV3PiYjeGE7PGcgaWQ9ImcxMDgwNTAiIHRyYW5zZm9ybT0idHJhbnNsYXRlKC0wLjc1LC0wLjc1KSI+JiN4YTsJPHRpdGxlIGlkPSJ0aXRsZTEwNzk5MiI+UGFnZS0xPC90aXRsZT4mI3hhOwk8ZyBpZD0iZ3JvdXA1MDIyLTEiIHRyYW5zZm9ybT0idHJhbnNsYXRlKDEuNSwtMS41KSI+JiN4YTsJCTx0aXRsZSBpZD0idGl0bGUxMDc5OTQiPlRlYW08L3RpdGxlPiYjeGE7CQk8ZyBpZD0ic2hhcGU1MDIzLTIiPiYjeGE7CQkJPHRpdGxlIGlkPSJ0aXRsZTEwNzk5NiI+Y2lyY2xlNjUyNjwvdGl0bGU+JiN4YTsJCQk8Y2lyY2xlIGlkPSJlbGxpcHNlMTA3OTk4IiBzdHlsZT0iZmlsbDojRkZGRkZGO3N0cm9rZTojNTU2QThBO3N0cm9rZS13aWR0aDoxLjU7c3Ryb2tlLW1pdGVybGltaXQ6MzsiIGN4PSIyNCIgY3k9IjI3IiByPSIyNCIvPiYjeGE7CQk8L2c+JiN4YTsJCTxnIGlkPSJncm91cDUwMjQtNCIgdHJhbnNmb3JtPSJ0cmFuc2xhdGUoNS44MTI1LC04LjI1KSI+JiN4YTsJCQk8dGl0bGUgaWQ9InRpdGxlMTA4MDAxIj5nNjU0NjwvdGl0bGU+JiN4YTsJCQk8ZyBpZD0iZ3JvdXA1MDI1LTUiIHRyYW5zZm9ybT0idHJhbnNsYXRlKDAsLTEwLjUpIj4mI3hhOwkJCQk8dGl0bGUgaWQ9InRpdGxlMTA4MDAzIj5nNjUzMjwvdGl0bGU+JiN4YTsJCQkJPGcgaWQ9InNoYXBlNTAyNi02IiB0cmFuc2Zvcm09InRyYW5zbGF0ZSgzLC04LjI1KSI+JiN4YTsJCQkJCTx0aXRsZSBpZD0idGl0bGUxMDgwMDUiPmNpcmNsZTY1Mjg8L3RpdGxlPiYjeGE7CQkJCQkmI3hhOwkJCQkJCTxjaXJjbGUgaWQ9ImVsbGlwc2UxMDgwMDciIHN0eWxlPSJmaWxsOiNFNkU3RTg7c3Ryb2tlOiM1NTZBOEE7c3Ryb2tlLXdpZHRoOjEuNTtzdHJva2UtbWl0ZXJsaW1pdDozOyIgY3g9IjUuNjMiIGN5PSI0NS4zOCIgcj0iNS42MyIvPiYjeGE7CQkJCTwvZz4mI3hhOwkJCQk8ZyBpZD0ic2hhcGU1MDI3LTgiPiYjeGE7CQkJCQk8dGl0bGUgaWQ9InRpdGxlMTA4MDEwIj5wYXRoNjUzMDwvdGl0bGU+JiN4YTsJCQkJCTxwYXRoIGlkPSJwYXRoMTA4MDEyIiBpbmtzY2FwZTpjb25uZWN0b3ItY3VydmF0dXJlPSIwIiBzdHlsZT0iZmlsbDojRTZFN0U4OyIgZD0iTTAsNTFjMC4yLTQuNzYsNC4yMi04LjQ2LDguOTgtOC4yNyAgICAgICBjNC40OCwwLjE5LDguMDgsMy43OCw4LjI3LDguMjdIMHoiLz4mI3hhOwkJCQkJJiN4YTsJCQkJCQk8cGF0aCBpZD0icGF0aDEwODAxNCIgaW5rc2NhcGU6Y29ubmVjdG9yLWN1cnZhdHVyZT0iMCIgc3R5bGU9ImZpbGw6bm9uZTtzdHJva2U6IzU1NkE4QTtzdHJva2Utd2lkdGg6MS41O3N0cm9rZS1taXRlcmxpbWl0OjM7IiBkPSIgICAgICAgTTAsNTFjMC4yLTQuNzYsNC4yMi04LjQ2LDguOTgtOC4yN2M0LjQ4LDAuMTksOC4wOCwzLjc4LDguMjcsOC4yNyIvPiYjeGE7CQkJCTwvZz4mI3hhOwkJCTwvZz4mI3hhOwkJCTxnIGlkPSJncm91cDUwMjgtMTEiIHRyYW5zZm9ybT0idHJhbnNsYXRlKDE5LjEyNSwtMTAuNSkiPiYjeGE7CQkJCTx0aXRsZSBpZD0idGl0bGUxMDgwMTgiPmc2NTM4PC90aXRsZT4mI3hhOwkJCQk8ZyBpZD0ic2hhcGU1MDI5LTEyIiB0cmFuc2Zvcm09InRyYW5zbGF0ZSgzLC04LjI1KSI+JiN4YTsJCQkJCTx0aXRsZSBpZD0idGl0bGUxMDgwMjAiPmNpcmNsZTY1MzQ8L3RpdGxlPiYjeGE7CQkJCQkmI3hhOwkJCQkJCTxjaXJjbGUgaWQ9ImVsbGlwc2UxMDgwMjIiIHN0eWxlPSJmaWxsOiNFNkU3RTg7c3Ryb2tlOiM1NTZBOEE7c3Ryb2tlLXdpZHRoOjEuNTtzdHJva2UtbWl0ZXJsaW1pdDozOyIgY3g9IjUuNjMiIGN5PSI0NS4zOCIgcj0iNS42MyIvPiYjeGE7CQkJCTwvZz4mI3hhOwkJCQk8ZyBpZD0ic2hhcGU1MDMwLTE0Ij4mI3hhOwkJCQkJPHRpdGxlIGlkPSJ0aXRsZTEwODAyNSI+cGF0aDY1MzY8L3RpdGxlPiYjeGE7CQkJCQk8cGF0aCBpZD0icGF0aDEwODAyNyIgaW5rc2NhcGU6Y29ubmVjdG9yLWN1cnZhdHVyZT0iMCIgc3R5bGU9ImZpbGw6I0U2RTdFODsiIGQ9Ik0wLDUxYzAuMi00Ljc2LDQuMjItOC40Niw4Ljk4LTguMjcgICAgICAgYzQuNDgsMC4xOSw4LjA4LDMuNzgsOC4yNyw4LjI3SDB6Ii8+JiN4YTsJCQkJCSYjeGE7CQkJCQkJPHBhdGggaWQ9InBhdGgxMDgwMjkiIGlua3NjYXBlOmNvbm5lY3Rvci1jdXJ2YXR1cmU9IjAiIHN0eWxlPSJmaWxsOm5vbmU7c3Ryb2tlOiM1NTZBOEE7c3Ryb2tlLXdpZHRoOjEuNTtzdHJva2UtbWl0ZXJsaW1pdDozOyIgZD0iICAgICAgIE0wLDUxYzAuMi00Ljc2LDQuMjItOC40Niw4Ljk4LTguMjdjNC40OCwwLjE5LDguMDgsMy43OCw4LjI3LDguMjciLz4mI3hhOwkJCQk8L2c+JiN4YTsJCQk8L2c+JiN4YTsJCQk8ZyBpZD0iZ3JvdXA1MDMxLTE3IiB0cmFuc2Zvcm09InRyYW5zbGF0ZSg5KSI+JiN4YTsJCQkJPHRpdGxlIGlkPSJ0aXRsZTEwODAzMyI+ZzY1NDQ8L3RpdGxlPiYjeGE7CQkJCTxnIGlkPSJzaGFwZTUwMzItMTgiIHRyYW5zZm9ybT0idHJhbnNsYXRlKDMsLTguMjUpIj4mI3hhOwkJCQkJPHRpdGxlIGlkPSJ0aXRsZTEwODAzNSI+Y2lyY2xlNjU0MDwvdGl0bGU+JiN4YTsJCQkJCSYjeGE7CQkJCQkJPGNpcmNsZSBpZD0iZWxsaXBzZTEwODAzNyIgc3R5bGU9ImZpbGw6I0FBRTlGQjtzdHJva2U6IzU1NkE4QTtzdHJva2Utd2lkdGg6MS41O3N0cm9rZS1taXRlcmxpbWl0OjM7IiBjeD0iNS42MyIgY3k9IjQ1LjM4IiByPSI1LjYzIi8+JiN4YTsJCQkJPC9nPiYjeGE7CQkJCTxnIGlkPSJzaGFwZTUwMzMtMjAiPiYjeGE7CQkJCQk8dGl0bGUgaWQ9InRpdGxlMTA4MDQwIj5wYXRoNjU0MjwvdGl0bGU+JiN4YTsJCQkJCTxwYXRoIGlkPSJwYXRoMTA4MDQyIiBpbmtzY2FwZTpjb25uZWN0b3ItY3VydmF0dXJlPSIwIiBzdHlsZT0iZmlsbDojQUFFOUZCOyIgZD0iTTAsNTFjMC4yLTQuNzYsNC4yMi04LjQ2LDguOTgtOC4yNyAgICAgICBjNC40OCwwLjE5LDguMDgsMy43OCw4LjI3LDguMjdIMHoiLz4mI3hhOwkJCQkJJiN4YTsJCQkJCQk8cGF0aCBpZD0icGF0aDEwODA0NCIgaW5rc2NhcGU6Y29ubmVjdG9yLWN1cnZhdHVyZT0iMCIgc3R5bGU9ImZpbGw6bm9uZTtzdHJva2U6IzU1NkE4QTtzdHJva2Utd2lkdGg6MS41O3N0cm9rZS1taXRlcmxpbWl0OjM7IiBkPSIgICAgICAgTTAsNTFjMC4yLTQuNzYsNC4yMi04LjQ2LDguOTgtOC4yN2M0LjQ4LDAuMTksOC4wOCwzLjc4LDguMjcsOC4yNyIvPiYjeGE7CQkJCTwvZz4mI3hhOwkJCTwvZz4mI3hhOwkJPC9nPiYjeGE7CTwvZz4mI3hhOzwvZz4mI3hhOzwvc3ZnPg==;fontStyle=1;fontSize=16;" vertex="1" parent="1">
          <mxGeometry x="234" y="262.75" width="50" height="50" as="geometry" />
        </mxCell>
        <mxCell id="6JY9SX4Q12EulptZ4aJe-49" value="" style="shape=image;verticalLabelPosition=bottom;labelBackgroundColor=default;verticalAlign=top;aspect=fixed;imageAspect=0;image=data:image/png,iVBORw0KGgoAAAANSUhEUgAAAbkAAAESCAYAAABgj6sFAAAABHNCSVQICAgIfAhkiAAAABl0RVh0U29mdHdhcmUAZ25vbWUtc2NyZWVuc2hvdO8Dvz4AAAAodEVYdENyZWF0aW9uIFRpbWUAbWFyLiAyMSBtYXJzIDIwMjMgMTA6MDc6MjK6zgRvAAAXpklEQVR4nO3dWYxkV33H8V/VrfVWVy/Ti3uZnrFna9uDxRYR2QQRIuQoCULGICsBJaBsEkiJ8sZT8oSElKfkBYmgJEIiihTJDgIrCYYkoEiEOAQwYPB4xsNs3T2emZ5eau/a8tBue6aXuud23ap769T38zTTfereM6Nx/3y2/4mVlp9pCwAAC8XD7gAAAL1CyAEArEXIAQCsRcgBAKxFyAEArEXIAQCsRcgBAKxFyAEArEXIAQCsRcgBAKxFyAEArEXIAQCslQi7A8Agqq26alWdvr0vPVdWPNPs2/sAWxBygKHK5bzWvzOt4g9HQ3l/cmpbo4+va+J9twg8wFCMq3YAb7e/tqj1b02G3Q1JUvpEVbOfuKb0XDnsrgCRx5oc4GHthfnIBJwk1a5ldOOvT/d1uhQYVIQc0EF9PaO152fC7sY+zbKjW19dDLsbQOQRckAHa9+YDbsLh9r67rjq65mwuwFEGiEHdFD6UT7sLnRUenks7C4AkUbIAR00y9Fe94p6/4CwcYQA6GDxz17r+P1bzy2odm1nyjB9oqqZp5e7el9txdWtf5p78/czz6wqPX/4LsrERL2r9wG2I+SADrKnCh2/72Sb9/3aq71f6fly4M8EhgnTlQAAaxFyAABrEXIAAGsRcgAAaxFyAABrEXIAAGsRcgAAaxFyAABrEXIAAGsRcgAAaxFyAABrEXIAAGsRcgAAaxFyQBdGf3ldkuS4TY3/6p2un5c9VVD6RFXSztU93EAAdCdWWn6mHXYngEHWqu5cXBrPND1amquvZ5ScqAb2PGBYcZ8c0KUgw20XAQcEg5ADJBVfHldtJavajaxaFUej71nX6C/tn3688YWzIfTuLcc/c3Hf17a+P6WtFycUzzaVPl5Rer6ikfMbIfQOiB5CDkOt+PKEbj87p/qd1H1fz54pHdi+/EquH93ypX439Wa/ij8clSQlp7Y1/dFVjZxfD7NrQOjYeIKhtfbCvFa+eHJfwNmgfiellS+e1NoL82F3BQgVIYehVHx5QmvPz4TdjZ5be35GxZcnwu4GEBpCDkPp9rNzYXehb4bpzwrsRchh6FQu562cojxM/U5KtVU37G4AoSDkMHTKl/Jhd6Hvij8ZD7sLQCgIOQCAtQg5AIC1CDkAgLUIOQCAtQg5AIC1CDkAgLUIOQCAtQg5AIC1CDkAgLUIOQCAtQg5AIC1CDkAgLUIOQCAtQg5AIC1CDkAgLUIOQCAtQg5AIC1CDkAgLUIOQCAtQg5AIC1CDkAgLUIOQCAtQg5AIC1CDkAgLUIOQCAtQg5AIC1CDkAgLUIOQCAtQg5AIC1CDkAgLUIOQCAtQg5AIC1CDkAgLUIOQCAtQg5AIC1CDkAgLUIOQCAtQg5AIC1CDkAgLUIOQCAtQg5AIC1CDkAgLUIOQCAtQg5AIC1CDkAgLUIOQCAtQg5AIC1CDkAgLUIOQCAtQg5AIC1CDkAgLUIOQCAtQg5AIC1CDkAgLUIOQCAtQg5AIC1CDkAgLUIOQwdx22G3YW+G8Y/MyARchhC2dOFsLvQd7nzm2F3AQgFIYehk54ry10qhd2NvnGXSkpOVMPuBhAKQg5Dafrp5aGYwnPcpqafXg67G0BoCDkMpfRcWQ/87g2rg85xm5r/4ytKz5XD7goQmkTYHQDCMnJ+XenPVrT2jVltfXc87O4EavSJDU3++k2mKTH0CDkMteREVbO/fUUzTzmqrbiq302rfGnk0PaJybrGHl/vYw/fsvnfE4d+b/SJDWWOV5SeLys9X1Y8Y+8IFfCDkAMkxTNNZU8VlD1VUPJYTbeeW9Dkkyv3talczis1tb3v6/1SuZhT5XJe2VP37w4t/nhUM08v7/s6ANbkgAPVrmV0+2uLb/1+1dXNryx2+ER/3HpuQbVV983f3/7aomrXMiH2CIg2RnLAIda/Nan1b00qObWt+p2UJCk5WQ+1T7VrGV39/Ln7+gTgcIzkAA9RDJMo9gmIIkIOAGAtQg7YIz1fPvT8XCLE6crD3u24TaXnOQsHHISQA/aIZ5qa/tjqvq8nJuuaeep6CD3aMfPU9QPDd/pjqxwZAA4RKy0/0w67E0AUVS7ntfnipBprSaUXq5p8ciX0MGlVHa29MK/a9czOmb33rHF0AOiAkAMAWIvpSgCAtQg5AIC1CDkAgLUIOQCAtQg5AIC1CDkAgLUIOQCAtQg5AIC1CDkAgLUIOQCAtQg5AIC1CDkAgLUIOQCAtQg5AIC1EmF3AMOpsZnS5T9/NJR3T3/0pibef7Njm63vT2nrfyY6tpn68Koyi8Ugu2Zk7ZtzWvv6Ax3bnPjsRWUWSj3vy40vnFX5ldyh349nmjrzlz/peT+AwxBywAHqd1MqXzj8h7cktcpOn3pzv5jB/Et7uz+TNK1q578Dk74CvcQ/QWDQxL3vOW7V+hPArVqsc4MEdzIjXIQcMGBMRketukf4BKRV7dyZmEPIIVyEHDBgnFzDs027XyM5j5BzRpp96QdwGEIOGDCJsbpnm+3XMz3vR7OQUqvSOUwTx7z7CvQSIQcMmMT4tmeb6rXeh1zlmuvZJnnMu69ALxFywIBJjNc829SuZnvej9oNg5CbZCSHcBFywICJJ1tKzXUOumbZUf1Ob0dz1aveIZeer/S0D4AXzskhskbevaX5T14OuxuRlHmwqu3VdMc25Yt5jU1Ve/L+djOuisc5QkmhHJYH7sVIDhhAmZNlzzbFl8Z69v7Sz8c8jymkFmqKp9ldiXARcsAAypz0HiGVfjaiVrk3kzXFl8Y922RP976sGOCFkAMGUGahJGfce1NH8aed628eRbsZV/EHo57tco8UAn834BchBwyo/Du8Q2Trf71HXH4VfzphVFHFPbsV+LsBvwg5YEDlznuHSPlCTrVV712Qftx9YdqzTe6xouIp1uMQPkIOGFC5pQ05I94lvtb/s/O1PH5UfpFX7br30YT82zcDeyfQDUIOGGBjT2x4tim8OKrGZiqQ9939jxnPNvF0WyPvXAvkfUC3CDlggI09fsezTbsV0/q3ux/N1VZdlV7Ke7YbfXxd8WSr6/cBQSDkgAGWnKzKfcT7OMH6v0+qvtZdBZTb/7xg1G7sCe/gBfqFkAMG3MQHzELl9tfnj/yO0s/HVX7Fu8JJ7tGi0rPeB9WBfiHkgAGXW9rwrGUpScUfjKp6dcT389st6dazZgE58cHbvp8P9BIhBwy6mHTsSbNwufmPi2o3/P1nv/7tOdVveW9cyTxUkXuGXZWIFgo0I7JaRUeVy94bHUzFEm1lTthZMHj03Xe09i8zqt/uHEbbK2mt/du8pj50w+i5tdezuvNVs00rk7/xulE7oJ8IOURW+UJO5QunA3tecmpbD/3FzwJ7XtRMP7WqlS+d9Gx395tTGnlsw7P+ZbsR1+rfP2j0bneppNzD3scZgH5juhLDw7sS1UAbeWxd2dMG97e1pdUvn1Cr6nRstvavC9pe6Xydz67pjy4btQP6jZADLDL9EbOwqd9JafUfHjz0+8WXJ3T3m5NGzxr7lXV2VCKyCDkMj3bYHei9zImixj9w16ht6aW81r8zu+/rjY2Ubn75uNEznJGGpj9str4HhIGQw/CwfLpy19RvLSsx4X0NjyTdfnZWlV/cv7ln5e9OeU5l7pr5nWXFMxRiRnQRcoBl4qmmZj9uPrpa+ZsH1djY2ZV567kTql4xq4ySe0dB+cfWj9RHoF8IOQyPIRnJSZK7tKmJD5oVSW6WHC1/6ZS2XpzWxrePGX0mcayuuY9f6aKHQH8QchgeQ1YzeOo3l5U+WTVqW7ue0c2vmNWmVEya/4OrTFNiIHBODpGVmq8p/67gKmg4ueH6oRxLtDT/ySu6+vklo5u8TU19+HVlFu08VA/7EHKIrNRcTZNProTdjYGWnKrqgd+7odW/XQzkee7DJR37tdVAngX0A9OVgOXyb1/T2Pu63yDijDU0/6lfDNXaJgYfIQcMgZmPXFf2XOnIn4+n2zr+mcuKu40AewX0HiEHDIFYoqWFP7qs9HHvK3n2fTbe1sKnLys9R1UTDB5CDhgS8XRTxz99Sal5f0E394fXlD1V6FGvgN4i5IAh4uTrOvEnl5RaMAi6mDT7qesaeRsHvjG4CDlgyMRzdc3//hXPdiPv3NLou8wOlANRRcgBQyie9D4zGDMrXwlEGiEHALAWIQcAsBYhBwCwFiEHALAWIQcAsBYhBwCwFiEHALAWV+0AR7T1f8dUuZrr2fMnPnBT8WSIN73G2uG9GwgIIQcc0db3xnr6/In33pbCDLk2d+pg8DFdCQCwFiEHALAWIQcAsBYhBwCwFiEHALAWIQcAsBYhBwCwFufkEIp4pqnJD93q2CY1W+1Tb/ZzzxSkD4X2+h0p74tNj8rk7z89V+nZ+4F+iZWWn6GsAQDASkxXAgCsRcgBAKxFyAEArEXIAQCsxe5KRE7tpqvij8e7ekb2ZEnu0mZAPTpY/U5GWz841tUz0gsVjZxf77ovrZqj9e880PVzgpJeKGvk/EbY3QAIOURP5VJea8/PdPUMd6n3IVf48UTX/cw9Vggm5KpO130J0th71wk5RALTlYicxmay62dULrpq13v7z7tysfsLU4P4swI4HCGHyAniB3+7FVP1eu9u7W63Yiq/GkDIrTOZAvQSIYfIaWwE84O/fCkfyHMOUrueU7ve/c3ZzUJC7RY3cAO9QsghchqbwYRcENOJhym/FlyANreYsgR6hZBD5DTupgJ5TuWi27NRUpAB2tgM5s8LYD9CDpHSqjlq1YIJpnYrpurVkUCetfe5QazH7WowkgN6hpBDpAQ9qilfCj7kglqP29XYYiQH9Aohh0hpFoL9gV+5GHzIlS8H+8zGBiM5oFfYv4xIqW8F+0+y8pob6POk4IOz39OVmYcqiqdaPX1H6oFaT58PmCLkECnNgA9Ht+sxVa7klX2wENgzKxeC3bXZ3HQCfZ6X2U9cU2qGC1ExHJiuRKSYjmpSCzU5Yw2jtkGuy1WvjahluB6Xe6xo1K7OdCXQM4QcIsX0B35yvK7cebMQCXK7f8XHelz+nWa1G6l6AvQOIYdIaRqGXGK8LvesYchdygV2Xq5sGJjuI0Ulj5mtS7Uqjlo9rrMJDCv+y0Kk1A1HNc5oQ7lzZrcMtOsxVa8FMGXZ3jlgbsJdKsnJm02nSlJjI33UXgHogJBDdLSlpmHIJce35eTrSs2ZjZYqr3UfctXrI2pVzTaJuGcKSoxtGz+7WWDKEugFQg6R0SwnjacVndGdUZL7cMmofRDrcqbrcfFMU5nFouKppuLZptFn6pT2AnqCkENk+DkvlhirS5Lcs2ZHA8oXu1+XM1+PK0tvvCoxbjZlGfTRCQA7CDlEhp+SXonRnalA9/TWm4HSSbseU62bdTlf63FvbYhJGB5zoH4l0BuEHCLDeDQTkxL5nZCLZ5vKnKwafazcxbpc9Yaf9bitN39tOpKjtBfQG4QcIsO0pJczVr9v9HbvyKmTbtblTDeuOGON+6qJ7E6reiHkgN4g5BAZpiO55MT9oyP3XO/X5cqXzAIy9+j9G2HMQ66/pb2AYUHIITJMq53snQLMPlRQLN72/Fy7HlPt+hFGc22p8qrhetyewHUMjxE07jKSA3qBkENkNAxHcntHR7FES9mzZaPPll/L++5Xddl8PW7vAfWk4YHwdiumVomgA4JGyCEyTGs4HjQFmO3hupzpelxqviYnf3/fnFGz6UpJqhcIOSBolFlAJLRbMeOqHweFXO5sQWt6wPOz5Vd31uVMpjff/Izp+bgDgjYxbn6vWnMzKc0aNz+yK59b6tmzs2cqWvzTCz17PuAXIzlEQrOQlAxz56CQSy+WFM94VxfxvS7naz1uf8jF4m05I4bHCDgQDgSOkEMk+DkI7ozu38wRi7eVPRf8upzxelxMcs9uHfitxLhhaS8OhAOBI+QQCX4qfiQPCDnJx3k5w+MAkvl6XOahiuKpg8PM9BhBk5ADAkfIIRJMR3KxePvQosfGdSwvmJ+XMz0f1ylgE+NmIccN4UDwCDlEgvHxganDAyM9W5aTM1yXu2EQXm2pcsFsPS53wHrcrt0bE7yYXhgLwBwhh0hoGJb0Sk50HhW5582mLMsG1+ZUV3JG63GxRFuZk4ePIpOG9SvrVD0BAkfIIRKaG6Z1KzsHRu6s6Xk575CrGG5Qcc+VFEu0Dv3+QRtlDtLcNN9hCsAMIYdIMF2PSnqsb2UN1+UqF7OegWK6Hpd9uHOwJvKGB8LbUqPA5alAkAg5RIJptROv9a3ksaoSk96h0qo6qt7oMJprS5VXDM/HnfEIOcP6lZLU2CLkgCBR8QSha207alXM1qMS496BkXu0oM3/OubZrnJ5RJnFgwOqtmq2Hue4TWWOBxhymwnpuHHzI5n95A0lJ8wrsfgRzxw+bQuEgZBD6PycD0sa1IJ0z5aMQq78ak4T7z/ke5fM1uOyj5S8G2lnBNo02FzTj7NymcXSfXfeATZjuhKh83MQ3KTgsXv64Moje1UuuoeuyxnfH2d4l53pDeF1H5VfAHgj5BC6uo91KJOCx06+rvRx73atqqPq8gHrcj7W47Ie63G7TA+ENzeZXAGCRMghdKY3gjsjDePbA1yPHY+7DirbZbweN9ZQatps2s805BocCAcCRcghdMbVTibMpvwkyT1jWOLrgGt0yob1KkfeZvYOSUoYVj3hJgIgWIQcQmd+I7h5yGXPFCSD8pSVV/evy5UNDopLUrZDKa+9TIs0mx6lAGCGkEPoGoblrEyn/CQpnmoqe8p7KnHfupyP9bjcGbMNLpKUMLwhvFlyjItHA/BGyCF0putQpqOhXVnTq3fumZ6s3XSN1uNSCzU5ppVMZLYrdFdjI23cFkBnhBxC11gzDDkfQSFJuXNmI617jwuY1qvMGW5s2XXYHXgH8XOkAkBnhBxC1SonjKfn/I7kMg8WFUt478asXHhrXc50Pc707rpdzkjdaI1Q8ndLOoDOCDmEys8ZOcdnyMXibbnnvCuStKqOqis7o7nKxazBg9/Y2OKrMz6OERheOwTAGyGHUJmekZP8TfntMl+Xy6u26qpZ9A6Y7OmK4invy1n3Mq164ufvBEBn/C8jQmW8/hR7Y8rPJ9fwfrnypZzxQXM/RwfuZV7ai5ADgkLIIVSmP9ATE+ZrWvfKHC8qnml67pisvOIqZvj83JL50YF7ma4pml4gC8Ab05UIlWnVfT/VTvZyHzVblyv+0HtnZTzdVvYhn+txbzBdk2MkBwSHkEOoTG8E97uz8l4mm09MZc8e/VmmN4Q3bhFyQFAIOYSqaRhySR/VTvZyfVQm8XyW4UaWg5ie82u3YkYH0gF4I+QQqrphSS/HsMDxQVIzFTk+6l524vd83L38HIFo+DhaAeBwhBzC0zbfLt/NdKUk5Qxv8O7EyTWVnj/6c5I+yoARckAw2MaF0DQKqUNv5t6r25BzzxW09b2x7p7RZVDGc3XF4m2jCi+9vHLnyueWevbsvWJx6exf/ahv7wP2YiSH0PgZrSSOcBD8Xrmlza4+L0nu0tGnKnc5hrtEuVcOCAYhh9D4+UHebcg5+bqSs909w/Qi1k6ShiHXpLQXEAhCDqEx/UEeT7cVz/gvo7WX35sD7pWYrCs5We26D47pWTnDXacAOiPkEJr6htl0ZeJYdyOwXd3sjMw9evSAvFfS9IZwpiuBQBByCI3pSC4R1Pb/M1tHKg0mSe4R61XuZXqMoLHOdCUQBEIOoTG+EdywsLGXeLap9ImjTTnmzm0E0gfTA+HNjYTxzlMAhyPkEBrjkl4+bwTvJHeEiiXpxari2e7XBCUpYXiovd2KqVlkyhLoFiGH0JhW2zctbGziKOtyuYeDq33pZ5doo8CBcKBbhBxC0W7F1CwZlvQaC2bjiSRlTxeM74178zNdbFjZy1fIsfkE6FqstPwMM/8IReWy99U2kpSeKwc2XShJ1esjatfNd6BkFkuKJVuBvd/0z52arsrxUQrM9Ll9FdORryYCgkDIAQCsxXQlAMBahBwAwFqEHADAWoQcAMBahBwAwFqEHADAWoQcAMBahBwAwFqEHADAWoQcAMBahBwAwFr/D1m9WYafaY8vAAAAAElFTkSuQmCC;" vertex="1" parent="1">
          <mxGeometry x="1401" y="30" width="231" height="143.52" as="geometry" />
        </mxCell>
        <mxCell id="6JY9SX4Q12EulptZ4aJe-50" value="&lt;font style=&quot;font-size: 21px;&quot;&gt;Katrin-Misel Ponomarjova, P10, AI Engineer, OpenClassrooms&lt;/font&gt;" style="text;strokeColor=none;fillColor=none;html=1;fontSize=24;fontStyle=1;verticalAlign=middle;align=center;rounded=0;shadow=0;fontColor=#FFFFFF;" vertex="1" parent="1">
          <mxGeometry x="80" y="120" width="1510" height="40" as="geometry" />
        </mxCell>
      </root>
    </mxGraphModel>
  </diagram>
</mxfile>
